<svg width="32" height="32" viewBox="0 0 32 32" fill="none" xmlns="http://www.w3.org/2000/svg">
<g clip-path="url(#clip0_276_821)">
<path d="M31.9288 16.1276L28.4127 8.77579C28.3416 8.59816 28.1285 8.49163 27.9509 8.49163H20.1729V7.53264C20.1729 7.24848 19.9242 7 19.6402 7H0.532638C0.248479 7 0 7.24873 0 7.53264V22.2718C0 22.5208 0.248732 22.7338 0.532638 22.7338H4.47491C4.72365 24.4031 6.14417 25.6816 7.88458 25.6816C9.62492 25.6816 11.0455 24.4031 11.2942 22.7338H19.6405H19.6759H22.162C22.4107 24.4031 23.8312 25.6816 25.5716 25.6816C27.3121 25.6816 28.7326 24.4031 28.9813 22.7338H31.4674C31.7515 22.7338 32 22.4851 32 22.2012L31.9998 16.3409C31.9643 16.2698 31.9643 16.199 31.9289 16.1279L31.9288 16.1276ZM7.88449 24.6514C6.53482 24.6514 5.46953 23.5505 5.46953 22.2365C5.46953 20.8868 6.57046 19.8215 7.88449 19.8215C9.23416 19.8215 10.2994 20.8871 10.2994 22.2365C10.2994 23.5859 9.23416 24.6514 7.88449 24.6514ZM19.1431 21.7036H11.294C11.0453 20.0344 9.62477 18.7558 7.88436 18.7558C6.14395 18.7558 4.72344 20.0344 4.4747 21.7036H1.0299V8.02996H19.1431V21.7036ZM25.5715 24.6514C24.2218 24.6514 23.1565 23.5505 23.1565 22.2365C23.1565 20.8868 24.2574 19.8215 25.5715 19.8215C26.9211 19.8215 27.9864 20.9225 27.9864 22.2365C27.9867 23.5859 26.8857 24.6514 25.5715 24.6514ZM30.9345 21.7036H28.9811C28.7323 20.0344 27.3118 18.7558 25.5714 18.7558C23.831 18.7558 22.4105 20.0344 22.1617 21.7036H20.2083L20.2085 9.48611H27.5959L30.9344 16.4472L30.9345 21.7036Z" fill="#3f71ff"/>
</g>
<defs>
<clipPath id="clip0_276_821">
<rect width="32" height="32" fill="white"/>
</clipPath>
</defs>
</svg>
