<?xml version="1.0" encoding="UTF-8"?>
<!DOCTYPE svg PUBLIC "-//W3C//DTD SVG 1.1//EN" "http://www.w3.org/Graphics/SVG/1.1/DTD/svg11.dtd">
<!-- Creator: CorelDRAW X8 -->
<svg xmlns="http://www.w3.org/2000/svg" xml:space="preserve" width="64px" height="64px" version="1.1" style="shape-rendering:geometricPrecision; text-rendering:geometricPrecision; image-rendering:optimizeQuality; fill-rule:evenodd; clip-rule:evenodd"
viewBox="0 0 6400 6400"
 xmlns:xlink="http://www.w3.org/1999/xlink">
 <defs>
  <style type="text/css">
   <![CDATA[
    .str1 {stroke:#FFAB1D;stroke-width:259.846}
    .str4 {stroke:#FFAB1D;stroke-width:259.846}
    .str2 {stroke:#FFAB1D;stroke-width:259.846}
    .str3 {stroke:#FFAB1D;stroke-width:259.846}
    .str5 {stroke:#FFAB1D;stroke-width:259.846}
    .str0 {stroke:#FFAB1D;stroke-width:259.846;stroke-linejoin:round}
    .fil0 {fill:none}
    .fil1 {fill:#FFE5BD}
    .fil3 {fill:#FFE5BD}
    .fil2 {fill:#FFAB1D;fill-rule:nonzero}
   ]]>
  </style>
 </defs>
 <g id="Слой_x0020_1">
  <metadata id="CorelCorpID_0Corel-Layer"/>
  <g id="_2199645538416">
   <rect class="fil0" width="6400" height="6400"/>
   <path class="fil1 str0" d="M285 131l841 0 143 534 -984 0c-85,0 -154,-69 -154,-154l0 -226c0,-85 69,-154 154,-154z"/>
   <g>
    <path class="fil1" d="M1606 1965l4500 0c90,0 163,73 163,161l0 213c0,88 -74,160 -163,160l-4360 -1 -140 -533z"/>
    <path id="1" class="fil2" d="M6106 2095l-4500 0 0 -260 4500 0 0 0 0 260zm292 31l-259 0 0 0 0 -2 0 -1 0 -1 0 -1 0 -2 -1 -1 0 -1 -1 -2 -1 -1 0 -1 -1 -1 -1 -2 0 -1 -1 -1 -2 -1 -1 -2 -1 -1 -1 -1 -2 -1 -1 -1 -1 0 -1 -1 -2 -1 -2 -1 -1 -1 -3 0 -1 -1 -1 0 -2 0 -1 0 -2 -1 -2 0 0 -260 15 1 14 1 15 2 14 2 15 4 14 4 13 4 13 5 13 6 12 6 12 7 13 8 11 8 11 8 10 10 11 9 9 10 9 10 9 11 8 12 8 11 7 12 7 14 6 12 5 13 5 14 4 14 3 13 3 15 2 15 1 15 0 15 0 0zm-259 213l0 -213 259 0 0 213 0 0 -259 0zm-33 290l0 -260 0 0 2 0 1 0 2 0 2 0 1 -1 2 0 2 -1 1 0 2 -1 1 -1 1 0 2 -1 1 -1 2 -2 1 -1 1 -1 2 -1 0 -1 1 -1 2 -2 0 -1 1 -2 1 0 0 -1 1 -2 0 -2 1 -1 0 -1 0 -1 0 -1 0 -1 0 -2 259 0 0 15 -1 15 -2 14 -3 15 -4 15 -4 13 -4 14 -6 13 -5 13 -8 13 -6 12 -8 12 -8 11 -9 10 -9 11 -10 10 -10 10 -11 9 -10 8 -12 8 -11 7 -13 7 -13 7 -12 5 -14 6 -13 4 -13 4 -15 3 -14 3 -15 2 -15 1 -14 0 0 0zm-4360 -261l4360 1 0 260 -4360 -1 -126 -97 126 -163zm0 260c-72,0 -130,-58 -130,-130 0,-71 58,-130 130,-130l0 260zm-15 -696l140 533 -251 66 -139 -533 125 -163 125 97zm-250 66c-18,-69 23,-140 92,-158 69,-18 140,23 158,92l-250 66z"/>
   </g>
   <g>
    <path class="fil2" d="M5581 4496l562 -2165 252 65 -563 2165 -126 97 -125 -162zm251 65c-18,70 -89,111 -158,93 -70,-18 -111,-88 -93,-158l251 65zm-3555 -162l3429 0 0 259 -3429 0 0 -259zm336 1221l2240 0 0 259 -2240 0 -126 -96 126 -163zm0 259c-72,0 -130,-58 -130,-130 0,-71 58,-129 130,-129l0 259zm-738 -3405l864 3242 -252 67 -863 -3243 251 -66z"/>
   </g>
   <line class="fil0 str1" x1="1859" y1="2933" x2="1126" y2= "132" />
   <circle class="fil3 str2" cx="3133" cy="5749" r="520"/>
   <circle class="fil3 str3" cx="4853" cy="5749" r="520"/>
   <line class="fil0 str1" x1="5987" y1="3446" x2="1993" y2= "3446" />
   <line class="fil0 str4" x1="3361" y1="4529" x2="3103" y2= "2450" />
   <line class="fil0 str5" x1="4657" y1="4529" x2="4915" y2= "2450" />
  </g>
 </g>
</svg>
