<svg id="bf108ab2-f03c-4672-93ac-14251da2d309" data-name="Слой 1" xmlns="http://www.w3.org/2000/svg" viewBox="0 0 32 32"><defs><style>.ad262500-4cd1-4fcb-9303-d494678065f5{fill:#ffe5bd;}.a23aa95d-a96f-4ed3-8010-96c73179e6f5,.ad262500-4cd1-4fcb-9303-d494678065f5{stroke:#ffab1d;stroke-linecap:round;stroke-linejoin:round;}.a23aa95d-a96f-4ed3-8010-96c73179e6f5{fill:none;}</style></defs><path class="ad262500-4cd1-4fcb-9303-d494678065f5" d="M11.55,9.19C11.26,9.08,1.14,7.91,1.14,7.91L.5,8.3,1.17,11l1.64,0,.48,2.54s.6.81,1.26.53a6.14,6.14,0,0,1,8.52,4.61c.09.5.3.63.78.63,1.72,0,3.45,0,5.17,0a.81.81,0,0,0,1-.79,6.14,6.14,0,0,1,8.74-4.34c.86-.33,2.77-1,2.77-1L30.1,9.52l-4.22.13-2.4-4.12a.91.91,0,0,0-1.47,0s-1.76,1.76-2.1,2.16Z"/><path class="ad262500-4cd1-4fcb-9303-d494678065f5" d="M10.28,21.19a4.06,4.06,0,0,0-.41-1l.65-1-.67-.67-.66-.66-1,.64a4.13,4.13,0,0,0-1-.4c-.12-.54-.27-1.18-.27-1.18H5.06s-.15.64-.26,1.18a4,4,0,0,0-1,.4l-1-.64-.66.66-.67.67s.36.55.65,1a4.5,4.5,0,0,0-.41,1l-1.17.26v1.88l1.17.26a4.5,4.5,0,0,0,.41,1c-.29.47-.65,1-.65,1l.67.67.66.66,1-.64a4,4,0,0,0,1,.4c.11.54.26,1.18.26,1.18H6.93s.15-.64.27-1.18a4.13,4.13,0,0,0,1-.4l1,.64.66-.66.67-.67-.65-1a4.06,4.06,0,0,0,.41-1l1.17-.26V21.45ZM6,24.29a1.9,1.9,0,1,1,1.89-1.9A1.9,1.9,0,0,1,6,24.29Z"/><path class="ad262500-4cd1-4fcb-9303-d494678065f5" d="M30.29,21.19a4.5,4.5,0,0,0-.41-1l.65-1-.67-.67-.66-.66-1,.64a4.13,4.13,0,0,0-1-.4c-.12-.54-.27-1.18-.27-1.18H25.07s-.15.64-.27,1.18a4.13,4.13,0,0,0-1,.4l-1-.64-.66.66-.67.67.65,1a4.5,4.5,0,0,0-.41,1l-1.17.26v1.88l1.17.26a4.5,4.5,0,0,0,.41,1l-.65,1,.67.67.66.66,1-.64a4.13,4.13,0,0,0,1,.4c.12.54.27,1.18.27,1.18h1.87s.15-.64.27-1.18a4.13,4.13,0,0,0,1-.4l1,.64.66-.66.67-.67-.65-1a4.5,4.5,0,0,0,.41-1l1.17-.26V21.45ZM26,24.29a1.9,1.9,0,1,1,1.9-1.9A1.9,1.9,0,0,1,26,24.29Z"/><line class="a23aa95d-a96f-4ed3-8010-96c73179e6f5" x1="6" y1="16.92" x2="6" y2="13.68"/><line class="a23aa95d-a96f-4ed3-8010-96c73179e6f5" x1="9.85" y1="18.52" x2="12.08" y2="16.29"/><line class="a23aa95d-a96f-4ed3-8010-96c73179e6f5" x1="22.15" y1="18.52" x2="20.54" y2="16.91"/><line class="a23aa95d-a96f-4ed3-8010-96c73179e6f5" x1="26" y1="16.92" x2="26" y2="13.58"/><polyline class="a23aa95d-a96f-4ed3-8010-96c73179e6f5" points="17.05 4.14 18.95 4.14 21.16 6.44"/></svg>