<?xml version="1.0" encoding="UTF-8"?>
<!DOCTYPE svg PUBLIC "-//W3C//DTD SVG 1.1//EN" "http://www.w3.org/Graphics/SVG/1.1/DTD/svg11.dtd">
<!-- Creator: CorelDRAW X8 -->
<svg xmlns="http://www.w3.org/2000/svg" xml:space="preserve" width="64px" height="64px" version="1.1" style="shape-rendering:geometricPrecision; text-rendering:geometricPrecision; image-rendering:optimizeQuality; fill-rule:evenodd; clip-rule:evenodd"
viewBox="0 0 6400 6400"
 xmlns:xlink="http://www.w3.org/1999/xlink">
 <defs>
  <style type="text/css">
   <![CDATA[
    .str0 {stroke:#FFAB1D;stroke-width:90.0011}
    .fil0 {fill:none}
    .fil3 {fill:none;fill-rule:nonzero}
    .fil2 {fill:#FFE5BD}
    .fil1 {fill:#FFAB1D;fill-rule:nonzero}
   ]]>
  </style>
 </defs>
 <g id="Слой_x0020_1">
  <metadata id="CorelCorpID_0Corel-Layer"/>
  <g id="_2140349743936">
   <rect class="fil0" width="6400" height="6400"/>
   <g>
    <path class="fil1" d="M6270 5124l-1412 0 0 -260 1412 0 130 130 -130 130zm0 -260c71,0 130,59 130,130 0,72 -59,130 -130,130l0 -260zm130 -784l0 914 -260 0 0 -914 0 0 260 0zm-1045 -785l0 -260 0 0 54 1 53 5 52 6 51 9 51 12 49 14 49 17 47 19 46 21 45 23 44 25 42 27 41 29 40 31 38 33 36 35 34 36 33 38 31 39 29 41 28 43 25 43 23 45 21 47 19 47 16 49 14 49 12 51 9 51 7 52 4 53 2 54 -260 0 -1 -41 -3 -39 -5 -40 -7 -38 -9 -38 -11 -37 -12 -36 -14 -36 -16 -35 -17 -33 -19 -33 -21 -32 -22 -31 -23 -30 -25 -28 -26 -27 -27 -27 -29 -24 -30 -24 -30 -22 -32 -20 -33 -19 -34 -18 -34 -15 -36 -14 -36 -13 -37 -10 -38 -9 -39 -7 -39 -5 -39 -3 -41 -1 0 0zm-2883 -260l2883 0 0 260 -2883 0 -130 -130 130 -130zm0 260c-72,0 -130,-58 -130,-130 0,-72 58,-130 130,-130l0 260zm-130 1007l0 -1137 260 0 0 1137 -260 0z"/>
   </g>
   <path class="fil2" d="M2592 4422c-49,86 -88,179 -114,276l-170 0 0 593 170 0c26,97 65,190 114,275l-120 121 419 419 120 -121c86,50 178,88 276,114l0 171 592 0 0 -171c98,-26 190,-64 276,-114l120 121 419 -419 -120 -121c49,-85 88,-178 114,-275l170 0 0 -593 -170 0c-26,-97 -65,-190 -114,-276l120 -120 -419 -419 -120 121c-86,-50 -178,-88 -276,-114l0 -171 -592 0 0 171c-98,26 -190,64 -276,114l-120 -121 -419 419 120 120zm472 572c0,-286 232,-518 519,-518 286,0 518,232 518,518 0,287 -232,519 -518,519 -287,0 -519,-232 -519,-519z"/>
   <g>
    <path class="fil1" d="M3879 3849l-592 0 0 -260 592 0 130 130 -130 130zm0 -260c72,0 130,58 130,130 0,72 -58,130 -130,130l0 -260zm-130 301l0 -171 260 0 0 171 -163 125 -97 -125zm260 0c0,71 -58,130 -130,130 -72,0 -130,-59 -130,-130l260 0zm54 22l184 184 -157 20 -8 -4 -7 -4 -6 -4 -8 -3 -7 -5 -8 -3 -7 -4 -7 -4 -8 -3 -7 -4 -8 -4 -7 -3 -8 -3 -7 -4 -8 -3 -7 -3 -8 -3 -7 -3 -8 -3 -8 -3 -8 -3 -8 -3 -7 -3 -8 -2 -8 -3 -8 -3 -8 -2 -8 -3 -8 -2 -8 -2 -8 -3 -8 -2 67 -251 10 3 10 3 10 3 10 3 10 3 10 3 10 3 10 3 10 4 10 3 10 4 10 4 9 3 10 4 10 4 9 4 10 4 10 4 9 4 9 4 10 5 10 5 9 4 9 4 9 5 10 5 9 5 9 4 9 5 9 6 9 5 9 5 -157 20zm157 -20c62,36 83,115 47,177 -36,62 -115,83 -177,47l130 -224zm147 83l-120 121 -184 -184 121 -120 183 0 0 183zm-183 -183c50,-51 133,-51 183,0 51,50 51,132 0,183l-183 -183zm418 602l-418 -419 183 -183 419 418 0 184 -184 0zm184 -184c51,51 51,133 0,184 -51,50 -133,50 -184,0l184 -184zm-304 121l120 -121 184 184 -121 120 -204 -26 21 -157zm183 183c-50,51 -132,51 -183,0 -51,-51 -51,-133 0,-183l183 183zm23 54l0 260 -125 -96 -2 -8 -3 -8 -2 -9 -3 -8 -2 -8 -2 -7 -3 -8 -3 -8 -2 -8 -3 -7 -3 -8 -3 -9 -3 -7 -3 -8 -3 -8 -3 -7 -3 -8 -4 -8 -3 -7 -3 -7 -4 -8 -4 -8 -3 -7 -4 -7 -3 -8 -4 -7 -4 -7 -4 -8 -4 -7 -4 -7 -4 -7 -4 -7 225 -131 5 9 5 9 5 10 5 8 5 9 5 9 5 10 4 9 5 9 5 11 4 9 4 8 4 10 5 10 4 10 4 9 4 10 4 9 3 10 4 10 4 10 3 9 4 10 3 11 3 9 4 10 3 11 3 9 3 11 3 9 3 10 3 11 -126 -97zm126 97c18,69 -23,140 -92,159 -70,18 -141,-23 -159,-92l251 -67zm44 163l-170 0 0 -260 170 0 130 130 -130 130zm0 -260c72,0 130,59 130,130 0,72 -58,130 -130,130l0 -260zm-130 722l0 -592 260 0 0 592 -130 130 -130 -130zm260 0c0,72 -58,130 -130,130 -71,0 -130,-58 -130,-130l260 0zm-300 -129l170 0 0 259 -170 0 -126 -163 126 -96zm0 259c-72,0 -130,-58 -130,-130 0,-71 58,-129 130,-129l0 259zm-23 54l-183 184 -21 -157 4 -8 4 -7 4 -6 4 -7 4 -8 4 -7 4 -8 3 -7 3 -7 4 -8 4 -8 3 -6 4 -8 3 -8 3 -7 4 -8 3 -8 3 -7 3 -8 3 -8 3 -8 3 -8 2 -7 3 -8 3 -8 2 -8 3 -8 2 -8 2 -8 3 -8 2 -8 2 -8 251 67 -3 11 -2 9 -3 10 -3 10 -3 10 -4 11 -3 10 -3 9 -3 10 -4 11 -4 9 -3 10 -4 9 -4 10 -4 11 -4 9 -4 9 -4 10 -4 9 -4 9 -5 11 -4 9 -4 8 -5 10 -5 10 -4 9 -5 9 -5 9 -5 9 -5 10 -5 9 -5 8 -21 -157zm21 157c-36,62 -116,83 -178,47 -62,-35 -83,-115 -47,-177l225 130zm-84 148l-120 -121 183 -184 121 121 0 184 -184 0zm184 -184c51,51 51,133 0,184 -51,50 -133,50 -184,0l184 -184zm-602 419l418 -419 184 184 -419 418 -183 0 0 -183zm183 183c-50,51 -133,51 -183,0 -51,-50 -51,-133 0,-183l183 183zm-120 -304l120 121 -183 183 -121 -120 27 -204 157 20zm-184 184c-50,-51 -50,-133 0,-184 51,-50 133,-50 184,0l-184 184zm-54 22l-260 0 97 -125 8 -2 8 -3 8 -2 8 -2 8 -3 8 -2 8 -3 8 -3 7 -2 8 -3 8 -3 8 -3 8 -3 8 -3 8 -3 7 -3 7 -3 8 -3 7 -3 8 -4 8 -4 7 -3 7 -4 8 -3 8 -4 6 -3 7 -4 8 -4 8 -4 7 -4 7 -4 7 -4 130 224 -9 5 -9 6 -9 5 -9 4 -9 5 -9 5 -10 5 -9 5 -9 4 -10 5 -9 4 -9 4 -10 4 -10 5 -9 4 -9 4 -11 4 -9 4 -10 4 -9 3 -10 4 -10 4 -9 3 -11 4 -10 3 -10 3 -10 3 -10 3 -10 3 -10 3 -10 3 -10 3 96 -126zm-96 126c-70,18 -141,-23 -159,-92 -19,-69 22,-141 92,-159l67 251zm-164 45l0 -171 260 0 0 171 -130 130 -130 -130zm260 0c0,71 -58,130 -130,130 -72,0 -130,-59 -130,-130l260 0zm-722 -130l592 0 0 260 -592 0 -130 -130 130 -130zm0 260c-72,0 -130,-59 -130,-130 0,-72 58,-130 130,-130l0 260zm130 -301l0 171 -260 0 0 -171 163 -125 97 125zm-260 0c0,-72 58,-130 130,-130 72,0 130,58 130,130l-260 0zm-54 -23l-183 -183 157 -21 7 5 7 4 7 3 7 4 7 4 8 4 8 4 6 4 7 3 9 4 7 3 7 4 8 3 7 3 8 4 8 3 7 3 8 3 8 3 7 3 8 3 8 3 7 2 8 3 8 3 8 3 8 2 8 2 8 3 8 2 9 2 7 3 -66 250 -11 -2 -10 -3 -10 -3 -10 -3 -10 -3 -10 -3 -10 -4 -10 -3 -10 -3 -10 -4 -10 -3 -9 -4 -10 -4 -10 -3 -10 -4 -9 -4 -10 -4 -9 -5 -10 -4 -9 -4 -10 -4 -10 -5 -8 -4 -10 -5 -10 -5 -8 -4 -9 -5 -10 -5 -8 -4 -10 -6 -9 -5 -9 -5 157 -21zm-157 21c-62,-36 -83,-115 -47,-177 36,-62 116,-84 178,-48l-131 225zm-147 -83l121 -121 183 183 -121 121 -183 0 0 -183zm183 183c-50,51 -132,51 -183,0 -51,-50 -51,-133 0,-183l183 183zm-418 -602l418 419 -183 183 -419 -418 0 -184 184 0zm-184 184c-50,-51 -51,-133 0,-184 51,-51 133,-51 184,0l-184 184zm304 -121l-120 121 -184 -184 121 -120 204 26 -21 157zm-183 -183c50,-51 133,-51 183,0 51,50 51,132 0,183l-183 -183zm-23 -55l0 -259 126 96 2 8 2 8 2 8 3 8 2 8 3 8 2 8 3 8 3 8 2 7 3 8 3 8 3 8 3 8 3 7 3 8 3 7 4 9 3 7 4 7 3 7 3 8 4 8 4 7 3 7 4 8 4 7 4 7 4 8 4 7 4 7 4 7 -225 130 -5 -8 -5 -10 -5 -9 -5 -9 -5 -9 -5 -9 -4 -9 -5 -9 -5 -10 -4 -9 -4 -9 -5 -10 -4 -10 -5 -9 -3 -10 -4 -9 -4 -10 -5 -10 -3 -10 -4 -9 -3 -10 -4 -9 -4 -11 -3 -10 -3 -9 -3 -10 -4 -11 -3 -10 -3 -10 -3 -10 -2 -9 -3 -11 125 96zm-125 -96c-19,-69 22,-141 92,-159 69,-18 140,23 159,92l-251 67zm-45 -163l170 0 0 259 -170 0 -130 -130 130 -129zm0 259c-72,0 -130,-58 -130,-130 0,-71 58,-129 130,-129l0 259zm130 -722l0 592 -260 0 0 -592 130 -130 130 130zm-260 0c0,-71 58,-130 130,-130 71,0 130,59 130,130l-260 0zm300 130l-170 0 0 -260 170 0 126 164 -126 96zm0 -260c72,0 130,59 130,130 0,72 -58,130 -130,130l0 -260zm23 -54l183 -183 21 156 -4 8 -4 7 -4 7 -4 7 -4 7 -4 7 -4 8 -3 8 -4 7 -3 7 -4 8 -4 8 -3 6 -3 8 -3 8 -3 7 -4 9 -3 8 -3 7 -3 7 -3 9 -2 7 -3 7 -3 9 -3 8 -2 8 -3 8 -2 8 -3 7 -2 9 -2 8 -2 8 -251 -67 3 -11 2 -10 3 -9 3 -11 4 -10 3 -10 3 -10 3 -9 3 -10 4 -10 4 -10 3 -10 4 -10 4 -10 4 -10 3 -8 5 -10 4 -10 4 -9 5 -11 3 -8 5 -9 4 -11 5 -9 5 -9 4 -9 5 -9 5 -10 5 -8 5 -10 5 -9 5 -9 21 157zm-21 -157c36,-62 116,-83 178,-47 62,36 83,115 47,177l-225 -130zm84 -147l120 121 -183 183 -121 -120 0 -184 184 0zm-184 184c-50,-51 -50,-133 0,-184 51,-51 133,-51 184,0l-184 184zm602 -419l-418 419 -184 -184 419 -419 183 1 0 183zm-183 -184c51,-50 133,-50 184,1 50,50 50,132 -1,183l-183 -184zm121 305l-121 -121 183 -183 121 120 -26 204 -157 -20zm183 -184c51,51 51,133 0,184 -51,50 -133,50 -183,0l183 -184zm54 -22l260 0 -97 125 -7 2 -9 3 -8 2 -8 2 -8 3 -8 2 -8 3 -8 3 -8 2 -7 3 -8 3 -8 3 -7 3 -8 3 -8 3 -7 3 -8 3 -8 3 -7 4 -8 3 -7 3 -7 4 -8 4 -8 3 -7 4 -7 4 -8 3 -7 4 -7 4 -7 4 -7 4 -7 4 -131 -224 9 -5 9 -5 10 -6 8 -5 10 -4 9 -5 9 -5 9 -4 9 -5 9 -4 10 -5 10 -5 9 -4 10 -4 9 -4 10 -4 9 -4 10 -4 10 -3 10 -4 9 -4 10 -3 10 -4 10 -4 10 -3 10 -3 10 -3 10 -3 10 -3 10 -3 10 -3 11 -3 -97 126zm97 -126c69,-18 140,23 158,92 19,69 -22,141 -92,159l-66 -251zm163 -45l0 171 -260 0 0 -171 130 -130 130 130zm-260 0c0,-72 58,-130 130,-130 72,0 130,58 130,130l-260 0z"/>
   </g>
   <g>
    <path class="fil3 str0" d="M3583 4476c-287,0 -519,232 -519,518 0,287 232,519 519,519 286,0 518,-232 518,-519 0,-286 -232,-518 -518,-518z"/>
   </g>
   <g>
    <path class="fil1" d="M1055 182c-28,-66 3,-143 69,-171 66,-28 142,3 171,69l-240 102zm1297 3034l-1297 -3034 240 -102 1296 3034 -239 102zm239 -102c29,66 -2,142 -68,171 -66,28 -142,-3 -171,-69l239 -102z"/>
   </g>
   <g>
    <path class="fil1" d="M3818 3035l1314 0 0 260 -1314 0 -130 -130 130 -130zm0 260l-130 0 0 -130 130 130zm131 -755l0 625 -261 0 0 -625 130 -130 131 130zm-261 0l0 -130 130 0 -130 130zm1444 130l-1314 0 0 -260 1314 0 131 130 -131 130zm0 -260l131 0 0 130 -131 -130zm-130 755l0 -625 261 0 0 625 -131 130 -130 -130zm261 0l0 130 -131 0 131 -130z"/>
   </g>
   <g>
    <path class="fil2" d="M3645 2540l1661 0c102,0 185,-83 185,-185l0 -575 -2032 0 0 575c0,102 84,185 186,185z"/>
    <path id="1" class="fil1" d="M5306 2670l-1661 0 0 -260 1661 0 0 0 0 260zm56 -315l258 0 0 0 0 16 -1 16 -2 16 -3 16 -4 15 -4 14 -5 15 -5 14 -7 14 -7 14 -7 13 -9 13 -8 12 -9 12 -11 12 -10 11 -10 9 -13 11 -12 9 -11 9 -13 8 -13 8 -14 7 -14 6 -14 6 -15 5 -15 4 -15 3 -15 3 -16 2 -16 1 -16 1 0 -260 3 0 3 0 2 -1 3 0 3 -1 2 0 3 -1 3 -1 2 -1 2 -1 2 -2 3 -1 2 -2 2 -2 2 -1 2 -2 3 -3 1 -1 1 -2 2 -3 2 -2 1 -3 1 -2 1 -2 1 -3 1 -2 1 -3 0 -3 1 -2 0 -3 0 -2 1 -3 0 0zm258 -575l0 575 -258 0 0 -575 129 -130 129 130zm-258 0c0,-72 58,-130 129,-130 71,0 129,58 129,130l-258 0zm-1903 -130l2032 0 0 260 -2032 0 -129 -130 129 -130zm0 260c-71,0 -129,-58 -129,-130 0,-72 58,-130 129,-130l0 260zm-129 445l0 -575 259 0 0 575 0 0 -259 0zm315 55l0 260 0 0 -16 -1 -16 -1 -16 -2 -16 -3 -15 -3 -15 -4 -15 -5 -14 -6 -14 -6 -14 -7 -13 -8 -12 -8 -12 -9 -12 -9 -12 -11 -11 -9 -10 -11 -10 -12 -9 -12 -9 -12 -8 -13 -8 -13 -7 -14 -6 -14 -6 -14 -5 -15 -4 -14 -4 -15 -3 -16 -2 -16 -1 -16 0 -16 259 0 0 3 0 2 1 3 0 2 1 3 0 3 1 2 1 3 1 2 1 2 2 3 1 2 2 3 2 2 1 1 2 3 3 2 1 1 2 2 3 2 2 1 3 2 2 1 2 1 3 1 2 1 3 0 3 1 2 0 3 1 3 0 3 0 0 0z"/>
   </g>
   <g>
    <polygon class="fil1" points="4097,1780 4097,2540 3836,2540 3836,1780 "/>
   </g>
   <g>
    <polygon class="fil1" points="4606,1780 4606,2540 4345,2540 4345,1780 "/>
   </g>
   <g>
    <polygon class="fil1" points="5129,1780 5129,2540 4868,2540 4868,1780 "/>
   </g>
   <g>
    <path class="fil1" d="M1175 261l-816 0 0 -260 816 0 122 84 -122 176zm0 -260c72,0 130,58 130,130 0,72 -58,130 -130,130l0 -260zm49 632l-171 -457 244 -91 170 457 -121 175 -122 -84zm243 -91c25,67 -9,142 -76,167 -67,25 -142,-9 -167,-76l243 -91zm-1108 -84l987 0 0 259 -987 0 0 0 0 -259zm-358 -99l260 0 0 0 0 5 0 6 1 4 1 5 1 5 1 4 1 4 2 5 2 4 3 5 2 4 2 4 3 4 3 4 3 3 3 3 4 4 4 3 3 3 5 3 4 3 3 2 5 2 4 2 5 2 4 1 5 1 5 2 4 0 4 1 6 0 5 1 0 259 -18 0 -18 -1 -18 -3 -18 -3 -17 -4 -18 -5 -16 -5 -16 -7 -16 -7 -16 -8 -15 -9 -15 -9 -13 -10 -14 -11 -12 -11 -13 -11 -12 -13 -11 -13 -11 -14 -10 -13 -9 -15 -9 -15 -8 -15 -7 -16 -6 -16 -6 -17 -5 -18 -4 -17 -3 -17 -3 -19 -1 -17 0 -19 0 0zm260 0l0 0 -260 0 0 0 0 0 260 0zm98 -358l0 260 0 0 -5 0 -6 0 -5 1 -4 1 -4 1 -5 1 -5 2 -4 2 -4 1 -5 3 -4 2 -4 3 -4 3 -4 2 -3 3 -4 4 -3 3 -3 4 -3 3 -3 4 -2 5 -3 3 -2 5 -2 4 -1 4 -2 5 -1 5 -2 4 0 5 -1 4 0 6 0 5 -260 0 0 -18 1 -18 3 -18 3 -18 4 -18 5 -17 6 -16 6 -16 7 -16 8 -16 9 -15 9 -14 10 -14 11 -14 11 -13 12 -12 12 -12 13 -11 14 -11 14 -10 14 -9 15 -9 15 -8 17 -7 16 -6 16 -6 17 -5 18 -4 18 -3 18 -2 18 -2 18 0 0 0z"/>
   </g>
   <g>
    <path class="fil1" d="M5674 4994c0,-71 58,-130 130,-130 71,0 130,59 130,130l-260 0zm0 844l0 -844 260 0 0 844 -219 96 -41 -96zm260 0c0,72 -59,130 -130,130 -72,0 -130,-58 -130,-130l260 0zm247 527l-466 -431 177 -191 466 431 -177 191zm177 -191c53,49 56,132 7,184 -49,53 -131,56 -184,7l177 -191z"/>
   </g>
   <g>
    <path class="fil1" d="M829 5062c51,51 51,133 0,184 -50,51 -133,51 -183,0l183 -184zm-250 -250l250 250 -183 184 -251 -251 0 0 184 -183zm-208 183l-184 -183 0 0 11 -10 11 -10 10 -8 12 -8 12 -7 11 -6 14 -7 12 -5 11 -4 14 -5 13 -3 12 -3 13 -2 14 -2 14 -1 12 0 13 0 13 1 14 2 13 2 12 3 14 3 13 5 11 4 13 5 13 7 11 6 12 7 12 8 10 8 12 10 10 10 -184 183 -1 0 1 0 -2 -1 0 0 -1 -1 -1 0 1 0 -1 0 -2 -1 0 0 -1 0 -2 -1 0 0 -1 0 0 0 -2 0 -1 0 -1 0 -1 0 0 0 -2 1 0 0 -1 0 -2 1 -1 0 1 0 -1 0 -1 1 0 0 -1 1 0 0 -1 0 0 0zm-288 -79l104 -104 184 183 -104 104 -184 -183zm184 183c-51,51 -133,51 -184,0 -50,-50 -50,-133 0,-183l184 183z"/>
   </g>
   <g>
    <path class="fil1" d="M1338 5246c-51,51 -133,51 -184,0 -50,-50 -50,-133 0,-183l184 183zm251 -250l-251 250 -184 -183 251 -251 184 184zm-184 -208l184 -184 0 0 9 10 10 11 8 12 8 11 7 11 7 12 6 13 6 13 4 11 4 13 3 13 3 13 2 13 2 14 1 13 0 13 0 12 -1 14 -2 14 -2 13 -3 12 -3 13 -4 14 -4 11 -6 12 -6 14 -7 12 -7 11 -8 11 -8 11 -10 11 -9 11 -184 -184 1 -1 0 0 0 0 0 -1 1 -1 1 -1 -1 1 1 -1 0 -2 1 -1 0 0 0 -2 0 0 0 -1 0 -1 0 -1 0 -2 0 -1 0 0 0 -1 0 -1 0 -1 -1 0 0 -2 -1 -1 1 1 -1 -1 -1 -1 0 -1 0 -1 0 0 -1 0 0 0zm80 -288l104 104 -184 184 -104 -104 184 -184zm-184 184c-50,-51 -51,-133 0,-184 51,-50 133,-50 184,0l-184 184z"/>
   </g>
   <g>
    <path class="fil1" d="M1351 5539c-71,0 -130,-58 -130,-130 0,-72 59,-130 130,-130l0 260zm355 0l-355 0 0 -260 355 0 0 0 0 260zm17 -277l260 0 0 0 -1 15 -1 13 -2 14 -2 14 -3 13 -4 13 -4 13 -6 13 -5 12 -6 12 -7 12 -8 11 -7 10 -8 11 -9 10 -9 9 -9 9 -10 9 -11 8 -10 8 -12 7 -11 7 -12 6 -13 6 -12 4 -12 5 -14 4 -14 3 -13 2 -14 2 -14 1 -14 1 0 -260 0 0 1 0 1 0 1 0 0 -1 1 0 1 0 1 -1 0 0 1 0 1 0 0 -1 1 -1 1 0 0 0 1 -2 1 0 1 -1 0 -1 1 -1 1 -1 0 0 0 -1 1 -1 0 0 0 0 0 -2 0 0 1 -1 0 -1 0 -1 0 0 0 0zm260 -147l0 147 -260 0 0 -147 260 0zm-260 0c0,-72 58,-130 130,-130 71,0 130,58 130,130l-260 0z"/>
   </g>
   <g>
    <path class="fil1" d="M1154 5755c-50,-51 -50,-133 0,-184 51,-51 133,-51 184,0l-184 184zm251 250l-251 -250 184 -184 251 250 0 0 -184 184zm208 -183l183 183 0 1 -10 9 -10 9 -12 9 -11 8 -13 7 -11 7 -12 5 -12 6 -14 5 -13 4 -12 3 -13 3 -14 2 -11 1 -14 2 -14 0 -13 -1 -12 0 -14 -2 -13 -2 -13 -3 -12 -3 -13 -4 -13 -5 -13 -6 -12 -5 -12 -7 -12 -8 -11 -7 -11 -8 -11 -10 -10 -10 184 -184 0 1 0 0 1 1 1 0 0 1 1 0 1 1 1 0 0 0 0 0 2 0 1 1 1 0 0 0 2 0 2 0 -1 0 1 0 2 0 1 0 0 0 2 -1 1 0 0 0 0 0 1 -1 2 -1 0 0 0 0 0 0 1 -1 1 0 0 0zm287 80l-104 103 -183 -183 103 -104 184 184zm-184 -184c51,-51 133,-51 184,0 51,51 51,133 0,184l-184 -184z"/>
   </g>
   <g>
    <path class="fil1" d="M862 5768c0,-71 58,-130 130,-130 71,0 130,59 130,130l-260 0zm0 355l0 -355 260 0 0 355 0 0 -260 0zm277 17l0 260 0 0 -15 -1 -14 -1 -13 -2 -14 -2 -14 -3 -13 -4 -12 -5 -13 -4 -12 -6 -12 -6 -12 -7 -12 -8 -10 -7 -10 -8 -10 -9 -10 -10 -9 -9 -8 -9 -9 -11 -8 -11 -7 -11 -6 -11 -6 -12 -6 -12 -5 -13 -5 -14 -3 -12 -3 -14 -3 -12 -2 -15 -1 -15 0 -13 260 0 0 1 0 0 0 0 0 2 0 0 1 1 0 1 0 0 0 1 1 1 0 1 1 0 0 1 0 0 1 2 1 1 1 0 0 1 1 0 2 1 0 1 0 0 1 0 1 0 0 1 2 0 0 0 1 0 0 0 1 1 1 0 1 0 0 0zm147 260l-147 0 0 -260 147 0 0 260zm0 -260c71,0 130,58 130,130 0,71 -59,130 -130,130l0 -260z"/>
   </g>
   <g>
    <path class="fil1" d="M646 5571c50,-50 133,-50 183,0 51,51 51,133 0,184l-183 -184zm-251 251l251 -251 183 184 -250 251 0 0 -184 -184zm184 207l-184 184 0 0 -10 -10 -9 -11 -8 -11 -9 -12 -7 -11 -6 -12 -7 -13 -5 -12 -4 -13 -4 -12 -4 -13 -3 -14 -2 -12 -1 -14 -1 -12 0 -14 0 -13 1 -13 1 -13 3 -14 2 -12 4 -12 4 -13 4 -13 6 -13 6 -12 6 -12 8 -12 8 -11 8 -11 9 -11 10 -10 184 184 -1 0 0 1 -1 0 0 1 0 0 0 1 -1 1 0 0 0 1 -1 0 0 1 0 2 0 1 -1 0 0 2 0 0 0 1 0 2 1 0 0 2 0 0 0 1 1 1 0 0 0 2 0 0 1 1 0 1 0 0 1 1 0 0 1 0 0 0zm-80 288l-104 -104 184 -184 103 104 -183 184zm183 -184c51,51 51,133 0,184 -50,51 -133,51 -183,0l183 -184z"/>
   </g>
   <g>
    <path class="fil1" d="M632 5279c72,0 130,58 130,130 0,71 -58,129 -130,129l0 -259zm-354 0l354 0 0 259 -354 0 0 0 0 -259zm-17 277l-260 0 0 0 0 -15 1 -14 2 -14 3 -13 3 -14 3 -12 5 -14 5 -13 6 -12 6 -12 7 -12 7 -11 7 -10 8 -10 9 -10 10 -10 8 -8 10 -9 11 -9 12 -8 11 -7 10 -6 12 -6 12 -6 14 -5 13 -5 12 -3 14 -4 14 -2 13 -2 14 -1 15 0 0 259 -1 0 -1 1 0 0 -1 0 -1 0 -1 0 -1 0 1 1 -1 0 -1 0 -2 1 -1 1 0 0 0 0 -1 1 -1 1 -1 0 0 1 -1 1 -1 1 0 1 0 0 -1 1 0 1 0 0 0 1 -1 1 0 0 0 1 0 1 0 1 0 1 0 0zm-260 146l0 -146 260 0 0 146 -260 0zm260 0c0,72 -58,130 -130,130 -72,0 -130,-58 -130,-130l260 0z"/>
   </g>
   <g>
    <path class="fil1" d="M1338 5755l-184 -184 0 0 8 -9 8 -9 7 -9 7 -10 6 -9 5 -10 5 -10 5 -10 4 -11 3 -10 3 -11 2 -11 2 -10 1 -11 1 -11 0 -11 0 -12 -1 -11 -1 -10 -2 -11 -2 -11 -3 -11 -3 -10 -4 -11 -5 -11 -5 -9 -5 -10 -6 -9 -7 -10 -7 -9 -8 -9 -8 -9 184 -184 17 18 17 19 15 20 13 20 13 20 12 22 11 22 9 21 9 22 7 24 6 22 5 23 4 23 3 24 2 24 0 23 0 23 -2 23 -3 24 -4 23 -5 23 -6 23 -7 23 -9 22 -9 22 -11 21 -12 22 -13 20 -13 20 -15 20 -17 19 -17 18 0 0zm-693 0l184 -184 0 0 9 8 9 8 9 7 10 7 9 6 10 5 10 5 10 5 11 4 10 3 11 3 11 2 11 2 11 1 11 1 11 0 11 0 11 -1 11 -1 10 -2 11 -2 11 -3 11 -3 10 -4 11 -5 10 -5 9 -5 10 -6 9 -7 10 -7 8 -8 9 -8 184 184 -18 17 -19 16 -20 16 -19 13 -21 13 -22 12 -21 11 -22 9 -22 9 -23 7 -23 6 -23 5 -23 4 -23 3 -24 2 -23 0 -24 0 -23 -2 -24 -3 -23 -4 -23 -5 -22 -6 -23 -7 -23 -9 -21 -9 -22 -11 -21 -12 -21 -13 -20 -13 -20 -16 -18 -16 -19 -17 0 0zm0 -693l184 184 0 0 -8 9 -8 9 -7 9 -6 10 -7 9 -5 10 -5 9 -4 11 -4 11 -3 10 -3 11 -3 11 -2 11 -1 10 -1 12 0 11 0 11 1 11 1 11 2 10 3 11 3 11 3 10 4 11 4 10 5 10 5 10 7 9 6 10 7 9 8 9 8 9 -184 184 -17 -18 -16 -19 -15 -20 -14 -20 -13 -20 -12 -22 -11 -21 -9 -22 -9 -22 -7 -23 -6 -23 -5 -23 -4 -23 -3 -24 -1 -23 -1 -23 1 -24 1 -23 3 -24 4 -23 5 -23 6 -22 7 -24 9 -22 9 -21 11 -22 12 -22 13 -20 14 -20 15 -20 16 -19 17 -18 0 0zm693 0l-184 184 0 0 -9 -8 -8 -8 -10 -7 -9 -6 -10 -6 -10 -6 -10 -5 -10 -4 -10 -4 -11 -4 -11 -3 -10 -2 -11 -2 -11 -1 -11 -1 -11 0 -11 0 -11 1 -11 1 -12 2 -10 2 -11 3 -11 4 -10 4 -10 4 -10 5 -10 6 -10 6 -9 6 -9 7 -9 8 -9 8 -184 -184 19 -17 18 -16 20 -16 20 -13 21 -13 21 -12 21 -11 23 -9 22 -9 22 -7 23 -6 24 -5 22 -4 24 -3 23 -2 24 0 23 0 24 2 23 3 23 4 23 5 23 6 22 7 23 9 22 9 22 11 21 12 20 13 20 13 20 16 19 16 18 17 0 0z"/>
   </g>
   <g>
    <polygon class="fil1" points="1121,4104 1121,5049 862,5049 862,4104 "/>
   </g>
   <g>
    <polygon class="fil1" points="2472,3849 1342,3849 1342,3589 2472,3589 "/>
   </g>
   <g>
    <path class="fil1" d="M1184 3589l192 0 0 260 -192 0 0 0 0 -260zm-62 322l-260 0 0 0 0 -16 1 -17 3 -16 2 -15 4 -16 4 -16 5 -15 6 -14 7 -15 7 -13 7 -14 9 -13 9 -13 9 -12 10 -11 11 -12 12 -10 11 -10 12 -10 13 -9 13 -8 13 -8 14 -7 14 -7 15 -5 15 -5 16 -5 15 -3 16 -3 16 -2 17 -2 16 0 0 260 -4 0 -3 0 -2 1 -4 0 -3 1 -2 1 -3 1 -3 1 -3 1 -3 1 -3 2 -2 1 -2 2 -3 2 -2 2 -2 2 -2 2 -2 3 -2 2 -2 3 -1 2 -2 3 -2 3 -1 2 -1 3 -1 3 0 2 -1 3 -1 4 0 3 0 2 0 4 0 0zm-260 192l0 -192 260 0 0 192 -260 0z"/>
   </g>
  </g>
 </g>
</svg>
