<svg id="b7738af4-3f59-4b2e-9bec-902d936c5057" data-name="Слой 1" xmlns="http://www.w3.org/2000/svg" viewBox="0 0 32 32"><defs><style>.b1964cdc-cea3-4be3-8061-97eb7869f712,.b2cf6fac-591f-41f4-8890-92f77be39d3e{fill:none;}.ae1cb49e-2693-42fd-b3c0-cedc30b3858f,.b1964cdc-cea3-4be3-8061-97eb7869f712,.b2cf6fac-591f-41f4-8890-92f77be39d3e{stroke:#ffab1d;stroke-linecap:round;stroke-linejoin:round;}.ae1cb49e-2693-42fd-b3c0-cedc30b3858f,.b2cf6fac-591f-41f4-8890-92f77be39d3e{fill-rule:evenodd;}.ae1cb49e-2693-42fd-b3c0-cedc30b3858f{fill:#ffe5bd;}</style></defs><polyline class="b1964cdc-cea3-4be3-8061-97eb7869f712" points="12.42 28.38 19.84 28.38 21.7 28.38"/><polyline class="b1964cdc-cea3-4be3-8061-97eb7869f712" points="27.94 28.38 29.47 28.38 31.5 28.38"/><path class="b1964cdc-cea3-4be3-8061-97eb7869f712" d="M.5,10.55H2.13a2,2,0,0,1,2,2V26.35a2,2,0,0,0,2,2h0"/><path class="b2cf6fac-591f-41f4-8890-92f77be39d3e" d="M12.42,28.38A3.12,3.12,0,1,1,9.3,25.25,3.12,3.12,0,0,1,12.42,28.38Z"/><path class="ae1cb49e-2693-42fd-b3c0-cedc30b3858f" d="M19.84,10.46V28.38H12.42a3.12,3.12,0,1,0-6.24,0V10.46h4.89v3.87H15V10.46Z"/><rect class="b1964cdc-cea3-4be3-8061-97eb7869f712" x="11.07" y="10.46" width="3.88" height="3.87"/><rect class="b1964cdc-cea3-4be3-8061-97eb7869f712" x="11.07" y="10.45" width="3.88" height="0.01"/><polygon class="ae1cb49e-2693-42fd-b3c0-cedc30b3858f" points="19.84 0.5 19.84 10.45 6.18 10.45 6.18 0.5 11.07 0.5 11.07 4.38 14.95 4.38 14.95 0.5 19.84 0.5"/><rect class="b1964cdc-cea3-4be3-8061-97eb7869f712" x="11.07" y="0.5" width="3.88" height="3.88"/><path class="b2cf6fac-591f-41f4-8890-92f77be39d3e" d="M27.94,28.38a3.12,3.12,0,1,1-3.12-3.13A3.12,3.12,0,0,1,27.94,28.38Z"/><path class="ae1cb49e-2693-42fd-b3c0-cedc30b3858f" d="M29.47,19.12v9.26H27.94a3.12,3.12,0,1,0-6.24,0H19.84V19.12H23v3.3h3.3v-3.3Z"/><rect class="b1964cdc-cea3-4be3-8061-97eb7869f712" x="23.01" y="19.12" width="3.3" height="3.3"/></svg>