<svg xmlns="http://www.w3.org/2000/svg" width="27.1" height="27.094" viewBox="0 0 27.1 27.094"><path d="M20.61 17.93a1.9 1.9 0 00-2.87 0c-.67.665-1.34 1.331-2 2.008a.4.4 0 01-.56.1c-.43-.237-.89-.428-1.31-.688a20.674 20.674 0 01-5.02-4.568 11.912 11.912 0 01-1.8-2.882.418.418 0 01.1-.53c.67-.648 1.33-1.314 1.99-1.98a1.9 1.9 0 00-.01-2.938c-.52-.53-1.05-1.049-1.57-1.579-.54-.542-1.08-1.089-1.63-1.625a1.91 1.91 0 00-2.87.006c-.67.665-1.32 1.348-2.01 2a3.27 3.27 0 00-1.03 2.2 9.527 9.527 0 00.72 4.021 24.667 24.667 0 004.34 7.224 26.863 26.863 0 008.89 6.954 12.887 12.887 0 004.93 1.432 3.6 3.6 0 003.09-1.178c.58-.644 1.23-1.23 1.84-1.845a1.925 1.925 0 00.01-2.921q-1.605-1.606-3.23-3.211zm-1.08-4.5l2.09-.355a9.369 9.369 0 00-7.91-7.664l-.29 2.092a7.218 7.218 0 014.11 2.047 7.141 7.141 0 012 3.885zm3.26-9.045a15.331 15.331 0 00-8.8-4.387L13.7 2.09a13.4 13.4 0 0111.33 10.98l2.08-.355a15.467 15.467 0 00-4.32-8.325z" fill="#fb3343" fill-rule="evenodd"/></svg>