<svg id="e0f3adba-b218-43f7-b697-405880c54e6d" data-name="Слой 1" xmlns="http://www.w3.org/2000/svg" viewBox="0 0 32 32"><defs><style>.ac55c808-2746-491c-9501-26ac75527791{fill:none;stroke:#1d1d1b;stroke-linecap:round;stroke-linejoin:round;fill-rule:evenodd;}</style></defs><path class="ac55c808-2746-491c-9501-26ac75527791" d="M28.74,16.09l-.07-1.31,2.92-3.06-2-3.38L27.67,5l-4.14,1a13.3,13.3,0,0,0-2.29-1.31L20,.59H12.16L11,4.63A12.26,12.26,0,0,0,8.66,5.94L4.52,5l-2,3.38-2,3.38,2.93,3.06-.07,1.31.07,1.31L.59,20.47l2,3.38,2,3.37,4.14-1A11.69,11.69,0,0,0,11,27.54l1.21,4.05H20l1.21-4.05a12.63,12.63,0,0,0,2.29-1.3l4.14,1,2-3.37,2-3.38L28.67,17.4ZM16.09,22.73a6.63,6.63,0,1,1,6.68-6.63A6.66,6.66,0,0,1,16.09,22.73Z"/></svg>