<?xml version="1.0" encoding="UTF-8"?>
<!DOCTYPE svg PUBLIC "-//W3C//DTD SVG 1.1//EN" "http://www.w3.org/Graphics/SVG/1.1/DTD/svg11.dtd">
<!-- Creator: CorelDRAW X8 -->
<svg xmlns="http://www.w3.org/2000/svg" xml:space="preserve" width="64px" height="64px" version="1.1" style="shape-rendering:geometricPrecision; text-rendering:geometricPrecision; image-rendering:optimizeQuality; fill-rule:evenodd; clip-rule:evenodd"
viewBox="0 0 6400 6400"
 xmlns:xlink="http://www.w3.org/1999/xlink">
 <defs>
  <style type="text/css">
   <![CDATA[
    .str4 {stroke:#FFAB1D;stroke-width:259.846}
    .str2 {stroke:#FFAB1D;stroke-width:259.846}
    .str1 {stroke:#FFAB1D;stroke-width:259.846}
    .str8 {stroke:#FFAB1D;stroke-width:259.964}
    .str6 {stroke:#FFAB1D;stroke-width:259.846;stroke-linejoin:round}
    .str5 {stroke:#FFAB1D;stroke-width:259.846;stroke-linecap:round}
    .str7 {stroke:#FFAB1D;stroke-width:259.846;stroke-linecap:round;stroke-linejoin:round}
    .str0 {stroke:#FFAB1D;stroke-width:259.846;stroke-linecap:round;stroke-linejoin:round}
    .str3 {stroke:#FFAB1D;stroke-width:259.846;stroke-linecap:round;stroke-linejoin:round}
    .fil0 {fill:none}
    .fil1 {fill:#FFAB1D}
    .fil2 {fill:#FFE5BD}
    .fil3 {fill:#FFAB1D;fill-rule:nonzero}
   ]]>
  </style>
 </defs>
 <g id="Слой_x0020_1">
  <metadata id="CorelCorpID_0Corel-Layer"/>
  <g id="_2199649328816">
   <rect class="fil0" width="6400" height="6400"/>
   <path class="fil0 str0" d="M694 6269l2506 0m0 -1539l-1942 0 -868 501"/>
   <path class="fil0 str1" d="M2061 5204c-163,0 -295,132 -295,295 0,163 132,295 295,295 163,0 295,-132 295,-295 0,-163 -132,-295 -295,-295z"/>
   <path class="fil0 str2" d="M694 6269c-311,0 -563,-252 -563,-563 0,-312 252,-564 563,-564 312,0 564,252 564,564 0,311 -252,563 -564,563z"/>
   <path class="fil0 str3" d="M3426 6269l-2168 0m0 -1539l1605 0 867 501"/>
   <path class="fil1" d="M694 5555c84,0 151,67 151,151 0,83 -67,150 -151,150 -83,0 -150,-67 -150,-150 0,-84 67,-151 150,-151z"/>
   <path class="fil0 str4" d="M3426 6269c312,0 564,-252 564,-563 0,-312 -252,-564 -564,-564 -311,0 -564,252 -564,564 0,311 253,563 564,563z"/>
   <path class="fil1" d="M3426 5555c-83,0 -151,67 -151,151 0,83 68,150 151,150 83,0 151,-67 151,-150 0,-84 -68,-151 -151,-151z"/>
   <line class="fil0 str5" x1="4435" y1="6269" x2="5706" y2= "6269" />
   <path class="fil0 str5" d="M6269 5706c0,311 -252,563 -563,563l-925 -1539"/>
   <path class="fil2" d="M3200 3729l-1736 -471 -1333 0 0 853 1127 619 1604 0 1919 0c1070,0 1488,-377 1488,-1001l-3069 0z"/>
   <g>
    <path class="fil3" d="M1464 3388l-1333 0 0 -260 1333 0 34 4 -34 256zm0 -260c72,0 130,58 130,130 0,71 -58,130 -130,130l0 -260zm1702 726l-1736 -471 68 -251 1736 471 -34 256 -34 -5zm68 -251c69,19 110,91 91,160 -19,69 -90,110 -159,91l68 -251zm3035 256l-3069 0 0 -260 3069 0 130 130 -130 130zm0 -260c72,0 130,58 130,130 0,72 -58,130 -130,130l0 -260zm-1488 1261l0 -260 0 0 95 -1 92 -3 87 -6 84 -7 80 -9 76 -11 72 -13 68 -15 64 -17 61 -18 57 -20 54 -22 50 -23 46 -24 44 -26 40 -27 36 -28 34 -30 31 -31 29 -32 25 -33 24 -35 21 -36 18 -38 17 -40 14 -41 12 -43 10 -44 8 -47 5 -49 4 -50 1 -52 259 0 -1 63 -5 63 -7 61 -10 60 -13 59 -16 57 -19 56 -23 55 -26 52 -30 52 -33 49 -36 47 -39 45 -43 42 -47 41 -49 38 -53 36 -55 33 -59 31 -62 28 -65 26 -68 24 -71 21 -74 20 -78 17 -81 14 -84 12 -87 11 -91 8 -94 5 -98 4 -101 1 0 0zm0 0c-71,0 -129,-59 -129,-130 0,-72 58,-130 129,-130l0 260zm-3523 -260l3523 0 0 260 -3523 0 -62 -16 62 -244zm0 260c-71,0 -129,-59 -129,-130 0,-72 58,-130 129,-130l0 260zm-1065 -862l1127 618 -124 228 -1127 -618 -68 -114 192 -114zm-124 228c-63,-35 -86,-114 -52,-177 34,-63 113,-86 176,-51l-124 228zm191 -968l0 854 -259 0 0 -854 130 -130 129 130zm-259 0c0,-72 58,-130 130,-130 71,0 129,58 129,130l-259 0z"/>
   </g>
   <polyline class="fil0 str6" points="3200,3729 4781,2456 6269,3200 6269,3729 "/>
   <polyline class="fil0 str7" points="4781,2456 3200,1628 3200,2099 3990,2990 "/>
   <g id="_2199649328336">
    <path class="fil2" d="M782 1440l1055 -1241c-128,-45 -265,-68 -408,-68 -717,0 -1298,581 -1298,1298 0,569 365,1052 875,1227l314 -930 -538 -286z"/>
    <path class="fil2" d="M2147 1387l-1141 1269c132,46 275,71 423,71 716,0 1297,-581 1297,-1298 0,-574 -372,-1061 -889,-1230l-215 906 525 282z"/>
    <circle class="fil0 str8" cx="1428" cy="1429" r="1298"/>
    <g>
     <path class="fil3" d="M1936 283l-1055 1242 -198 -169 1055 -1242 226 115 -28 54zm-198 -169c47,-54 129,-61 183,-14 55,46 62,128 15,183l-198 -169zm-243 961l216 -906 253 60 -216 907 -188 84 -65 -145zm253 61c-17,69 -87,112 -157,96 -69,-17 -112,-87 -96,-157l253 61zm337 365l-525 -281 123 -229 525 281 35 201 -158 28zm123 -229c63,33 87,112 53,176 -33,63 -112,87 -176,53l123 -229zm-1301 1300l1143 -1273 193 174 -1143 1273 -220 -128 27 -46zm193 174c-48,54 -130,58 -184,10 -53,-48 -57,-130 -9,-184l193 174zm343 -978l-317 933 -246 -83 317 -934 184 -73 62 157zm-246 -84c23,-68 97,-104 164,-81 68,23 105,97 82,165l-246 -84zm-354 -359l538 286 -122 230 -538 -286 -38 -199 160 -31zm-122 230c-63,-33 -88,-112 -54,-176 34,-63 112,-87 176,-54l-122 230z"/>
    </g>
   </g>
  </g>
 </g>
</svg>
