<?xml version="1.0" encoding="UTF-8"?>
<!DOCTYPE svg PUBLIC "-//W3C//DTD SVG 1.1//EN" "http://www.w3.org/Graphics/SVG/1.1/DTD/svg11.dtd">
<!-- Creator: CorelDRAW X8 -->
<svg xmlns="http://www.w3.org/2000/svg" xml:space="preserve" width="64px" height="64px" version="1.1" style="shape-rendering:geometricPrecision; text-rendering:geometricPrecision; image-rendering:optimizeQuality; fill-rule:evenodd; clip-rule:evenodd"
viewBox="0 0 6400 6400"
 xmlns:xlink="http://www.w3.org/1999/xlink">
 <defs>
  <style type="text/css">
   <![CDATA[
    .str4 {stroke:#FFAB1D;stroke-width:259.846}
    .str2 {stroke:#FFAB1D;stroke-width:259.846}
    .str1 {stroke:#FFAB1D;stroke-width:259.846}
    .str9 {stroke:#FFAB1D;stroke-width:259.964}
    .str8 {stroke:#FFAB1D;stroke-width:259.846;stroke-linejoin:round}
    .str6 {stroke:#FFAB1D;stroke-width:259.846;stroke-linejoin:round}
    .str5 {stroke:#FFAB1D;stroke-width:259.846;stroke-linecap:round}
    .str0 {stroke:#FFAB1D;stroke-width:259.846;stroke-linecap:round;stroke-linejoin:round}
    .str7 {stroke:#FFAB1D;stroke-width:259.846;stroke-linecap:round;stroke-linejoin:round}
    .str3 {stroke:#FFAB1D;stroke-width:259.846;stroke-linecap:round;stroke-linejoin:round}
    .fil0 {fill:none}
    .fil1 {fill:#FFAB1D}
    .fil4 {fill:#FFE5BD}
    .fil2 {fill:#FFE5BD}
    .fil3 {fill:#FFAB1D;fill-rule:nonzero}
   ]]>
  </style>
 </defs>
 <g id="Слой_x0020_1">
  <metadata id="CorelCorpID_0Corel-Layer"/>
  <g id="_2140400893984">
   <rect class="fil0" width="6400" height="6400"/>
   <path class="fil0 str0" d="M694 6269l2506 0m0 -1539l-1942 0 -868 501"/>
   <path class="fil0 str1" d="M2061 5204c-163,0 -295,132 -295,295 0,163 132,295 295,295 163,0 295,-132 295,-295 0,-163 -132,-295 -295,-295z"/>
   <path class="fil0 str2" d="M694 6269c-311,0 -563,-252 -563,-563 0,-312 252,-564 563,-564 312,0 564,252 564,564 0,311 -252,563 -564,563z"/>
   <path class="fil0 str3" d="M3426 6269l-2168 0m0 -1539l1605 0 867 501"/>
   <path class="fil1" d="M694 5555c84,0 151,67 151,151 0,83 -67,150 -151,150 -83,0 -150,-67 -150,-150 0,-84 67,-151 150,-151z"/>
   <path class="fil0 str4" d="M3426 6269c312,0 564,-252 564,-563 0,-312 -252,-564 -564,-564 -311,0 -563,252 -563,564 0,311 252,563 563,563z"/>
   <path class="fil1" d="M3426 5555c-83,0 -151,67 -151,151 0,83 68,150 151,150 84,0 151,-67 151,-150 0,-84 -67,-151 -151,-151z"/>
   <line class="fil0 str5" x1="4435" y1="6269" x2="5706" y2= "6269" />
   <path class="fil0 str5" d="M6269 5706c0,311 -252,563 -563,563l-925 -1539"/>
   <path class="fil2" d="M3200 3729l-1736 -471 -1333 0 0 853 1127 619 1604 0 1919 0c1070,0 1488,-377 1488,-1001l-3069 0z"/>
   <g>
    <path class="fil3" d="M1464 3388l-1333 0 0 -260 1333 0 34 4 -34 256zm0 -260c72,0 130,58 130,130 0,71 -58,130 -130,130l0 -260zm1702 726l-1736 -471 68 -251 1736 471 -34 256 -34 -5zm68 -251c69,19 110,91 91,160 -19,69 -90,110 -159,91l68 -251zm3035 256l-3069 0 0 -260 3069 0 130 130 -130 130zm0 -260c72,0 130,58 130,130 0,72 -58,130 -130,130l0 -260zm-1488 1261l0 -260 0 0 95 -1 92 -3 87 -6 84 -7 80 -9 76 -11 72 -13 68 -15 65 -17 60 -18 58 -20 53 -22 50 -23 47 -24 43 -26 40 -27 37 -28 33 -30 31 -31 29 -32 26 -33 23 -35 21 -36 18 -38 17 -40 14 -41 12 -43 10 -44 8 -47 6 -49 3 -50 1 -52 259 0 -1 63 -4 63 -7 61 -11 60 -12 59 -17 57 -19 56 -23 55 -26 52 -29 52 -33 49 -37 47 -39 45 -43 42 -47 41 -49 38 -53 36 -55 33 -59 31 -62 28 -65 26 -68 24 -71 21 -74 20 -78 17 -81 14 -83 12 -88 11 -91 8 -94 5 -98 4 -101 1 0 0zm0 0c-71,0 -129,-59 -129,-130 0,-72 58,-130 129,-130l0 260zm-3523 -260l3523 0 0 260 -3523 0 -62 -16 62 -244zm0 260c-71,0 -129,-59 -129,-130 0,-72 58,-130 129,-130l0 260zm-1065 -862l1127 618 -124 228 -1127 -618 -68 -114 192 -114zm-124 228c-63,-35 -86,-114 -52,-177 34,-63 113,-86 176,-51l-124 228zm191 -968l0 854 -259 0 0 -854 130 -130 129 130zm-259 0c0,-72 58,-130 130,-130 71,0 129,58 129,130l-259 0z"/>
   </g>
   <polyline class="fil0 str6" points="3200,3729 4781,2456 6269,3200 6269,3729 "/>
   <polyline class="fil0 str7" points="4781,2456 3200,1627 3200,2099 3990,2990 "/>
   <path class="fil4" d="M270 684l-139 241 207 219 -5 93 5 94 -207 219 139 241 139 241 293 -70c50,36 104,68 162,93l86 289 278 0 279 0 86 -289c57,-25 111,-57 162,-93l293 70 139 -241 139 -241 -207 -219 5 -94 -5 -93 207 -219 -139 -241 -139 -241 -293 70c-51,-37 -105,-68 -162,-94l-86 -288 -279 0 -278 0 -86 288c-58,26 -112,57 -162,94l-293 -70 -139 241zm663 554c0,-163 132,-295 295,-295 163,0 296,132 296,295 0,163 -133,295 -296,295 -163,0 -295,-132 -295,-295z"/>
   <path class="fil0 str8" d="M1593 419c57,26 111,57 161,94l294 -70 139 241 139 241 -207 219c3,31 5,62 5,93 0,32 -2,63 -5,94l207 219 -139 241 -139 241 -294 -70c-50,36 -104,68 -161,93l-86 289 -279 0 -278 0 -86 -289c-58,-25 -112,-57 -162,-93l-293 70 -139 -241 -139 -241 207 -219c-3,-31 -5,-62 -5,-94 0,-31 1,-62 5,-93l-207 -219 139 -241 139 -241 293 70c50,-37 104,-68 162,-94l86 -288 278 0 279 0 86 288z"/>
   <path class="fil0 str9" d="M1228 943c-163,0 -295,132 -295,295 0,163 132,295 295,295 163,0 295,-132 295,-295 0,-163 -132,-295 -295,-295z"/>
  </g>
 </g>
</svg>
