<?xml version="1.0" encoding="UTF-8"?>
<!DOCTYPE svg PUBLIC "-//W3C//DTD SVG 1.1//EN" "http://www.w3.org/Graphics/SVG/1.1/DTD/svg11.dtd">
<!-- Creator: CorelDRAW X8 -->
<svg xmlns="http://www.w3.org/2000/svg" xml:space="preserve" width="64px" height="64px" version="1.1" style="shape-rendering:geometricPrecision; text-rendering:geometricPrecision; image-rendering:optimizeQuality; fill-rule:evenodd; clip-rule:evenodd"
viewBox="0 0 6400 6400"
 xmlns:xlink="http://www.w3.org/1999/xlink">
 <defs>
  <style type="text/css">
   <![CDATA[
    .str5 {stroke:#FFAB1D;stroke-width:259.846}
    .str3 {stroke:#FFAB1D;stroke-width:259.846}
    .str9 {stroke:#FFAB1D;stroke-width:259.846}
    .str8 {stroke:#FFAB1D;stroke-width:259.846}
    .str7 {stroke:#FFAB1D;stroke-width:259.846}
    .str6 {stroke:#FFAB1D;stroke-width:259.964}
    .str11 {stroke:#FFAB1D;stroke-width:259.964}
    .str2 {stroke:#FFAB1D;stroke-width:259.964}
    .str10 {stroke:#FFAB1D;stroke-width:259.846;stroke-linejoin:round}
    .str1 {stroke:#FFAB1D;stroke-width:259.846;stroke-linecap:round;stroke-linejoin:round}
    .str0 {stroke:#FFAB1D;stroke-width:259.846;stroke-linecap:round;stroke-linejoin:round}
    .str4 {stroke:#FFAB1D;stroke-width:259.846;stroke-linecap:round;stroke-linejoin:round}
    .fil0 {fill:none}
    .fil3 {fill:#FFAB1D}
    .fil4 {fill:#FFE5BD}
    .fil1 {fill:#FFE5BD}
    .fil2 {fill:#FFAB1D;fill-rule:nonzero}
   ]]>
  </style>
 </defs>
 <g id="Слой_x0020_1">
  <metadata id="CorelCorpID_0Corel-Layer"/>
  <g id="_2140494633904">
   <rect class="fil0" width="6400" height="6400"/>
   <path class="fil1" d="M3495 5500c0,163 -132,295 -295,295 -163,0 -295,-132 -295,-295 0,-163 132,-295 295,-295 163,0 295,132 295,295zm-1673 -770l-1111 0c304,9 547,257 547,564 0,311 -252,563 -564,563 -94,0 -182,-23 -259,-63l823 475 1942 0 1942 0 824 -475c-78,40 -166,63 -260,63 -248,0 -458,-159 -534,-381l-286 -746 -1686 0 -1378 0zm239 619c83,0 151,67 151,151 0,83 -68,150 -151,150 -84,0 -151,-67 -151,-150 0,-84 67,-151 151,-151zm2127 151c0,-84 67,-151 151,-151 83,0 150,67 150,151 0,83 -67,150 -150,150 -84,0 -151,-67 -151,-150z"/>
   <path class="fil0 str0" d="M694 4730l2506 0m0 1540l-1942 0 -868 -502"/>
   <g>
    <path class="fil2" d="M3354 2905l-1428 1903 -208 -156 1429 -1903 104 -52 103 208zm-207 -156c43,-58 124,-69 182,-26 57,43 68,125 25,182l-207 -156zm1634 208l-1530 0 0 -260 1530 0 57 13 -57 247zm0 -260c72,0 130,58 130,130 0,72 -58,130 -130,130l0 -260zm1431 980l-1488 -734 114 -233 1489 734 72 116 -187 117zm115 -233c64,32 91,110 59,174 -31,64 -109,91 -174,59l115 -233zm-187 778l0 -662 259 0 0 662 -57 108 -202 -108zm259 0c0,72 -58,130 -129,130 -72,0 -130,-58 -130,-130l259 0zm-683 213l482 -321 144 216 -483 322 -143 -217z"/>
   </g>
   <path class="fil0 str1" d="M711 3778c-367,0 -580,-227 -580,-578l668 -452m1924 -1303l1267 -858"/>
   <path class="fil0 str2" d="M3200 5205c-163,0 -295,132 -295,295 0,163 132,295 295,295 163,0 295,-132 295,-295 0,-163 -132,-295 -295,-295z"/>
   <path class="fil0 str3" d="M694 4730c-311,0 -563,252 -563,564 0,311 252,563 563,563 312,0 564,-252 564,-563 0,-312 -252,-564 -564,-564z"/>
   <path class="fil0 str4" d="M4781 4730l-1581 0m0 1540l1942 0 868 -502"/>
   <path class="fil0 str5" d="M5706 4730c311,0 564,252 564,564 0,311 -253,563 -564,563 -311,0 -564,-252 -564,-563 0,-312 253,-564 564,-564z"/>
   <path class="fil3" d="M2061 5349c-83,0 -151,67 -151,151 0,83 68,151 151,151 83,0 151,-68 151,-151 0,-84 -68,-151 -151,-151z"/>
   <path class="fil1" d="M4773 3406l-921 0c-162,0 -295,133 -295,295 0,163 132,296 295,296l921 0c-159,-5 -287,-135 -287,-296 0,-160 128,-291 287,-295z"/>
   <path class="fil0 str6" d="M4781 3406c-163,0 -295,132 -295,295 0,163 132,295 295,295 163,0 295,-132 295,-295 0,-163 -132,-295 -295,-295z"/>
   <line class="fil0 str7" x1="6077" y1="4870" x2="5036" y2= "3552" />
   <line class="fil0 str7" x1="4573" y1="3910" x2="5168" y2= "5462" />
   <g>
    <path class="fil2" d="M2536 2697l1454 0 0 260 -1454 0 -129 -130 129 -130zm0 260c-71,0 -129,-58 -129,-130 0,-72 58,-130 129,-130l0 260zm130 -672l0 542 -259 0 0 -542 129 -130 130 130zm-259 0c0,-72 58,-130 129,-130 72,0 130,58 130,130l-259 0zm1583 130l-1454 0 0 -260 1454 0 130 130 -130 130zm0 -260c72,0 130,58 130,130 0,72 -58,130 -130,130l0 -260zm-129 672l0 -542 259 0 0 542 -130 130 -129 -130zm259 0c0,72 -58,130 -130,130 -71,0 -129,-58 -129,-130l259 0z"/>
   </g>
   <line class="fil0 str8" x1="2536" y1="2827" x2="2536" y2= "3778" />
   <path class="fil0 str9" d="M4781 3997l-929 0c-163,0 -295,-133 -295,-296 0,-162 133,-295 295,-295l929 0"/>
   <g>
    <path class="fil2" d="M2536 3648c72,0 130,59 130,130 0,72 -58,130 -130,130l0 -260zm-1825 0l1825 0 0 260 -1825 0 -130 -130 130 -130zm-130 130l0 -130 130 0 -130 130zm0 952l0 -952 260 0 0 952 -260 0zm260 0c0,72 -58,130 -130,130 -72,0 -130,-58 -130,-130l260 0z"/>
   </g>
   <path class="fil3" d="M4339 5349c-83,0 -151,67 -151,151 0,83 68,151 151,151 83,0 151,-68 151,-151 0,-84 -68,-151 -151,-151z"/>
   <g>
    <path class="fil2" d="M2765 457l1225 0 0 260 -1225 0 0 0 0 -260zm-359 -98l261 0 0 0 0 5 0 6 1 4 1 5 1 4 1 5 2 5 1 4 2 4 2 4 3 5 3 4 2 4 4 4 2 3 3 3 4 4 4 3 3 3 5 3 3 2 4 2 5 3 4 2 4 1 5 2 5 1 4 2 4 0 5 1 6 0 5 0 0 260 -19 0 -17 -1 -19 -3 -18 -3 -17 -4 -17 -5 -17 -6 -16 -6 -16 -7 -15 -8 -16 -9 -14 -9 -14 -10 -14 -11 -12 -11 -13 -11 -12 -13 -11 -14 -10 -13 -11 -14 -9 -15 -8 -14 -9 -16 -7 -16 -6 -16 -6 -16 -5 -17 -4 -18 -3 -18 -2 -18 -1 -18 -1 -18 0 0zm130 0l0 0 0 0 0 0 -130 0 130 0zm229 -358l0 260 0 0 -5 0 -6 0 -5 1 -4 1 -4 1 -5 1 -5 2 -4 1 -4 2 -4 2 -5 3 -4 2 -3 3 -4 3 -4 4 -3 2 -3 3 -4 5 -3 4 -2 3 -3 4 -2 5 -3 4 -2 4 -1 4 -2 5 -1 5 -1 4 -1 5 -1 4 0 6 0 5 -261 0 1 -18 1 -18 2 -18 3 -18 4 -18 5 -17 6 -16 6 -16 7 -16 8 -16 9 -15 9 -14 11 -14 10 -14 11 -12 12 -13 13 -12 12 -11 14 -11 14 -10 14 -9 15 -9 16 -8 16 -7 16 -6 17 -6 17 -5 17 -4 18 -3 19 -2 17 -2 19 0 0 0zm1225 260l-1225 0 0 -260 1225 0 131 130 -131 130zm0 -260c72,0 131,58 131,130 0,72 -59,130 -131,130l0 -260zm-130 586l0 -456 261 0 0 456 -131 130 -130 -130zm261 0c0,72 -59,130 -131,130 -72,0 -130,-58 -130,-130l261 0z"/>
   </g>
   <path class="fil4" d="M270 684l-139 241 206 219 -4 93 4 94 -206 219 139 241 139 241 293 -70c50,36 104,68 162,93l86 289 278 0 279 0 86 -289c57,-25 111,-57 161,-93l294 70 139 -241 139 -241 -207 -219 5 -94 -5 -93 207 -219 -140 -241 -138 -241 -294 70c-50,-37 -104,-68 -161,-94l-86 -288 -279 0 -278 0 -86 288c-58,26 -112,57 -162,94l-293 -70 -139 241zm663 554c0,-163 132,-295 295,-295 163,0 295,132 295,295 0,163 -132,295 -295,295 -163,0 -295,-132 -295,-295z"/>
   <path class="fil0 str10" d="M1592 419c58,26 112,57 162,94l294 -70 138 241 140 241 -207 219c3,31 5,62 5,93 0,32 -2,63 -5,94l207 219 -139 241 -139 241 -294 -70c-50,36 -104,68 -161,93l-86 289 -279 0 -278 0 -86 -289c-58,-25 -112,-57 -162,-93l-293 70 -139 -241 -139 -241 207 -219c-3,-31 -5,-62 -5,-94 0,-31 1,-62 5,-93l-207 -219 139 -241 139 -241 293 70c50,-37 104,-68 162,-94l86 -288 278 0 279 0 85 288z"/>
   <path class="fil0 str11" d="M1228 943c-163,0 -295,132 -295,295 0,163 132,295 295,295 163,0 295,-132 295,-295 0,-163 -132,-295 -295,-295z"/>
  </g>
 </g>
</svg>
