<svg id="b158280d-2ad7-4282-ba30-fb537b7fcbb0" data-name="Слой 1" xmlns="http://www.w3.org/2000/svg" viewBox="0 0 32 32"><defs><style>.f0d9636f-cb3e-4e22-a7a9-e3e31705f5b4,.f3750541-447d-489e-a297-6142ec1092c3{fill:none;}.b8b423b8-eb9d-4be6-b344-61b65e66ca2e,.f0d9636f-cb3e-4e22-a7a9-e3e31705f5b4,.f3750541-447d-489e-a297-6142ec1092c3,.feb910a2-5e46-4ed7-a87f-7fa455835e81{stroke:#ffab1d;stroke-linecap:round;stroke-linejoin:round;}.b8b423b8-eb9d-4be6-b344-61b65e66ca2e,.feb910a2-5e46-4ed7-a87f-7fa455835e81{fill:#ffe5bd;}.b8b423b8-eb9d-4be6-b344-61b65e66ca2e,.f3750541-447d-489e-a297-6142ec1092c3{fill-rule:evenodd;}</style></defs><path class="f0d9636f-cb3e-4e22-a7a9-e3e31705f5b4" d="M.5,22.78H28.2a3.3,3.3,0,0,1,3.3,3.3V28.2a0,0,0,0,1,0,0H.5a0,0,0,0,1,0,0V22.78A0,0,0,0,1,.5,22.78Z"/><path class="feb910a2-5e46-4ed7-a87f-7fa455835e81" d="M.5,28.2h31a0,0,0,0,1,0,0v0a3.3,3.3,0,0,1-3.3,3.3H3.8A3.3,3.3,0,0,1,.5,28.2v0A0,0,0,0,1,.5,28.2Z"/><path class="b8b423b8-eb9d-4be6-b344-61b65e66ca2e" d="M8,18.73A9,9,0,0,1,.5,9.66,9,9,0,0,1,8,.58C5.6,1.17,3.77,5,3.77,9.66a15.86,15.86,0,0,0,.65,4.57C5.15,16.64,6.45,18.35,8,18.73Z"/><path class="f3750541-447d-489e-a297-6142ec1092c3" d="M8.6.52V9.66L4.42,14.23a15.86,15.86,0,0,1-.65-4.57C3.77,5,5.6,1.17,8,.58,8.17.55,8.39.53,8.6.52Z"/><path class="f3750541-447d-489e-a297-6142ec1092c3" d="M13.43,9.66a15.76,15.76,0,0,1-.65,4.57L8.6,9.66V.52h.18C11.36.69,13.43,4.71,13.43,9.66Z"/><path class="b8b423b8-eb9d-4be6-b344-61b65e66ca2e" d="M8.6.52c-.21,0-.43,0-.64.06A2.74,2.74,0,0,1,8.6.5h0Z"/><path class="f3750541-447d-489e-a297-6142ec1092c3" d="M12.78,14.23c-.81,2.65-2.29,4.45-4,4.57A7.35,7.35,0,0,1,8,18.73c-1.51-.38-2.81-2.09-3.54-4.5L8.6,9.66Z"/><path class="b8b423b8-eb9d-4be6-b344-61b65e66ca2e" d="M8.78,18.8H8.6A2.29,2.29,0,0,1,8,18.73,7.35,7.35,0,0,0,8.78,18.8Z"/><line class="f0d9636f-cb3e-4e22-a7a9-e3e31705f5b4" x1="8.6" y1="0.52" x2="8.6" y2="0.5"/><line class="f0d9636f-cb3e-4e22-a7a9-e3e31705f5b4" x1="4.42" y1="14.23" x2="4.42" y2="14.23"/><line class="f0d9636f-cb3e-4e22-a7a9-e3e31705f5b4" x1="7.35" y1="22.78" x2="7.35" y2="18.62"/><path class="f3750541-447d-489e-a297-6142ec1092c3" d="M3.21,22.78V21.27a17.81,17.81,0,0,1,.56-4.43"/><line class="f0d9636f-cb3e-4e22-a7a9-e3e31705f5b4" x1="7.83" y1="25.49" x2="11.18" y2="25.49"/><line class="f0d9636f-cb3e-4e22-a7a9-e3e31705f5b4" x1="13.59" y1="25.49" x2="16.95" y2="25.49"/><line class="f0d9636f-cb3e-4e22-a7a9-e3e31705f5b4" x1="19.35" y1="25.49" x2="22.71" y2="25.49"/><line class="f0d9636f-cb3e-4e22-a7a9-e3e31705f5b4" x1="25.11" y1="25.49" x2="28.47" y2="25.49"/></svg>