<svg width="32" height="32" viewBox="0 0 32 32" fill="none" xmlns="http://www.w3.org/2000/svg">
<path d="M27.1534 7.60077V10.0167V10.359C27.3184 10.194 27.481 10.0315 27.646 9.86642H27.0229H25.3384H22.8486H19.7998H16.485H13.116H9.98592H7.34098H5.43237C5.13192 9.86642 4.83146 9.85904 4.531 9.86642H4.4916L4.98416 10.359V7.68942V7.56628C4.98416 7.57121 4.98416 7.49979 4.98909 7.49733C4.97677 7.50225 4.96939 7.61061 4.98909 7.5121C4.99894 7.46285 5.01371 7.41606 5.02849 7.36927C5.05558 7.27568 5.01618 7.39882 5.01618 7.39635C5.01125 7.38897 5.04819 7.33232 5.05312 7.32247C5.06543 7.29785 5.08021 7.27568 5.09498 7.25352C5.09991 7.24367 5.1073 7.23628 5.11222 7.22643C5.14178 7.18456 5.13685 7.19195 5.09252 7.2486C5.08759 7.23628 5.1664 7.16733 5.17872 7.15501C5.19842 7.13777 5.22058 7.12054 5.23782 7.10083C5.27969 7.05158 5.13931 7.1624 5.22797 7.11069C5.26491 7.08852 5.29939 7.06389 5.33879 7.04419C5.36342 7.03188 5.43484 7.02203 5.36834 7.02695C5.29446 7.03434 5.39543 7.01956 5.4176 7.01218C5.46439 6.9974 5.51611 6.99494 5.5629 6.98016C5.46439 7.01218 5.49395 6.98755 5.53335 6.98755C5.47178 6.98755 5.66387 6.98509 5.6023 6.98509H5.60723H5.87074H7.47642H10.178H13.5692H17.2509H20.7899H23.7894H25.8409H26.3827H26.5107H26.5354H26.5723C26.5895 6.98509 26.6265 6.99247 26.6413 6.99001C26.5822 7.00725 26.5551 6.97277 26.6092 6.98509C26.6659 6.9974 26.7275 7.02449 26.7841 7.03188C26.8481 7.04173 26.6807 6.97524 26.7718 7.02695C26.7915 7.0368 26.8112 7.04665 26.8284 7.05651C26.8481 7.06882 26.9787 7.14762 26.9122 7.10822C26.8457 7.06635 26.9269 7.123 26.9368 7.13039C26.9516 7.14516 26.9688 7.15994 26.9836 7.17471C26.9984 7.18949 27.0131 7.20673 27.0279 7.22151C27.0993 7.29539 26.9934 7.15255 27.0205 7.21166C27.0402 7.25352 27.0747 7.29293 27.0969 7.33479C27.0944 7.33233 27.1264 7.38897 27.1264 7.3939C27.1338 7.38405 27.0895 7.288 27.119 7.38405C27.1338 7.43084 27.1461 7.48009 27.156 7.52935C27.1757 7.6254 27.151 7.49733 27.151 7.49733C27.156 7.4998 27.1535 7.59338 27.1535 7.60077C27.1584 7.85936 27.3776 8.10563 27.6461 8.09334C27.9096 8.08102 28.1435 7.87662 28.1386 7.60077C28.1263 6.71417 27.4097 6.00739 26.5256 6H26.2128H24.5012H21.6937H18.1893H14.4656H10.9144H7.97641H6.08752H5.66394C5.09014 6 4.57541 6.26105 4.25771 6.74376C3.94741 7.20674 4.00405 7.76825 4.00405 8.29526V10.0167V10.359C4.00405 10.625 4.23062 10.8516 4.49662 10.8516H5.11969H6.80417H9.29397H12.3428H15.6576H19.0266H22.1567H24.8016H26.7102C27.0107 10.8516 27.3112 10.8565 27.6116 10.8516H27.651C27.917 10.8516 28.1436 10.625 28.1436 10.359V7.94313V7.60081C28.1436 7.34223 27.917 7.09596 27.651 7.10825C27.3801 7.12056 27.1535 7.32497 27.1535 7.60081L27.1534 7.60077Z" fill="#3f71ff"/>
<path d="M26.0205 10.3594V11.4258V14.0905V17.553V21.0132V23.6704C26.0205 24.0325 26.0107 24.3945 26.0205 24.7565C26.023 24.8624 26.0501 24.6851 26.0254 24.7417C26.0156 24.7639 26.0107 24.7984 26.0057 24.8205C25.991 24.8969 26.0008 24.7811 26.0205 24.7934C26.023 24.7934 25.9885 24.855 25.991 24.8501C25.9811 24.8698 25.9688 24.887 25.9589 24.9043C25.9097 24.9929 26.0156 24.8525 25.9688 24.8919C25.954 24.9043 25.9392 24.9215 25.9245 24.9387C25.9122 24.951 25.9023 24.9609 25.89 24.9707C25.9442 24.9313 25.9565 24.9215 25.9269 24.9412C25.922 24.9437 25.8063 25.02 25.8013 25.0126C25.789 24.9904 25.9072 24.9806 25.8284 24.9978C25.8087 25.0028 25.7841 25.0077 25.7644 25.0151C25.661 25.0471 25.8481 25.0151 25.7792 25.0126C25.8013 25.0126 25.6634 25.0151 25.7274 25.0151H25.725H25.6536H25.2078H23.2967H20.3932H16.938H13.3769H10.1507H7.70032H6.47143H6.40739H6.37292C6.26456 25.0175 6.44926 25.0397 6.38769 25.02C6.36799 25.0126 6.34583 25.0101 6.32366 25.0052C6.22269 24.9831 6.34336 25.0028 6.33597 25.0175C6.33597 25.02 6.27441 24.9855 6.27933 24.988C6.25963 24.9781 6.24239 24.9658 6.22515 24.956C6.13896 24.9092 6.28672 25.0225 6.22515 24.956C6.21284 24.9412 6.1956 24.924 6.18082 24.9116C6.10694 24.8451 6.21038 24.9806 6.18821 24.924C6.18575 24.919 6.11187 24.8033 6.1168 24.7984C6.12665 24.791 6.15127 24.919 6.13157 24.8254C6.12665 24.8057 6.12172 24.7811 6.11433 24.7614C6.08232 24.658 6.11433 24.8451 6.1168 24.7762C6.1168 24.7959 6.11433 24.6654 6.11433 24.7245C6.11187 24.626 6.11433 24.5275 6.11433 24.4289V22.4465V19.2745V15.7134V12.5636V10.6255V10.3619L5.62177 10.8545H6.17832H7.70029H9.9438H12.6922H15.6918H18.7184H21.5407H23.9369H25.6534C25.9243 10.8545 26.1977 10.8594 26.4686 10.8545H26.5031C26.7617 10.8545 27.0079 10.6279 26.9957 10.3619C26.9834 10.0959 26.7789 9.86938 26.5031 9.86938H25.9465H24.4246H22.1811H19.4327H16.4331H13.4064H10.5841H8.18793H6.47142C6.20053 9.86938 5.92716 9.86445 5.65624 9.86938H5.62177C5.3558 9.86938 5.1292 10.0959 5.1292 10.3619V11.448V14.1471V17.6541V21.124V23.7518V24.498C5.1292 24.695 5.12181 24.892 5.18092 25.0841C5.35577 25.6555 5.87789 26.0002 6.46398 26.0002H6.89249H8.80111H11.717H15.1943H18.78H22.0333H24.4788H25.6781C26.2692 26.0002 26.8381 25.6234 26.9686 25.0225C27.008 24.8403 27.003 24.663 27.003 24.4783V22.55V19.3854V15.7874V12.5933V10.6305V10.362C27.003 10.1035 26.7765 9.85718 26.5105 9.86947C26.247 9.87932 26.0204 10.0837 26.0204 10.3596L26.0205 10.3594Z" fill="#3f71ff"/>
<path d="M19.1548 14.8554H16.1454C15.0963 14.8554 14.0447 14.8677 12.9931 14.8554H12.9882C13.0227 14.8554 12.8872 14.8529 12.9192 14.8529C12.8035 14.8554 13.0301 14.8776 12.9168 14.8554C12.8626 14.8431 12.8109 14.8283 12.7592 14.8135C12.6533 14.7865 12.8552 14.8653 12.7567 14.816C12.7198 14.7963 12.6804 14.7766 12.6459 14.7544C12.6508 14.7569 12.5917 14.72 12.5917 14.72C12.5917 14.72 12.6779 14.7938 12.5917 14.7175C12.5769 14.7052 12.4538 14.5944 12.4612 14.5796C12.4636 14.5747 12.5227 14.6781 12.4735 14.5894C12.4612 14.5673 12.4464 14.5451 12.4316 14.5205C12.4292 14.5131 12.3848 14.4392 12.3898 14.4343C12.4193 14.5032 12.4218 14.5131 12.4045 14.4614C12.3971 14.4417 12.3922 14.4195 12.3848 14.3998C12.3774 14.3727 12.3725 14.3456 12.3651 14.321C12.3454 14.22 12.3602 14.3358 12.3651 14.3358C12.3528 14.3333 12.3627 14.1831 12.3627 14.1659C12.3602 14.0526 12.3356 14.2742 12.3602 14.1634C12.3651 14.1412 12.3676 14.1215 12.375 14.0994C12.3824 14.0673 12.3947 14.0378 12.4021 14.0058C12.4218 13.9565 12.4168 13.9639 12.3873 14.0329C12.3947 14.0132 12.4045 13.9935 12.4144 13.9738C12.4168 13.9688 12.4907 13.8334 12.4957 13.8383C12.4957 13.8383 12.4218 13.9245 12.4981 13.8383C12.5203 13.8137 12.5424 13.7915 12.5646 13.7694C12.5695 13.7644 12.6311 13.7029 12.636 13.7078C12.6459 13.7127 12.5474 13.7669 12.6139 13.7275C12.641 13.7127 12.668 13.693 12.6951 13.6782C12.7148 13.6684 12.7321 13.6585 12.7518 13.6487C12.801 13.6265 12.7912 13.6314 12.7222 13.661C12.7198 13.6511 12.8601 13.6191 12.8774 13.6167C12.8872 13.6142 12.8995 13.6117 12.9094 13.6093C12.9636 13.5994 12.9537 13.6019 12.8774 13.6142C12.8774 13.6093 12.971 13.6093 12.9783 13.6093H12.9956H13.1286H13.7122H17.8668H19.1006H19.1351H19.1425H19.177C19.1992 13.6093 19.2213 13.6117 19.2435 13.6142C19.1671 13.6019 19.1573 13.6019 19.2115 13.6093C19.2287 13.6142 19.4011 13.6487 19.4011 13.661C19.4011 13.6684 19.305 13.6142 19.3715 13.6487C19.4011 13.6635 19.4282 13.6782 19.4553 13.693C19.4602 13.6955 19.5365 13.7423 19.5365 13.7447C19.5365 13.7447 19.4503 13.6708 19.5365 13.7472C19.5513 13.7595 19.6745 13.8703 19.6671 13.8851C19.6548 13.8679 19.64 13.8531 19.6277 13.8358C19.64 13.8531 19.6523 13.8703 19.6621 13.89C19.6794 13.9171 19.6942 13.9442 19.7089 13.9738C19.7139 13.9836 19.7188 13.9935 19.7237 14.0033C19.7409 14.0427 19.7409 14.0427 19.7237 14.0033C19.7188 13.9935 19.7163 13.9836 19.7114 13.9738C19.7188 13.9935 19.7262 14.0156 19.7311 14.0353C19.7409 14.0673 19.7483 14.0994 19.7557 14.1314C19.7582 14.1412 19.7607 14.1535 19.7631 14.1634C19.773 14.2176 19.7705 14.2077 19.7582 14.1314C19.7705 14.1338 19.7607 14.2841 19.7607 14.3013C19.7631 14.4146 19.7877 14.1929 19.7631 14.3038C19.7557 14.3358 19.7508 14.3678 19.741 14.3998C19.7385 14.4072 19.7139 14.4934 19.7114 14.4934C19.7089 14.4934 19.768 14.3801 19.7237 14.4638C19.7163 14.4786 19.6375 14.6338 19.6277 14.6288C19.6277 14.6288 19.7015 14.5426 19.6252 14.6288C19.603 14.6535 19.5809 14.6756 19.5587 14.6978C19.5538 14.7027 19.4922 14.7643 19.4873 14.7594C19.5045 14.747 19.5193 14.7323 19.5365 14.72C19.5193 14.7323 19.5021 14.7446 19.4824 14.7544C19.4701 14.7618 19.3494 14.8382 19.342 14.8283C19.3617 14.8209 19.3814 14.8111 19.4011 14.8037C19.3814 14.8111 19.3592 14.8185 19.3395 14.8234C19.3075 14.8332 19.2755 14.8406 19.2435 14.848C19.2336 14.8505 19.2213 14.8529 19.2115 14.8554C19.1573 14.8653 19.1671 14.8628 19.2435 14.8505C19.2533 14.8554 19.1622 14.8554 19.1548 14.8554C18.8962 14.8603 18.65 15.0795 18.6623 15.348C18.6746 15.6115 18.879 15.8454 19.1548 15.8405C19.8616 15.8307 20.4872 15.3702 20.694 14.6929C20.8984 14.028 20.6226 13.3187 20.071 12.9173C19.6154 12.5848 19.076 12.6267 18.5465 12.6267H14.2417C13.8304 12.6267 13.4191 12.6242 13.0054 12.6267C12.4562 12.6292 11.9637 12.8927 11.6509 13.3433C11.284 13.8704 11.2914 14.6314 11.6706 15.151C11.9883 15.5869 12.4686 15.8381 13.0103 15.8405H13.4216H15.3376H19.0785H19.1499C19.4085 15.8405 19.6547 15.614 19.6424 15.348C19.6351 15.082 19.4307 14.8554 19.1548 14.8554L19.1548 14.8554Z" fill="#3f71ff"/>
</svg>
