<?xml version="1.0" encoding="UTF-8"?>
<!DOCTYPE svg PUBLIC "-//W3C//DTD SVG 1.1//EN" "http://www.w3.org/Graphics/SVG/1.1/DTD/svg11.dtd">
<!-- Creator: CorelDRAW X8 -->
<svg xmlns="http://www.w3.org/2000/svg" xml:space="preserve" width="64px" height="64px" version="1.1" style="shape-rendering:geometricPrecision; text-rendering:geometricPrecision; image-rendering:optimizeQuality; fill-rule:evenodd; clip-rule:evenodd"
viewBox="0 0 6400 6400"
 xmlns:xlink="http://www.w3.org/1999/xlink">
 <defs>
  <style type="text/css">
   <![CDATA[
    .str6 {stroke:#FFAB1D;stroke-width:259.728}
    .str1 {stroke:#FFAB1D;stroke-width:259.846}
    .str2 {stroke:#FFAB1D;stroke-width:259.846}
    .str3 {stroke:#FFAB1D;stroke-width:259.846}
    .str4 {stroke:#FFAB1D;stroke-width:259.846;stroke-linejoin:round}
    .str5 {stroke:#FFAB1D;stroke-width:260.082;stroke-linecap:round}
    .str0 {stroke:#FFAB1D;stroke-width:259.846;stroke-linecap:round;stroke-linejoin:round}
    .fil0 {fill:none}
    .fil1 {fill:#FFE5BD}
    .fil2 {fill:#FFAB1D;fill-rule:nonzero}
   ]]>
  </style>
 </defs>
 <g id="Слой_x0020_1">
  <metadata id="CorelCorpID_0Corel-Layer"/>
  <g id="_2140487482960">
   <rect class="fil0" width="6400" height="6400"/>
   <path class="fil1" d="M3346 5205l-1143 0 -516 0 -756 0c-144,0 -263,120 -263,264 0,145 118,264 263,264l756 0 527 0 1356 0 459 -528 836 -962 -147 -549 -1372 1511z"/>
   <path class="fil0 str0" d="M4718 3694l-1372 1511 -2415 0c-144,0 -263,120 -263,264l0 0c0,145 118,264 263,264l1283 0 1356 0 459 -528 836 -962"/>
   <path class="fil0 str1" d="M1687 5733c-109,313 -406,537 -756,537 -442,0 -800,-358 -800,-800 0,-443 358,-801 800,-801 350,0 647,224 756,536"/>
   <path class="fil0 str2" d="M5528 4671c415,30 742,375 742,798 0,442 -359,800 -800,800 -443,0 -801,-358 -801,-800 0,-275 138,-518 349,-662"/>
   <line class="fil0 str3" x1="4879" y1="3269" x2="4161" y2= "587" />
   <g>
    <path class="fil1" d="M3428 131l1466 0c126,0 229,103 229,228l0 0c0,126 -103,228 -229,228l-1466 0c-125,0 -228,-102 -228,-228l0 0c0,-125 103,-228 228,-228z"/>
    <path id="1" class="fil2" d="M4894 261l-1466 0 0 -260 1466 0 0 0 0 260zm360 98l-262 0 0 0 -1 -5 0 -6 -1 -4 0 -5 -2 -4 -1 -5 -2 -5 -1 -4 -2 -4 -2 -4 -3 -5 -2 -4 -3 -4 -3 -4 -4 -4 -2 -3 -4 -3 -4 -3 -3 -3 -4 -3 -4 -2 -4 -3 -5 -2 -3 -2 -5 -1 -5 -2 -4 -1 -5 -1 -4 -1 -4 -1 -6 0 -5 0 0 -260 19 0 17 2 19 2 18 3 18 4 17 5 16 6 16 6 17 8 15 8 15 8 15 10 14 9 13 11 13 11 13 12 12 13 11 13 10 13 10 14 10 15 8 14 8 16 8 16 6 16 6 17 4 17 4 17 4 18 2 18 1 18 1 18 0 0zm-262 0l0 0 262 0 0 0 0 0 -262 0zm-98 358l0 -259 0 0 5 -1 6 0 4 -1 4 0 5 -1 4 -2 5 -1 5 -2 3 -2 5 -2 4 -2 4 -3 4 -3 3 -3 4 -3 4 -3 2 -3 4 -4 3 -4 3 -4 2 -4 3 -4 2 -4 2 -4 1 -5 2 -5 1 -4 2 -5 0 -4 1 -5 0 -6 1 -5 262 0 -1 18 -1 18 -2 18 -4 18 -4 17 -4 17 -6 17 -6 16 -8 16 -8 16 -8 15 -10 14 -10 14 -10 14 -11 12 -12 13 -13 12 -13 11 -13 11 -14 10 -15 9 -15 9 -15 8 -17 7 -16 6 -16 6 -17 5 -18 4 -18 3 -19 3 -17 1 -19 0 0 0zm-1466 -259l1466 0 0 259 -1466 0 0 0 0 -259zm-359 -99l262 0 0 0 0 5 1 6 0 5 1 4 1 5 1 4 2 5 2 5 2 4 2 4 2 4 3 4 2 4 4 4 3 4 3 3 4 4 3 2 4 3 4 3 4 3 4 2 4 2 4 2 4 2 5 1 5 2 4 1 4 0 5 1 5 0 5 1 0 259 -18 0 -18 -1 -18 -3 -19 -3 -17 -4 -17 -5 -16 -6 -17 -6 -16 -7 -16 -8 -15 -9 -14 -9 -14 -10 -14 -11 -13 -11 -12 -12 -12 -13 -11 -12 -11 -14 -10 -14 -9 -14 -9 -15 -8 -16 -7 -16 -6 -16 -6 -17 -5 -17 -4 -17 -3 -18 -2 -18 -2 -18 0 -18 0 0zm262 0l0 0 -262 0 0 0 0 0 262 0zm97 -358l0 260 0 0 -5 0 -5 0 -5 1 -4 1 -4 1 -5 1 -5 2 -4 1 -4 2 -4 2 -4 3 -4 2 -4 3 -4 3 -3 3 -4 3 -3 4 -3 3 -4 4 -2 4 -3 4 -2 5 -2 4 -2 4 -2 4 -2 5 -1 5 -1 4 -1 5 0 4 -1 6 0 5 -262 0 0 -18 2 -18 2 -18 3 -18 4 -17 5 -17 6 -17 6 -16 7 -16 8 -16 9 -14 9 -15 10 -14 11 -13 11 -13 12 -13 12 -11 13 -12 14 -11 14 -9 14 -10 15 -8 16 -8 16 -8 17 -6 16 -6 17 -5 17 -4 19 -3 18 -2 18 -2 18 0 0 0z"/>
   </g>
   <path class="fil0 str4" d="M5213 5534l-626 -2334 548 1 588 2197c41,152 -56,284 -187,323 -140,37 -285,-47 -323,-187z"/>
   <path class="fil0 str5" d="M131 4447c220,-173 498,-276 801,-276 627,0 1150,445 1271,1035"/>
   <path class="fil1" d="M732 1340l975 -1147c-119,-41 -245,-62 -378,-62 -662,0 -1198,537 -1198,1199 0,525 337,972 808,1134l290 -859 -497 -265z"/>
   <path class="fil1" d="M1993 1291l-1054 1173c122,42 254,65 390,65 662,0 1199,-537 1199,-1199 0,-530 -344,-980 -821,-1137l-199 838 485 260z"/>
   <circle class="fil0 str6" cx="1329" cy="1330" r="1199"/>
   <g>
    <path class="fil2" d="M1806 278l-975 1147 -198 -169 975 -1147 225 115 -27 54zm-198 -169c46,-54 128,-61 183,-15 55,47 61,129 15,184l-198 -169zm-227 892l199 -838 253 61 -199 837 -188 85 -65 -145zm253 60c-17,70 -87,113 -157,96 -69,-16 -112,-86 -96,-156l253 60zm297 344l-485 -259 123 -230 485 260 35 202 -158 27zm123 -229c63,34 87,113 53,176 -33,63 -112,87 -176,53l123 -229zm-1214 1203l1056 -1175 193 174 -1056 1175 -219 -128 26 -46zm193 174c-48,54 -130,58 -183,10 -54,-48 -58,-130 -10,-184l193 174zm319 -907l-292 862 -246 -83 292 -862 184 -73 62 156zm-246 -83c23,-68 97,-105 165,-82 68,23 104,97 81,165l-246 -83zm-313 -338l497 265 -122 229 -497 -264 -38 -199 160 -31zm-122 230c-63,-33 -87,-112 -54,-176 34,-63 113,-87 176,-54l-122 230z"/>
   </g>
  </g>
 </g>
</svg>
