<?xml version="1.0" encoding="UTF-8"?>
<!DOCTYPE svg PUBLIC "-//W3C//DTD SVG 1.1//EN" "http://www.w3.org/Graphics/SVG/1.1/DTD/svg11.dtd">
<!-- Creator: CorelDRAW X8 -->
<svg xmlns="http://www.w3.org/2000/svg" xml:space="preserve" width="64px" height="64px" version="1.1" style="shape-rendering:geometricPrecision; text-rendering:geometricPrecision; image-rendering:optimizeQuality; fill-rule:evenodd; clip-rule:evenodd"
viewBox="0 0 6400 6400"
 xmlns:xlink="http://www.w3.org/1999/xlink">
 <defs>
  <style type="text/css">
   <![CDATA[
    .str1 {stroke:#FFAB1D;stroke-width:259.846;stroke-linejoin:round}
    .str2 {stroke:#FFAB1D;stroke-width:259.964;stroke-linejoin:round}
    .str0 {stroke:#FFAB1D;stroke-width:259.846;stroke-linecap:round;stroke-linejoin:round}
    .fil0 {fill:none}
    .fil1 {fill:#FFE5BD}
    .fil2 {fill:#FFAB1D;fill-rule:nonzero}
   ]]>
  </style>
 </defs>
 <g id="Слой_x0020_1">
  <metadata id="CorelCorpID_0Corel-Layer"/>
  <g id="_2199649344528">
   <rect class="fil0" width="6400" height="6400"/>
   <path class="fil1" d="M5198 3488l-2015 0 -295 1100c-159,595 -431,1057 -1202,1057l2414 0c1280,0 1574,-1259 1752,-2414 -136,136 -392,257 -654,257z"/>
   <path class="fil0 str0" d="M192 4707c-145,540 75,938 503,938l3404 0c1282,0 1575,-1259 1753,-2415 -136,137 -392,258 -654,258l-2015 0 -295 1100c-159,594 -431,1057 -1202,1057"/>
   <path class="fil1" d="M2878 3031l596 -2226 -1249 0c-580,0 -1075,325 -1198,781l-601 2247c162,-603 790,-802 1307,-802l1145 0z"/>
   <path class="fil0 str1" d="M192 4707l836 -3121c122,-456 617,-781 1196,-781l1250 0 -596 2226 -1144 0c-519,0 -1146,198 -1308,802"/>
   <g>
    <path class="fil1" d="M1694 5073l-1023 0 237 -886c86,-321 209,-579 649,-579l1033 0 -238 889c-68,254 -225,576 -658,576z"/>
    <path id="1" class="fil2" d="M671 4943l1023 0 0 260 -1023 0 -126 -164 126 -96zm0 260c-72,0 -130,-58 -130,-130 0,-72 58,-130 130,-130l0 260zm362 -982l-237 885 -251 -67 237 -885 0 0 251 67zm-251 -67c19,-70 90,-111 159,-92 70,18 111,90 92,159l-251 -67zm775 -676l0 260 0 0 -36 0 -33 2 -31 4 -29 4 -28 5 -25 6 -24 7 -22 8 -20 9 -20 10 -18 10 -17 11 -16 11 -15 13 -14 13 -14 14 -13 15 -13 16 -12 18 -12 18 -11 19 -11 20 -10 20 -11 23 -9 23 -10 23 -9 25 -8 26 -9 26 -8 28 -8 27 -8 29 -251 -67 9 -32 9 -31 9 -31 10 -31 10 -30 11 -30 12 -30 13 -30 13 -29 14 -30 16 -28 17 -28 17 -27 20 -27 20 -26 22 -25 24 -24 25 -23 26 -22 28 -21 30 -19 31 -18 33 -16 34 -14 35 -13 37 -11 38 -9 40 -8 40 -6 43 -4 44 -2 45 -1 0 0zm0 0c72,0 130,58 130,130 0,72 -58,130 -130,130l0 -260zm1033 260l-1033 0 0 -260 1033 0 125 164 -125 96zm0 -260c71,0 130,58 130,130 0,72 -59,130 -130,130l0 -260zm-364 985l238 -889 251 68 -238 889 -251 -68zm251 68c-18,69 -90,110 -159,92 -69,-19 -110,-90 -92,-160l251 68zm-783 672l0 -260 0 0 34 -1 32 -2 30 -4 28 -5 27 -6 25 -8 25 -8 22 -9 22 -11 20 -11 20 -12 18 -13 18 -14 17 -15 16 -15 16 -16 14 -17 14 -18 14 -19 13 -18 12 -20 11 -21 11 -20 11 -21 9 -22 9 -22 9 -21 8 -23 8 -22 7 -22 6 -22 6 -22 251 68 -7 26 -8 26 -9 27 -9 28 -10 27 -11 28 -12 28 -12 29 -14 28 -15 28 -16 27 -17 28 -18 28 -20 26 -21 27 -22 26 -24 25 -25 24 -27 23 -28 22 -30 21 -32 20 -33 18 -34 17 -37 14 -37 13 -39 12 -41 9 -41 7 -44 6 -44 3 -46 1 0 0zm0 0c-72,0 -130,-58 -130,-130 0,-72 58,-130 130,-130l0 260z"/>
   </g>
   <path class="fil1 str2" d="M4897 3045l-1566 0 362 -1354c132,-491 320,-887 994,-887l1581 0 -364 1360c-104,389 -344,881 -1007,881z"/>
  </g>
 </g>
</svg>
