<svg aria-hidden="true" xmlns="http://www.w3.org/2000/svg" xmlns:xlink="http://www.w3.org/1999/xlink"><symbol viewBox="0 0 25 16" id="arrow-long" xmlns="http://www.w3.org/2000/svg">
<path d="M1.0647 7.31657C0.674175 7.7071 0.674175 8.34026 1.0647 8.73079L7.42866 15.0947C7.81918 15.4853 8.45235 15.4853 8.84287 15.0947C9.2334 14.7042 9.2334 14.0711 8.84287 13.6805L3.18602 8.02368L8.84288 2.36683C9.2334 1.9763 9.2334 1.34314 8.84288 0.952612C8.45235 0.562088 7.81919 0.562088 7.42866 0.952612L1.0647 7.31657ZM24.2749 7.02368L1.77181 7.02368L1.77181 9.02368L24.2749 9.02368L24.2749 7.02368Z"/>
</symbol><symbol viewBox="0 0 17 29" id="arrow-short" xmlns="http://www.w3.org/2000/svg">
<path d="M0.406146 13.7506L14.3491 1.14975C14.8059 0.737142 15.5455 0.737836 16.0015 1.15189C16.4573 1.56588 16.4561 2.23652 15.9992 2.64945L2.8862 14.5003L15.9997 26.3511C16.4565 26.764 16.4577 27.4343 16.002 27.8483C15.7734 28.0559 15.4739 28.1597 15.1744 28.1597C14.8757 28.1597 14.5773 28.0566 14.3491 27.8504L0.406146 15.25C0.186125 15.0516 0.0626602 14.7816 0.0626602 14.5003C0.0626602 14.219 0.186478 13.9493 0.406146 13.7506Z"/>
</symbol><symbol viewBox="0 0 22 18" id="burger" xmlns="http://www.w3.org/2000/svg">
<path fill-rule="evenodd" clip-rule="evenodd" d="M0.5 1.99967C0.5 1.35534 1.02233 0.833008 1.66667 0.833008H20.3333C20.9777 0.833008 21.5 1.35534 21.5 1.99967C21.5 2.64401 20.9777 3.16634 20.3333 3.16634H1.66667C1.02233 3.16634 0.5 2.64401 0.5 1.99967ZM0.5 8.99967C0.5 8.35534 1.02233 7.83301 1.66667 7.83301H20.3333C20.9777 7.83301 21.5 8.35534 21.5 8.99967C21.5 9.64401 20.9777 10.1663 20.3333 10.1663H1.66667C1.02233 10.1663 0.5 9.64401 0.5 8.99967ZM1.66667 14.833C1.02233 14.833 0.5 15.3553 0.5 15.9997C0.5 16.644 1.02233 17.1663 1.66667 17.1663H20.3333C20.9777 17.1663 21.5 16.644 21.5 15.9997C21.5 15.3553 20.9777 14.833 20.3333 14.833H1.66667Z"/>
</symbol><symbol viewBox="0 0 8 6" id="check" xmlns="http://www.w3.org/2000/svg">
<path fill-rule="evenodd" clip-rule="evenodd" d="M7.70711 0.292893C8.09763 0.683417 8.09763 1.31658 7.70711 1.70711L3.70711 5.70711C3.31658 6.09763 2.68342 6.09763 2.29289 5.70711L0.292893 3.70711C-0.0976311 3.31658 -0.0976311 2.68342 0.292893 2.29289C0.683417 1.90237 1.31658 1.90237 1.70711 2.29289L3 3.58579L6.29289 0.292893C6.68342 -0.0976311 7.31658 -0.0976311 7.70711 0.292893Z"/>
</symbol><symbol viewBox="0 0 16 16" id="close" xmlns="http://www.w3.org/2000/svg">
<path fill-rule="evenodd" clip-rule="evenodd" d="M0.341708 15.191C-0.113903 14.7353 -0.113903 13.9966 0.341709 13.541L13.541 0.341709C13.9966 -0.113903 14.7353 -0.113903 15.191 0.341708C15.6466 0.79732 15.6466 1.53601 15.1909 1.99162L1.99162 15.1909C1.53601 15.6466 0.79732 15.6466 0.341708 15.191Z"/>
<path fill-rule="evenodd" clip-rule="evenodd" d="M0.341757 0.341978C0.797368 -0.113634 1.53606 -0.113634 1.99167 0.341978L15.191 13.5413C15.6466 13.9969 15.6466 14.7356 15.191 15.1912C14.7354 15.6468 13.9967 15.6468 13.5411 15.1912L0.341757 1.99189C-0.113854 1.53628 -0.113854 0.797589 0.341757 0.341978Z"/>
</symbol><symbol viewBox="0 0 8 4" id="down" xmlns="http://www.w3.org/2000/svg">
<path fill-rule="evenodd" clip-rule="evenodd" d="M0.646447 0.146447C0.841709 -0.0488155 1.15829 -0.0488155 1.35355 0.146447L4 2.79289L6.64645 0.146447C6.84171 -0.0488155 7.15829 -0.0488155 7.35355 0.146447C7.54882 0.341709 7.54882 0.658291 7.35355 0.853553L4.35355 3.85355C4.15829 4.04882 3.84171 4.04882 3.64645 3.85355L0.646447 0.853553C0.451184 0.658291 0.451184 0.341709 0.646447 0.146447Z"/>
</symbol><symbol viewBox="0 0 20 16" id="mail" xmlns="http://www.w3.org/2000/svg">
<path fill-rule="evenodd" clip-rule="evenodd" d="M2.58869 2.62861C2.72645 2.35592 3.00995 2.16667 3.33337 2.16667H16.6667C16.9901 2.16667 17.2736 2.35589 17.4114 2.62856L9.99999 7.81652L2.58869 2.62861ZM0.833438 2.98206C0.833213 2.9927 0.833192 3.00333 0.833374 3.01395V13C0.833374 14.3769 1.95647 15.5 3.33337 15.5H16.6667C18.0436 15.5 19.1667 14.3769 19.1667 13V3.00573C19.1667 3.00119 19.1667 2.99664 19.1667 2.9921M17.5 4.60091V13C17.5 13.4564 17.1231 13.8333 16.6667 13.8333H3.33337C2.87694 13.8333 2.50004 13.4564 2.50004 13V4.60098L9.52211 9.51642C9.80904 9.71728 10.1909 9.71728 10.4779 9.51642L17.5 4.60091ZM19.1667 2.9921C19.1624 1.6188 18.041 0.5 16.6667 0.5H3.33337C1.96246 0.5 0.843142 1.61335 0.833438 2.98206"/>
</symbol><symbol viewBox="0 0 13 22" id="next" xmlns="http://www.w3.org/2000/svg">
<path d="M2 2L11 11L2 20" stroke-width="3" stroke-linecap="round" stroke-linejoin="round"/>
</symbol><symbol viewBox="0 0 20 20" id="phone" xmlns="http://www.w3.org/2000/svg">
<path d="M16.575 19.108C16.5 19.108 16.425 19.108 16.3416 19.0997C13.65 18.808 11.0333 17.8747 8.77498 16.408C6.67498 15.0747 4.85832 13.258 3.52498 11.158C2.05832 8.89134 1.12498 6.26634 0.841649 3.57467C0.808315 3.21634 0.849982 2.87467 0.958315 2.54134C1.06665 2.20801 1.24998 1.90801 1.48332 1.64967C1.71665 1.39134 1.99998 1.19134 2.31665 1.04967C2.64165 0.908008 2.98332 0.833008 3.33332 0.833008H5.83332C6.41665 0.833008 7.01665 1.04134 7.48332 1.44134C7.94165 1.83301 8.24165 2.38301 8.32498 2.98301C8.42498 3.72467 8.60832 4.45801 8.86665 5.14967C9.03332 5.59967 9.07498 6.08301 8.96665 6.54967C8.86665 7.01634 8.63332 7.44967 8.29998 7.78301L7.69998 8.38301C8.68332 9.91634 9.98332 11.2247 11.525 12.208L12.125 11.608C12.4666 11.2663 12.9 11.033 13.3666 10.9413C13.8333 10.8413 14.3166 10.8747 14.7666 11.0413C15.4583 11.2997 16.1916 11.483 16.925 11.583C17.5416 11.6663 18.0916 11.9747 18.4916 12.4413C18.8833 12.908 19.1 13.4997 19.0833 14.108V16.5997C19.0833 16.9497 19.0166 17.283 18.875 17.608C18.7333 17.9247 18.525 18.2163 18.275 18.4497C18.0166 18.683 17.7166 18.8663 17.3833 18.9747C17.1166 19.0663 16.85 19.108 16.575 19.108ZM5.84998 2.49967H5.84165H3.33332C3.21665 2.49967 3.10832 2.52467 2.99998 2.57467C2.89165 2.61634 2.79165 2.68301 2.71665 2.76634C2.63332 2.84967 2.57498 2.94967 2.54165 3.06634C2.50832 3.17467 2.49165 3.29134 2.49998 3.40801C2.75832 5.83301 3.59998 8.19967 4.92498 10.258C6.13332 12.158 7.77498 13.7997 9.67498 15.008C11.725 16.3413 14.0916 17.1747 16.5083 17.4413C16.6083 17.4497 16.725 17.433 16.8333 17.3997C16.9416 17.3663 17.0416 17.2997 17.1333 17.2247C17.225 17.1497 17.2916 17.0497 17.3333 16.9413C17.3833 16.833 17.4 16.7163 17.4 16.5997V14.0997C17.4 14.0913 17.4 14.083 17.4 14.083C17.4083 13.8747 17.3333 13.683 17.2 13.5247C17.0666 13.3663 16.8833 13.2663 16.6833 13.2413C15.8333 13.133 14.9833 12.9163 14.1666 12.6163C14.0166 12.558 13.85 12.5497 13.7 12.583C13.5416 12.6163 13.4 12.6913 13.2833 12.808L12.2333 13.8663C11.9666 14.133 11.5583 14.183 11.2333 13.9997C9.01665 12.7413 7.18332 10.8997 5.91665 8.69134C5.74165 8.34134 5.79165 7.93301 6.05832 7.66634L7.11665 6.60801C7.22498 6.49967 7.29998 6.35801 7.33332 6.19967C7.36665 6.04134 7.35832 5.88301 7.29998 5.73301C6.99165 4.91634 6.78332 4.06634 6.66665 3.20801C6.64165 3.01634 6.54165 2.83301 6.39165 2.69967C6.24165 2.57467 6.04998 2.49967 5.84998 2.49967Z"/>
</symbol><symbol viewBox="0 0 19 21" id="play" xmlns="http://www.w3.org/2000/svg">
<path d="M3.40676 0.461703C1.53113 -0.622847 0 0.270312 0 2.43941V18.4652C0 20.6343 1.53113 21.5275 3.41952 20.4429L17.4294 12.4045C19.3178 11.32 19.3178 9.57192 17.4294 8.48737L3.40676 0.461703Z"/>
</symbol><symbol viewBox="0 0 13 22" id="prev" xmlns="http://www.w3.org/2000/svg">
<path d="M11 2L2 11L11 20" stroke-width="3" stroke-linecap="round" stroke-linejoin="round"/>
</symbol><symbol viewBox="0 0 18 29" id="tab-arrow" xmlns="http://www.w3.org/2000/svg">
<path d="M17.2765 13.7042L2.47555 0.327942C1.99062 -0.110058 1.20549 -0.109322 0.721371 0.330207C0.237623 0.76968 0.238873 1.48159 0.723871 1.91993L14.6438 14.5L0.723371 27.0801C0.238436 27.5185 0.237185 28.23 0.720871 28.6695C0.963557 28.8898 1.28149 29 1.59943 29C1.91655 29 2.23324 28.8906 2.47549 28.6718L17.2765 15.2958C17.51 15.0853 17.6411 14.7987 17.6411 14.5C17.6411 14.2014 17.5097 13.9152 17.2765 13.7042Z"/>
</symbol><symbol viewBox="0 0 20 17" id="telegram" xmlns="http://www.w3.org/2000/svg">
<path d="M1.3749 7.31846C6.74359 4.91938 10.3236 3.33777 12.1148 2.57361C17.2292 0.391776 18.2919 0.0127698 18.9846 0.00012133C19.1369 -0.00249777 19.4776 0.0362266 19.6982 0.219862C19.8845 0.37492 19.9358 0.584381 19.9603 0.731393C19.9848 0.878405 20.0154 1.2133 19.9911 1.47498C19.714 4.46174 18.5147 11.7098 17.9046 15.055C17.6465 16.4705 17.1382 16.9451 16.6461 16.9916C15.5766 17.0925 14.7645 16.2667 13.7287 15.5702C12.1078 14.4805 11.1921 13.8021 9.61879 12.7387C7.80053 11.5097 8.97923 10.8343 10.0154 9.73042C10.2866 9.44153 14.9987 5.04555 15.0899 4.64677C15.1013 4.59689 15.1119 4.41098 15.0042 4.31282C14.8965 4.21465 14.7376 4.24822 14.6229 4.27492C14.4604 4.31276 11.871 6.06814 6.85486 9.54107C6.11988 10.0587 5.45416 10.3109 4.8577 10.2977C4.20015 10.2831 2.93528 9.91638 1.99498 9.60288C0.84166 9.21836 -0.0749729 9.01506 0.00484519 8.36203C0.0464194 8.0219 0.503103 7.67404 1.3749 7.31846Z"/>
</symbol><symbol viewBox="0 0 22 22" id="whatsapp" xmlns="http://www.w3.org/2000/svg">
<path d="M18.6375 3.31956C17.6443 2.31631 16.4613 1.52086 15.1574 0.979612C13.8536 0.438361 12.455 0.162139 11.0433 0.167057C5.12832 0.167057 0.307492 4.98789 0.307492 10.9029C0.307492 12.7987 0.805825 14.6404 1.73749 16.2654L0.220825 21.8337L5.90832 20.3387C7.47916 21.1946 9.24499 21.6496 11.0433 21.6496C16.9583 21.6496 21.7792 16.8287 21.7792 10.9137C21.7792 8.04289 20.6633 5.34539 18.6375 3.31956ZM11.0433 19.8296C9.43999 19.8296 7.86916 19.3962 6.49332 18.5837L6.16832 18.3887L2.78833 19.2771L3.68749 15.9837L3.47083 15.6479C2.58005 14.2254 2.10706 12.5812 2.10583 10.9029C2.10583 5.98456 6.11416 1.97622 11.0325 1.97622C13.4158 1.97622 15.6583 2.90789 17.3375 4.59789C18.1689 5.42552 18.8278 6.40994 19.276 7.4941C19.7242 8.57826 19.9527 9.74059 19.9483 10.9137C19.97 15.8321 15.9617 19.8296 11.0433 19.8296ZM15.94 13.1562C15.6692 13.0262 14.3475 12.3762 14.1092 12.2787C13.86 12.1921 13.6867 12.1487 13.5025 12.4087C13.3183 12.6796 12.8092 13.2862 12.6575 13.4596C12.5058 13.6437 12.3433 13.6654 12.0725 13.5246C11.8017 13.3946 10.935 13.1021 9.91666 12.1921C9.11499 11.4771 8.58416 10.5996 8.42166 10.3287C8.26999 10.0579 8.39999 9.91706 8.54082 9.77622C8.65999 9.65706 8.81166 9.46206 8.94166 9.31039C9.07166 9.15872 9.12582 9.03956 9.21249 8.86622C9.29916 8.68206 9.25582 8.53039 9.19082 8.40039C9.12582 8.27039 8.58416 6.94872 8.36749 6.40706C8.15082 5.88706 7.92332 5.95206 7.76082 5.94122H7.24082C7.05666 5.94122 6.77499 6.00622 6.52582 6.27706C6.28749 6.54789 5.59416 7.19789 5.59416 8.51956C5.59416 9.84122 6.55832 11.1196 6.68832 11.2929C6.81833 11.4771 8.58416 14.1854 11.2708 15.3446C11.91 15.6262 12.4083 15.7887 12.7983 15.9079C13.4375 16.1137 14.0225 16.0812 14.4883 16.0162C15.0083 15.9404 16.0808 15.3662 16.2975 14.7379C16.525 14.1096 16.525 13.5787 16.4492 13.4596C16.3733 13.3404 16.2108 13.2862 15.94 13.1562Z"/>
</symbol></svg>