<?xml version="1.0" encoding="UTF-8"?>
<!DOCTYPE svg PUBLIC "-//W3C//DTD SVG 1.1//EN" "http://www.w3.org/Graphics/SVG/1.1/DTD/svg11.dtd">
<!-- Creator: CorelDRAW X8 -->
<svg xmlns="http://www.w3.org/2000/svg" xml:space="preserve" width="64px" height="64px" version="1.1" style="shape-rendering:geometricPrecision; text-rendering:geometricPrecision; image-rendering:optimizeQuality; fill-rule:evenodd; clip-rule:evenodd"
viewBox="0 0 6400 6400"
 xmlns:xlink="http://www.w3.org/1999/xlink">
 <defs>
  <style type="text/css">
   <![CDATA[
    .str0 {stroke:#FFAB1D;stroke-width:259.846;stroke-linejoin:round}
    .fil0 {fill:none}
    .fil2 {fill:#FFE5BD}
    .fil1 {fill:#FFAB1D;fill-rule:nonzero}
   ]]>
  </style>
 </defs>
 <g id="Слой_x0020_1">
  <metadata id="CorelCorpID_0Corel-Layer"/>
  <g id="_2199649328560">
   <rect class="fil0" width="6400" height="6400"/>
   <g>
    <path class="fil1" d="M6403 3200l-260 0 0 0 -4 -109 -11 -109 -18 -106 -25 -105 -32 -103 -38 -102 -45 -99 -52 -98 -57 -95 -64 -93 -70 -91 -75 -88 -81 -86 -87 -82 -92 -79 -97 -77 -102 -72 -106 -69 -112 -66 -115 -61 -120 -58 -124 -53 -128 -49 -131 -45 -135 -39 -137 -35 -141 -30 -144 -25 -147 -20 -149 -14 -151 -9 -153 -2 0 -262 163 3 161 10 159 15 156 21 153 26 151 32 148 38 144 42 141 48 138 53 133 57 130 62 125 67 121 71 116 75 112 80 106 84 101 87 96 91 90 95 85 99 78 102 72 105 66 108 58 111 52 115 44 117 37 119 29 121 21 124 13 126 4 127 0 0zm-3203 2431l0 -262 0 0 153 -2 151 -9 149 -14 147 -20 144 -25 141 -30 137 -35 135 -39 131 -45 128 -49 124 -53 120 -58 115 -61 112 -66 106 -69 102 -72 97 -77 92 -79 87 -82 81 -86 75 -88 70 -91 64 -93 57 -95 52 -98 45 -99 38 -102 32 -103 25 -105 18 -106 11 -109 4 -109 260 0 -4 127 -13 126 -21 124 -29 121 -37 119 -44 117 -52 115 -58 111 -66 108 -72 105 -78 102 -85 99 -90 95 -96 91 -101 87 -106 84 -112 80 -116 75 -121 71 -125 67 -130 62 -133 57 -138 53 -141 48 -144 42 -148 38 -151 32 -153 26 -156 21 -159 15 -161 10 -163 3 0 0zm-3203 -2431l260 0 0 0 4 109 11 109 18 106 25 105 32 103 38 102 45 99 52 98 57 95 64 93 70 91 75 88 81 86 87 82 92 79 97 77 102 72 106 69 112 66 115 61 120 58 124 53 128 49 131 45 135 39 137 35 141 30 144 25 147 20 149 14 151 9 153 2 0 262 -163 -3 -161 -10 -159 -15 -156 -21 -153 -26 -151 -32 -148 -38 -144 -42 -141 -48 -138 -53 -133 -57 -130 -62 -125 -67 -121 -71 -116 -75 -112 -80 -106 -84 -101 -87 -96 -91 -90 -95 -85 -99 -78 -102 -72 -105 -66 -108 -58 -111 -52 -115 -44 -117 -37 -119 -29 -121 -21 -124 -13 -126 -4 -127 0 0zm3203 -2431l0 262 0 0 -153 2 -151 9 -149 14 -147 20 -144 25 -141 30 -137 35 -135 39 -131 45 -128 49 -124 53 -120 58 -115 61 -112 66 -106 69 -102 72 -97 77 -92 79 -87 82 -81 86 -75 88 -70 91 -64 93 -57 95 -52 98 -45 99 -38 102 -32 103 -25 105 -18 106 -11 109 -4 109 -260 0 4 -127 13 -126 21 -124 29 -121 37 -119 44 -117 52 -115 58 -111 66 -108 72 -105 78 -102 85 -99 90 -95 96 -91 101 -87 106 -84 112 -80 116 -75 121 -71 125 -67 130 -62 133 -57 138 -53 141 -48 144 -42 148 -38 151 -32 153 -26 156 -21 159 -15 161 -10 163 -3 0 0z"/>
   </g>
   <path class="fil2" d="M615 4444c1420,-575 2295,-1497 2616,-2701l-1138 0 -1478 2701z"/>
   <path class="fil0 str0" d="M615 4444c1420,-575 2295,-1497 2616,-2701l-1138 0 -1478 2701 1508 0"/>
   <path class="fil2" d="M3602 1743l-1163 2345c1167,-499 1834,-1300 2098,-2345l-935 0z"/>
   <g>
    <path class="fil1" d="M4537 1874l0 -261 125 162 -26 101 -30 99 -31 98 -35 96 -37 95 -39 94 -42 92 -45 90 -47 89 -50 87 -53 86 -55 84 -58 83 -61 81 -63 79 -66 78 -69 76 -71 74 -75 72 -77 71 -80 69 -82 67 -85 66 -89 63 -90 62 -94 60 -97 58 -99 57 -102 54 -105 53 -108 50 -111 49 -102 -240 105 -46 103 -48 99 -50 96 -51 93 -53 91 -55 88 -56 85 -57 82 -60 79 -61 77 -62 74 -64 71 -65 69 -67 66 -69 63 -70 61 -71 58 -73 56 -75 53 -75 51 -78 49 -79 46 -80 43 -82 41 -84 39 -85 37 -86 34 -88 32 -89 29 -91 28 -93 25 -94 126 163zm-126 -163c17,-69 88,-112 157,-94 70,18 112,89 94,158l-251 -64zm-810 -98l936 0 0 261 -936 0 -116 -189 116 -72zm0 261c-71,0 -129,-59 -129,-131 0,-72 58,-130 129,-130l0 261zm-1278 2156l1162 -2345 233 116 -1163 2345 -116 73 -116 -189zm232 116c-31,65 -109,91 -174,59 -64,-32 -90,-110 -58,-175l232 116zm1065 73l-1181 0 0 -261 1181 0 0 261z"/>
   </g>
   <path class="fil2" d="M4895 1743l-981 2100c1069,-585 1664,-1535 1664,-2100l-683 0z"/>
   <g>
    <path class="fil1" d="M5578 1873l0 -259 130 129 -2 67 -6 68 -9 68 -14 70 -16 70 -21 71 -24 71 -27 72 -31 73 -34 73 -37 73 -41 73 -44 73 -48 74 -50 73 -54 73 -56 73 -60 73 -63 72 -66 72 -70 71 -72 70 -76 70 -78 68 -81 68 -84 66 -88 65 -90 64 -93 62 -96 61 -99 59 -102 58 -124 -228 95 -54 93 -55 91 -58 88 -58 84 -60 82 -62 79 -62 76 -63 74 -64 70 -65 67 -65 65 -67 61 -66 58 -67 56 -67 52 -67 49 -67 46 -67 43 -66 40 -66 36 -66 34 -65 30 -65 27 -63 23 -63 21 -61 17 -60 14 -59 11 -57 8 -55 4 -54 2 -52 130 130zm-130 -130c0,-71 58,-129 130,-129 72,0 130,58 130,129l-260 0zm-553 -129l683 0 0 259 -683 0 -118 -184 118 -75zm0 259c-72,0 -130,-58 -130,-130 0,-71 58,-129 130,-129l0 259zm-1099 1915l981 -2099 236 109 -981 2100 -118 75 -118 -185zm236 110c-30,65 -108,93 -173,63 -65,-31 -93,-108 -63,-173l236 110zm777 75l-895 0 0 -260 895 0 0 260z"/>
   </g>
  </g>
 </g>
</svg>
