<svg id="a931583c-dba2-4805-93f0-d74c0a339ff3" data-name="Слой 1" xmlns="http://www.w3.org/2000/svg" viewBox="0 0 32 32"><defs><style>.eaab08ea-fd9c-49a1-8c67-eed9f7cef619{fill:#ffe5bd;}.eaab08ea-fd9c-49a1-8c67-eed9f7cef619,.f3b54f4a-d9b5-4276-939e-7ef6ced16b0d{stroke:#ffab1d;stroke-linecap:round;stroke-linejoin:round;}.f3b54f4a-d9b5-4276-939e-7ef6ced16b0d{fill:none;}</style></defs><rect class="eaab08ea-fd9c-49a1-8c67-eed9f7cef619" x="1.84" y="23.36" width="5.35" height="2.69"/><path class="eaab08ea-fd9c-49a1-8c67-eed9f7cef619" d="M31.5,11.64a8.37,8.37,0,0,1-2.22,5.72,7.44,7.44,0,0,1-5.39,2.36L7.65,20.78a1.85,1.85,0,0,1-1.8-1.89v-4.5H7.59a1.2,1.2,0,0,0,1.16-1.23V11.64Z"/><line class="f3b54f4a-d9b5-4276-939e-7ef6ced16b0d" x1="2.97" y1="26.06" x2="2.97" y2="28"/><line class="f3b54f4a-d9b5-4276-939e-7ef6ced16b0d" x1="2.97" y1="21.42" x2="2.97" y2="23.36"/><line class="f3b54f4a-d9b5-4276-939e-7ef6ced16b0d" x1="5.86" y1="18.89" x2="5.86" y2="23.36"/><line class="f3b54f4a-d9b5-4276-939e-7ef6ced16b0d" x1="10.96" y1="11.65" x2="9.05" y2="4"/><line class="f3b54f4a-d9b5-4276-939e-7ef6ced16b0d" x1="6.74" y1="4" x2="10.38" y2="4"/><path class="f3b54f4a-d9b5-4276-939e-7ef6ced16b0d" d="M12.54,11.65l-.46-2.78a1.27,1.27,0,0,1,1.21-1.51h.09a1.22,1.22,0,0,1,1.13.8l1.34,3.49"/><path class="eaab08ea-fd9c-49a1-8c67-eed9f7cef619" d="M8.75,11.64v1.52a1.2,1.2,0,0,1-1.16,1.23H3a1.19,1.19,0,0,1-1.15-1.23V13a4.23,4.23,0,0,1,.21-1.34Z"/><path class="eaab08ea-fd9c-49a1-8c67-eed9f7cef619" d="M8.75,10.13v1.51H2.05A3.86,3.86,0,0,1,5.67,8.91H7.59A1.19,1.19,0,0,1,8.75,10.13Z"/><line class="f3b54f4a-d9b5-4276-939e-7ef6ced16b0d" x1="2.05" y1="11.64" x2="0.5" y2="11.64"/><polyline class="f3b54f4a-d9b5-4276-939e-7ef6ced16b0d" points="28.62 11.64 22.92 5.82 19.98 6.73 18.31 11.64"/></svg>