<?xml version="1.0" encoding="UTF-8"?>
<!DOCTYPE svg PUBLIC "-//W3C//DTD SVG 1.1//EN" "http://www.w3.org/Graphics/SVG/1.1/DTD/svg11.dtd">
<!-- Creator: CorelDRAW X8 -->
<svg xmlns="http://www.w3.org/2000/svg" xml:space="preserve" width="64px" height="64px" version="1.1" style="shape-rendering:geometricPrecision; text-rendering:geometricPrecision; image-rendering:optimizeQuality; fill-rule:evenodd; clip-rule:evenodd"
viewBox="0 0 6400 6400"
 xmlns:xlink="http://www.w3.org/1999/xlink">
 <defs>
  <style type="text/css">
   <![CDATA[
    .str0 {stroke:#FFAB1D;stroke-width:90.0011}
    .fil0 {fill:none}
    .fil3 {fill:none;fill-rule:nonzero}
    .fil5 {fill:#FFAB1D}
    .fil2 {fill:#FFE5BD}
    .fil4 {fill:#FFAB1D;fill-rule:nonzero}
    .fil1 {fill:#FFAB1D;fill-rule:nonzero}
   ]]>
  </style>
 </defs>
 <g id="Слой_x0020_1">
  <metadata id="CorelCorpID_0Corel-Layer"/>
  <g id="_2140400878784">
   <rect class="fil0" width="6400" height="6400"/>
   <g>
    <path class="fil1" d="M3354 2905l-1428 1903 -208 -156 1429 -1903 104 -52 103 208zm-207 -156c43,-58 124,-69 182,-26 57,43 68,125 25,182l-207 -156zm1634 208l-1530 0 0 -260 1530 0 57 13 -57 247zm0 -260c72,0 130,58 130,130 0,72 -58,130 -130,130l0 -260zm1431 980l-1488 -734 114 -233 1489 734 72 116 -187 117zm115 -233c64,32 91,110 59,174 -31,64 -109,91 -174,59l115 -233zm-187 778l0 -662 259 0 0 662 -57 108 -202 -108zm259 0c0,72 -58,130 -129,130 -72,0 -130,-58 -130,-130l259 0zm-683 213l482 -321 144 216 -483 322 -143 -217z"/>
   </g>
   <g>
    <path class="fil1" d="M1 3200c0,-72 58,-130 130,-130 71,0 129,58 129,130l-259 0zm710 448l0 260 -39 -1 -38 -2 -38 -4 -37 -5 -36 -7 -35 -8 -34 -10 -34 -12 -33 -13 -31 -15 -31 -16 -29 -18 -28 -19 -27 -20 -26 -22 -24 -24 -23 -25 -22 -26 -20 -27 -19 -28 -17 -29 -16 -31 -14 -31 -12 -32 -11 -33 -10 -34 -8 -34 -6 -35 -6 -36 -3 -36 -2 -37 -1 -38 259 0 1 28 1 26 3 26 4 25 4 23 5 23 7 22 6 21 8 20 9 19 9 18 11 17 11 17 11 16 12 14 13 15 14 13 15 12 16 12 16 11 17 11 19 10 19 8 20 9 21 7 22 6 24 6 24 5 26 4 26 2 28 2 29 0zm0 0c72,0 130,59 130,130 0,72 -58,130 -130,130l0 -260z"/>
   </g>
   <path class="fil2" d="M3495 5500c0,163 -132,295 -295,295 -163,0 -295,-132 -295,-295 0,-163 132,-295 295,-295 163,0 295,132 295,295zm-1673 -770l-1111 0c304,9 547,258 547,564 0,311 -252,563 -564,563 -93,0 -182,-23 -259,-63l823 476 1942 0 1942 0 824 -476c-78,40 -166,63 -260,63 -248,0 -458,-159 -534,-380l-285 -747 -1687 0 -1378 0zm239 619c84,0 151,68 151,151 0,83 -67,151 -151,151 -83,0 -151,-68 -151,-151 0,-83 68,-151 151,-151zm2127 151c0,-83 67,-151 151,-151 83,0 151,68 151,151 0,83 -68,151 -151,151 -84,0 -151,-68 -151,-151z"/>
   <g>
    <path class="fil3 str0" d="M694 4730c-311,0 -563,252 -563,564 0,311 252,563 563,563 312,0 564,-252 564,-563 0,-312 -252,-564 -564,-564z"/>
   </g>
   <g>
    <path class="fil1" d="M4887 4600c71,0 129,58 129,130 0,72 -58,130 -129,130l0 -260zm-1687 0l1687 0 0 260 -1687 0 0 0 0 -260zm0 260c-72,0 -130,-58 -130,-130 0,-72 58,-130 130,-130l0 260zm-2506 -260l2506 0 0 260 -2506 0 0 -260zm0 260c-71,0 -130,-58 -130,-130 0,-72 59,-130 130,-130l0 260zm-368 1021c-63,-36 -84,-115 -48,-177 36,-63 115,-84 177,-48l-129 225zm867 501l-867 -501 129 -225 868 501 -65 243 -65 -18zm130 -225c62,36 84,115 48,178 -36,62 -115,83 -178,47l130 -225zm1877 243l-1942 0 0 -260 1942 0 0 0 0 260zm0 -260c72,0 130,58 130,130 0,71 -58,130 -130,130l0 -260zm1942 260l-1942 0 0 -260 1942 0 65 242 -65 18zm0 -260c72,0 130,58 130,130 0,71 -58,130 -130,130l0 -260zm933 -259l-868 501 -130 -225 868 -501 130 225zm-130 -225c62,-36 142,-15 178,48 35,62 14,141 -48,177l-130 -225z"/>
   </g>
   <g>
    <path class="fil3 str0" d="M5706 4730c311,0 564,252 564,564 0,311 -253,563 -564,563 -311,0 -564,-252 -564,-563 0,-312 253,-564 564,-564z"/>
   </g>
   <g>
    <polygon class="fil1" points="5138,3472 6179,4789 5976,4950 4934,3633 "/>
   </g>
   <g>
    <polygon class="fil1" points="5051,5523 4451,3956 4694,3864 5294,5430 "/>
   </g>
   <g>
    <path class="fil1" d="M2536 2697l1454 0 0 260 -1454 0 -129 -130 129 -130zm0 260c-71,0 -129,-58 -129,-130 0,-72 58,-130 129,-130l0 260zm130 -672l0 542 -259 0 0 -542 129 -130 130 130zm-259 0c0,-72 58,-130 129,-130 72,0 130,58 130,130l-259 0zm1583 130l-1454 0 0 -260 1454 0 130 130 -130 130zm0 -260c72,0 130,58 130,130 0,72 -58,130 -130,130l0 -260zm-129 672l0 -542 259 0 0 542 -130 130 -129 -130zm259 0c0,72 -58,130 -130,130 -71,0 -129,-58 -129,-130l259 0z"/>
   </g>
   <g>
    <polygon class="fil1" points="2406,3778 2406,2827 2666,2827 2666,3778 "/>
   </g>
   <path class="fil2" d="M4774 3406l-922 0c-162,0 -295,133 -295,295 0,163 132,296 295,296l922 0c-160,-5 -288,-135 -288,-296 0,-160 128,-291 288,-295z"/>
   <g>
    <path class="fil1" d="M3852 3276l929 0 0 260 -929 0 0 0 0 -260zm-165 425l-260 0 0 0 1 -22 1 -21 3 -21 4 -21 5 -21 5 -20 7 -20 8 -19 8 -19 10 -19 10 -17 11 -17 12 -17 13 -16 13 -15 14 -15 15 -14 15 -13 16 -13 16 -12 18 -11 18 -10 18 -10 19 -8 19 -8 20 -6 20 -6 21 -5 20 -4 22 -2 21 -2 22 -1 0 260 -9 1 -8 0 -8 1 -8 2 -8 1 -8 3 -7 2 -8 3 -7 4 -7 3 -7 4 -7 4 -6 5 -6 5 -7 5 -5 6 -6 6 -5 6 -5 6 -5 6 -4 7 -4 7 -4 7 -3 7 -3 8 -2 7 -3 8 -2 8 -1 8 -1 8 -1 9 0 8 0 0zm165 166l0 259 0 0 -22 0 -21 -2 -22 -3 -21 -3 -20 -5 -20 -6 -20 -7 -20 -8 -19 -8 -17 -9 -18 -10 -18 -12 -17 -12 -15 -12 -16 -13 -14 -15 -14 -14 -14 -16 -13 -16 -11 -17 -11 -17 -10 -17 -10 -18 -8 -20 -8 -19 -7 -20 -5 -20 -5 -20 -4 -21 -3 -21 -1 -22 -1 -22 260 0 0 9 1 8 1 8 2 8 1 9 2 7 3 8 3 8 3 6 4 7 4 8 4 6 5 7 5 6 5 6 6 6 5 5 6 6 7 5 6 4 7 5 6 3 8 4 8 4 6 2 8 3 8 2 8 2 8 2 8 1 8 0 9 1 0 0zm929 259l-929 0 0 -259 929 0 0 259z"/>
   </g>
   <g>
    <path class="fil4" d="M4356 3701l0 0 1 -21 2 -22 2 -21 4 -21 5 -21 5 -19 7 -21 8 -19 8 -19 10 -18 10 -18 11 -17 12 -17 12 -16 14 -16 14 -14 14 -14 16 -14 16 -13 17 -11 16 -11 18 -10 19 -10 19 -9 19 -7 20 -7 20 -5 21 -5 21 -4 21 -2 21 -2 22 -1 0 260 -8 0 -9 1 -8 1 -8 2 -8 1 -8 2 -8 3 -8 3 -6 3 -7 4 -7 4 -7 4 -7 5 -6 5 -5 5 -7 6 -5 5 -5 6 -5 7 -5 6 -4 7 -4 7 -4 7 -3 7 -3 7 -2 8 -3 8 -1 8 -2 8 -1 8 -1 9 0 8 0 0 -260 0zm425 425l0 0 -22 0 -21 -2 -21 -2 -21 -4 -21 -5 -20 -6 -20 -6 -19 -8 -19 -9 -19 -9 -18 -10 -16 -11 -17 -12 -16 -13 -16 -13 -14 -14 -15 -15 -13 -15 -12 -16 -12 -17 -11 -17 -10 -18 -10 -18 -8 -19 -8 -20 -7 -20 -5 -20 -5 -20 -4 -21 -2 -21 -2 -22 -1 -22 260 0 0 9 1 8 1 9 2 8 1 8 3 8 2 7 3 8 3 7 4 7 4 7 4 7 5 6 5 7 5 6 5 5 6 6 6 5 6 4 7 5 7 5 7 4 7 3 6 3 8 3 8 3 8 2 8 2 8 1 8 2 9 0 8 1 0 0 0 259zm425 -425l0 0 0 22 -2 22 -3 21 -3 21 -5 20 -6 21 -7 19 -7 20 -9 19 -9 18 -11 18 -10 17 -12 17 -13 16 -13 15 -14 15 -15 14 -15 13 -17 13 -16 12 -17 11 -18 10 -18 9 -19 9 -20 8 -19 6 -21 6 -20 5 -21 4 -21 2 -22 2 -22 0 0 -259 9 -1 8 0 9 -2 8 -1 8 -2 8 -2 7 -3 8 -3 7 -3 7 -3 6 -4 8 -5 6 -4 6 -5 7 -6 5 -5 5 -5 6 -7 5 -6 4 -6 5 -7 4 -7 3 -7 3 -7 3 -8 3 -7 2 -8 2 -8 1 -8 2 -9 0 -8 0 -9 0 0 260 0zm-425 -425l0 0 22 1 22 2 21 2 21 4 20 5 21 5 19 7 20 7 19 9 18 10 18 10 17 11 16 12 17 12 15 14 15 14 14 14 13 16 13 16 12 17 10 17 11 17 9 19 9 19 7 19 7 20 6 20 5 21 3 21 3 21 2 22 0 21 -260 0 0 -8 0 -9 -2 -8 -1 -8 -2 -8 -2 -8 -3 -8 -3 -7 -3 -7 -3 -7 -4 -7 -5 -7 -4 -7 -5 -6 -5 -6 -6 -5 -6 -6 -6 -5 -6 -5 -6 -4 -8 -5 -6 -4 -7 -4 -7 -3 -8 -3 -7 -2 -8 -3 -8 -1 -8 -2 -9 -1 -8 -1 -9 0 0 0 0 -260z"/>
   </g>
   <g>
    <path class="fil1" d="M2536 3648c72,0 130,59 130,130 0,72 -58,130 -130,130l0 -260zm-1825 0l1825 0 0 260 -1825 0 -130 -130 130 -130zm-130 130l0 -130 130 0 -130 130zm0 952l0 -952 260 0 0 952 -260 0zm260 0c0,72 -58,130 -130,130 -72,0 -130,-58 -130,-130l260 0z"/>
   </g>
   <g>
    <path class="fil4" d="M2775 5500l0 0 1 -22 1 -22 3 -21 4 -21 4 -20 6 -20 7 -20 7 -19 9 -19 10 -19 10 -18 11 -17 11 -16 13 -17 14 -15 14 -15 14 -14 16 -13 16 -13 17 -12 16 -10 18 -11 19 -9 19 -9 19 -7 20 -7 20 -6 20 -5 22 -3 21 -3 21 -2 22 0 0 260 -9 0 -8 0 -8 2 -8 1 -8 2 -8 2 -8 3 -7 3 -7 3 -7 3 -7 4 -8 5 -6 4 -6 5 -6 6 -6 5 -5 6 -5 6 -5 6 -5 6 -4 8 -4 6 -4 7 -3 7 -3 8 -3 8 -2 7 -2 8 -1 9 -1 8 -1 8 0 9 0 0 -260 0zm425 425l0 0 -22 -1 -21 -1 -21 -3 -22 -4 -20 -5 -20 -5 -20 -7 -19 -7 -19 -9 -19 -10 -18 -10 -16 -11 -17 -11 -16 -13 -15 -13 -15 -15 -15 -15 -13 -15 -13 -16 -11 -17 -11 -16 -10 -18 -10 -19 -9 -19 -7 -19 -7 -20 -6 -20 -4 -20 -4 -22 -3 -21 -1 -21 -1 -22 260 0 0 8 1 9 1 8 1 8 2 8 2 8 3 8 3 7 3 7 4 7 4 7 4 8 5 6 5 6 5 6 5 6 6 5 6 5 6 5 6 5 8 4 7 4 7 4 7 3 7 3 8 3 8 2 8 2 8 1 8 1 8 1 9 0 0 0 0 260zm425 -425l0 0 0 22 -2 21 -3 21 -4 22 -4 20 -6 20 -7 20 -7 19 -9 19 -9 19 -11 18 -10 16 -12 17 -13 16 -13 15 -14 15 -15 15 -15 13 -17 13 -17 11 -16 11 -18 10 -19 10 -19 9 -19 7 -20 7 -20 5 -20 5 -21 4 -21 3 -22 1 -22 1 0 -260 9 0 8 -1 9 -1 7 -1 9 -2 7 -2 8 -3 8 -3 7 -3 6 -4 7 -4 8 -4 6 -5 6 -5 6 -5 6 -5 5 -6 6 -6 4 -6 5 -6 4 -8 5 -7 3 -7 3 -7 3 -7 3 -8 2 -8 2 -8 1 -8 1 -8 1 -9 0 -8 0 0 260 0zm-425 -425l0 0 22 0 22 2 21 3 21 3 20 5 20 6 20 7 19 7 19 9 19 9 18 11 16 10 17 12 17 13 15 13 15 14 14 15 13 15 13 17 12 16 10 17 11 18 9 19 9 19 7 19 7 20 6 20 4 20 4 21 3 21 2 22 0 22 -260 0 0 -9 -1 -8 -1 -8 -1 -9 -2 -8 -2 -7 -3 -8 -3 -8 -3 -7 -3 -7 -5 -6 -4 -8 -5 -6 -4 -6 -6 -6 -5 -6 -6 -5 -6 -6 -6 -5 -6 -4 -8 -5 -7 -4 -6 -3 -7 -3 -8 -3 -8 -3 -7 -2 -9 -2 -7 -1 -9 -2 -8 0 -9 0 0 0 0 -260z"/>
   </g>
   <path class="fil5" d="M2061 5349c-83,0 -151,67 -151,151 0,83 68,151 151,151 84,0 151,-68 151,-151 0,-84 -67,-151 -151,-151z"/>
   <path class="fil5" d="M4339 5349c-83,0 -151,67 -151,151 0,83 68,151 151,151 83,0 151,-68 151,-151 0,-84 -68,-151 -151,-151z"/>
   <g>
    <path class="fil1" d="M204 3308c-60,40 -141,24 -181,-35 -40,-60 -25,-140 35,-181l146 216zm2592 -1755l-2592 1755 -146 -216 2593 -1754 145 215zm-145 -215c59,-41 140,-25 180,34 40,60 25,141 -35,181l-145 -215zm1412 -643l-1267 858 -145 -215 1267 -858 145 215zm-145 -215c59,-40 140,-25 180,35 40,59 25,140 -35,180l-145 -215z"/>
   </g>
   <g>
    <path class="fil1" d="M2765 457l1225 0 0 261 -1225 0 0 0 0 -261zm-359 -98l261 0 0 0 0 5 0 6 1 4 1 5 1 4 1 5 2 5 2 4 1 4 3 5 2 4 3 4 3 4 2 4 3 3 4 4 3 3 4 3 4 3 3 3 5 2 4 3 4 2 4 2 4 2 5 1 5 1 4 2 4 0 5 1 6 0 5 0 0 261 -19 -1 -17 -1 -19 -3 -18 -3 -17 -4 -17 -5 -17 -5 -16 -7 -16 -7 -16 -8 -15 -9 -14 -9 -14 -10 -14 -11 -13 -11 -12 -12 -12 -12 -11 -13 -11 -14 -10 -14 -9 -15 -9 -14 -7 -16 -8 -16 -6 -16 -6 -16 -5 -17 -4 -18 -3 -18 -2 -18 -1 -18 -1 -18 0 0zm130 0l0 0 0 0 0 0 -130 0 130 0zm229 -358l0 260 0 0 -5 0 -6 0 -5 1 -4 1 -4 1 -5 1 -5 2 -4 1 -4 2 -4 2 -4 3 -5 3 -3 2 -4 3 -4 3 -3 3 -3 4 -4 4 -2 3 -4 5 -2 3 -2 4 -3 5 -1 4 -2 4 -2 5 -1 5 -1 4 -1 5 -1 4 0 6 0 5 -261 0 1 -18 1 -18 2 -18 3 -18 5 -18 4 -17 6 -16 6 -16 8 -16 7 -15 9 -16 10 -14 9 -14 11 -14 11 -12 12 -13 13 -12 12 -11 14 -11 14 -10 14 -9 15 -8 16 -9 16 -7 16 -6 17 -6 17 -5 17 -4 18 -3 19 -2 17 -2 19 0 0 0zm1225 260l-1225 0 0 -260 1225 0 131 130 -131 130zm0 -260c72,0 131,58 131,130 0,72 -59,130 -131,130l0 -260zm-130 586l0 -456 261 0 0 456 -131 131 -130 -131zm261 0c0,72 -59,131 -131,131 -72,0 -130,-59 -130,-131l261 0z"/>
   </g>
  </g>
 </g>
</svg>
