<?xml version="1.0" encoding="UTF-8"?>
<!DOCTYPE svg PUBLIC "-//W3C//DTD SVG 1.1//EN" "http://www.w3.org/Graphics/SVG/1.1/DTD/svg11.dtd">
<!-- Creator: CorelDRAW X8 -->
<svg xmlns="http://www.w3.org/2000/svg" xml:space="preserve" width="64px" height="64px" version="1.1" style="shape-rendering:geometricPrecision; text-rendering:geometricPrecision; image-rendering:optimizeQuality; fill-rule:evenodd; clip-rule:evenodd"
viewBox="0 0 6400 6400"
 xmlns:xlink="http://www.w3.org/1999/xlink">
 <defs>
  <style type="text/css">
   <![CDATA[
    .str0 {stroke:#FFAB1D;stroke-width:90.0011}
    .fil0 {fill:none}
    .fil3 {fill:none;fill-rule:nonzero}
    .fil2 {fill:#FFE5BD}
    .fil1 {fill:#FFAB1D;fill-rule:nonzero}
   ]]>
  </style>
 </defs>
 <g id="Слой_x0020_1">
  <metadata id="CorelCorpID_0Corel-Layer"/>
  <g id="_2140403787664">
   <rect class="fil0" width="6400" height="6400"/>
   <g>
    <path class="fil1" d="M1053 176c-25,-67 9,-142 77,-167 67,-25 142,9 167,76l-244 91zm1133 3035l-1133 -3035 244 -91 1133 3035 -244 91zm244 -91c25,67 -10,142 -77,167 -67,25 -142,-9 -167,-76l244 -91z"/>
   </g>
   <g>
    <path class="fil1" d="M4597 3035l1314 0 0 260 -1314 0 -131 -130 131 -130zm0 260l-131 0 0 -130 131 130zm130 -755l0 625 -261 0 0 -625 131 -130 130 130zm-261 0l0 -130 131 0 -131 130zm1445 130l-1314 0 0 -260 1314 0 131 130 -131 130zm0 -260l131 0 0 130 -131 -130zm-130 755l0 -625 261 0 0 625 -131 130 -130 -130zm261 0l0 130 -131 0 131 -130z"/>
   </g>
   <g>
    <path class="fil2" d="M4423 2540l1662 0c101,0 185,-83 185,-185l0 -575 -2032 0 0 575c0,102 83,185 185,185z"/>
    <path id="1" class="fil1" d="M6085 2670l-1662 0 0 -260 1662 0 0 0 0 260zm55 -315l259 0 0 0 0 16 -1 16 -2 16 -3 16 -4 14 -4 15 -5 15 -6 14 -6 14 -7 14 -8 13 -8 13 -8 12 -10 12 -10 12 -10 10 -11 11 -12 10 -11 9 -12 9 -13 8 -13 8 -14 7 -14 6 -14 6 -15 5 -15 4 -15 3 -16 3 -16 2 -16 1 -15 1 0 -260 2 0 3 0 3 -1 2 0 3 -1 3 0 2 -1 3 -1 3 -1 2 -1 2 -2 2 -1 2 -2 3 -2 2 -1 1 -2 3 -3 2 -2 1 -1 2 -3 1 -2 2 -2 1 -3 1 -2 1 -3 1 -2 1 -3 0 -3 1 -2 0 -3 0 -2 0 -3 0 0zm259 -575l0 575 -259 0 0 -575 130 -130 129 130zm-259 0c0,-72 58,-130 130,-130 71,0 129,58 129,130l-259 0zm-1902 -130l2032 0 0 260 -2032 0 -129 -130 129 -130zm0 260c-71,0 -129,-58 -129,-130 0,-72 58,-130 129,-130l0 260zm-129 445l0 -575 259 0 0 575 0 0 -259 0zm314 55l0 260 0 0 -16 -1 -16 -1 -16 -2 -15 -3 -15 -3 -15 -4 -15 -5 -14 -6 -14 -6 -14 -7 -13 -8 -13 -8 -12 -9 -11 -9 -12 -10 -11 -11 -10 -10 -10 -12 -10 -12 -8 -12 -8 -13 -8 -13 -7 -14 -7 -14 -5 -14 -5 -15 -4 -15 -4 -14 -3 -16 -2 -16 -1 -16 0 -16 259 0 0 3 0 2 0 3 1 2 0 3 1 3 1 2 1 3 1 2 1 3 1 2 2 2 2 3 1 1 2 2 2 3 2 2 2 1 2 2 3 2 2 1 2 2 2 1 3 1 2 1 3 1 3 0 3 1 2 0 2 1 3 0 3 0 0 0z"/>
   </g>
   <g>
    <polygon class="fil1" points="4876,1780 4876,2540 4615,2540 4615,1780 "/>
   </g>
   <g>
    <polygon class="fil1" points="5384,1780 5384,2540 5123,2540 5123,1780 "/>
   </g>
   <g>
    <polygon class="fil1" points="5908,1780 5908,2540 5647,2540 5647,1780 "/>
   </g>
   <g>
    <path class="fil1" d="M1175 261l-816 0 0 -260 816 0 122 84 -122 176zm0 -260c72,0 130,58 130,130 0,72 -58,130 -130,130l0 -260zm49 632l-171 -457 244 -91 170 457 -121 175 -122 -84zm243 -91c25,67 -9,142 -76,167 -67,25 -142,-9 -167,-76l243 -91zm-1108 -84l987 0 0 259 -987 0 0 0 0 -259zm-358 -99l260 0 0 0 0 5 0 6 1 4 1 5 1 5 1 4 1 4 2 5 2 4 3 5 2 4 2 4 3 4 3 4 3 3 3 3 4 4 4 3 3 3 5 3 4 3 3 2 5 2 4 2 5 2 4 1 5 1 5 2 4 0 4 1 6 0 5 1 0 259 -18 0 -18 -1 -18 -3 -18 -3 -17 -4 -18 -5 -16 -5 -16 -7 -16 -7 -16 -8 -15 -9 -15 -9 -13 -10 -14 -11 -13 -11 -12 -11 -12 -13 -11 -13 -11 -14 -10 -13 -9 -15 -9 -15 -8 -15 -7 -16 -6 -16 -6 -17 -5 -18 -4 -17 -3 -17 -3 -19 -1 -17 0 -19 0 0zm260 0l0 0 -260 0 0 0 0 0 260 0zm98 -358l0 260 0 0 -5 0 -6 0 -5 1 -4 1 -4 1 -5 1 -5 2 -4 2 -4 1 -5 3 -4 2 -4 3 -4 3 -4 2 -3 3 -4 4 -3 3 -3 4 -3 3 -3 4 -2 5 -3 3 -2 5 -2 4 -1 4 -2 5 -1 5 -2 4 0 5 -1 4 0 6 0 5 -260 0 0 -18 1 -18 3 -18 3 -18 4 -18 5 -17 6 -16 6 -16 7 -16 8 -16 9 -15 9 -14 10 -14 11 -14 11 -13 12 -12 12 -12 13 -11 14 -11 14 -10 14 -9 15 -9 15 -8 17 -7 16 -6 16 -6 17 -5 18 -4 18 -3 18 -2 18 -2 18 0 0 0z"/>
   </g>
   <g>
    <path class="fil1" d="M4998 5243c72,0 130,58 130,130 0,71 -58,130 -130,130l0 -260zm-369 0l369 0 0 260 -369 0 0 0 0 -260zm-23 283l-260 0 0 0 0 -15 1 -14 2 -14 3 -14 3 -14 4 -14 5 -13 4 -12 6 -13 7 -13 7 -11 7 -11 8 -11 8 -11 9 -10 9 -10 10 -10 11 -8 10 -9 11 -7 11 -7 12 -7 12 -7 13 -6 12 -5 13 -4 15 -4 13 -3 14 -3 15 -2 13 -1 15 0 0 260 -1 0 -1 0 -1 0 -1 0 -1 0 0 0 -2 1 -1 0 -1 1 0 0 -2 1 -1 1 -1 0 -1 1 -1 1 -1 1 -1 0 0 2 -1 1 -1 1 -1 1 -1 1 0 1 0 0 -1 2 0 1 0 0 -1 1 0 2 0 0 0 2 0 1 0 0zm-260 153l0 -153 260 0 0 153 -260 0zm260 0c0,72 -58,130 -130,130 -72,0 -130,-58 -130,-130l260 0z"/>
   </g>
   <g>
    <path class="fil1" d="M5503 4998c0,72 -58,130 -130,130 -72,0 -130,-58 -130,-130l260 0zm0 -369l0 369 -260 0 0 -369 0 0 260 0zm-283 -23l0 -260 0 0 15 0 13 1 15 2 14 3 13 3 15 4 12 4 13 6 13 6 12 6 11 6 13 8 10 8 10 7 12 11 9 9 9 9 8 10 9 11 8 11 7 11 7 11 6 13 6 13 5 13 5 12 4 14 3 14 3 14 1 14 1 14 1 15 -260 0 0 -1 0 -2 0 0 0 -1 -1 -1 0 0 0 -2 -1 -2 0 0 0 0 -1 -2 -1 -2 -1 0 0 -1 -1 -1 -2 -2 -1 -1 1 1 -2 -1 -2 -2 0 0 -1 0 -2 -1 0 -1 -1 0 -2 -1 0 0 -1 0 -1 0 -1 0 -1 0 -1 0 0 0zm-153 -260l153 0 0 260 -153 0 0 -260zm0 260c-72,0 -130,-58 -130,-130 0,-72 58,-130 130,-130l0 260z"/>
   </g>
   <g>
    <path class="fil1" d="M5730 5200c-51,51 -133,51 -184,0 -51,-51 -51,-133 0,-184l184 184zm261 -261l-261 261 -184 -184 261 -261 184 184zm-184 -217l184 -183 0 0 10 10 9 11 9 12 8 11 8 12 6 12 6 13 6 13 5 13 4 13 3 13 3 14 2 13 2 13 1 13 0 14 0 13 -1 14 -2 13 -2 13 -3 13 -3 14 -4 13 -5 13 -6 13 -6 12 -6 12 -8 12 -8 12 -9 11 -9 12 -10 10 -184 -184 1 -1 0 0 1 -1 1 -1 0 0 1 -2 0 -1 1 -1 0 -1 0 -1 1 -1 0 -1 0 -1 0 -2 0 -1 0 -1 0 -1 0 -1 0 -3 0 -1 0 -1 -1 -1 0 -1 0 -1 -1 -1 0 0 -1 -2 0 0 -1 -2 -1 0 0 0 -1 -2 0 0zm76 -291l108 108 -184 183 -108 -108 184 -183zm-184 183c-51,-50 -51,-133 0,-183 51,-51 133,-51 184,0l-184 183z"/>
   </g>
   <g>
    <path class="fil1" d="M5747 5503c-71,0 -129,-59 -129,-130 0,-72 58,-130 129,-130l0 260zm370 0l-370 0 0 -260 370 0 0 0 0 260zm23 -283l260 0 0 0 -1 15 -1 13 -2 15 -2 14 -3 13 -5 15 -4 12 -5 12 -6 13 -6 13 -7 12 -7 10 -8 12 -9 11 -9 10 -9 9 -10 10 -10 9 -10 8 -11 7 -12 8 -12 7 -12 6 -12 6 -13 5 -13 5 -14 4 -14 3 -13 2 -15 2 -14 1 -14 1 0 -260 0 0 2 0 0 0 2 -1 1 0 1 0 1 0 0 -1 2 0 1 -1 1 -1 0 0 2 -1 1 -1 1 -1 1 0 1 -1 1 -1 0 -1 0 -1 2 -2 0 -1 1 0 0 -1 1 -1 0 -2 0 0 0 -1 1 -1 0 -1 0 -1 0 -1 0 0zm260 -153l0 153 -260 0 0 -153 260 0zm-260 0c0,-72 58,-130 130,-130 71,0 130,58 130,130l-260 0z"/>
   </g>
   <g>
    <path class="fil1" d="M5546 5730c-51,-51 -51,-134 0,-184 50,-51 133,-51 184,0l-184 184zm261 261l-261 -261 184 -184 261 261 0 0 -184 184zm216 -184l184 184 0 0 -11 10 -10 9 -12 9 -12 8 -11 7 -12 7 -13 6 -14 6 -12 4 -12 4 -14 4 -14 3 -13 2 -13 2 -13 1 -15 0 -13 0 -12 -1 -15 -2 -13 -2 -13 -3 -13 -4 -13 -4 -13 -4 -13 -6 -13 -6 -11 -7 -13 -7 -11 -8 -12 -9 -11 -10 -10 -9 184 -184 1 1 1 1 0 0 1 0 0 1 2 1 1 0 1 0 0 1 2 0 1 0 1 1 1 0 1 0 2 0 2 0 0 0 1 0 2 0 1 0 2 -1 -1 0 2 0 2 -1 1 0 0 0 1 -1 2 -1 0 0 0 0 2 -2 0 0 0 0zm292 75l-108 109 -184 -184 109 -108 183 183zm-183 -183c50,-51 133,-51 183,0 51,50 51,133 0,183l-183 -183z"/>
   </g>
   <g>
    <path class="fil1" d="M5243 5748c0,-72 58,-130 130,-130 72,0 130,58 130,130l-260 0zm0 369l0 -369 260 0 0 369 0 0 -260 0zm283 23l0 260 0 0 -15 -1 -14 -1 -14 -2 -14 -2 -14 -3 -14 -5 -12 -4 -13 -5 -13 -6 -13 -6 -12 -8 -10 -6 -11 -8 -11 -9 -10 -9 -10 -9 -9 -10 -9 -10 -8 -10 -8 -11 -7 -11 -7 -12 -7 -13 -6 -13 -4 -12 -5 -13 -4 -14 -3 -14 -3 -13 -2 -15 -1 -14 0 -14 260 0 0 0 0 2 0 0 0 2 1 1 0 0 0 1 1 2 0 1 0 0 1 1 1 2 1 1 0 1 1 1 1 0 1 2 1 0 1 1 1 1 2 1 0 0 1 1 0 0 2 0 2 1 0 0 1 0 1 0 0 0 2 1 1 0 0 0zm153 260l-153 0 0 -260 153 0 0 260zm0 -260c71,0 129,58 129,130 0,71 -58,130 -129,130l0 -260z"/>
   </g>
   <g>
    <path class="fil1" d="M5016 5546c51,-51 133,-51 184,0 51,50 51,133 0,184l-184 -184zm-261 261l261 -261 184 184 -261 261 -184 -184zm184 216l-184 184 0 0 -10 -10 -9 -11 -10 -12 -7 -12 -7 -11 -7 -13 -7 -12 -5 -14 -5 -12 -4 -12 -4 -15 -2 -13 -3 -14 -1 -12 -1 -13 0 -15 0 -13 1 -12 1 -15 3 -13 3 -13 3 -13 4 -13 5 -13 6 -14 6 -12 6 -11 8 -13 8 -11 9 -12 9 -11 10 -10 184 184 -1 1 -1 0 0 1 -1 1 0 0 -1 2 -1 1 0 0 0 1 0 1 -1 1 0 2 0 1 0 1 0 2 -1 2 0 0 1 1 0 2 0 1 0 1 0 1 1 1 0 2 0 0 1 1 0 1 1 1 1 1 0 0 1 1 1 1 0 0zm-76 292l-108 -108 184 -184 108 109 -184 183zm184 -183c51,50 51,133 0,183 -51,51 -133,51 -184,0l184 -183z"/>
   </g>
   <g>
    <path class="fil3 str0" d="M5373 4998c207,0 374,168 374,375 0,207 -167,375 -374,375 -207,0 -375,-168 -375,-375 0,-207 168,-375 375,-375z"/>
   </g>
   <g>
    <path class="fil1" d="M3359 5574c-71,0 -130,-58 -130,-130 0,-71 59,-129 130,-129l0 259zm682 0l-682 0 0 -259 682 0 130 129 -130 130zm0 -259c72,0 130,58 130,129 0,72 -58,130 -130,130l0 -259zm130 -739l0 868 -260 0 0 -868 45 -98 215 98zm-260 0c0,-71 59,-129 130,-129 72,0 130,58 130,129l-260 0zm872 -468l-657 567 -170 -197 657 -567 85 -32 85 229zm-170 -197c54,-47 137,-41 183,13 47,55 41,137 -13,184l-170 -197zm742 228l-657 0 0 -260 657 0 0 0 0 260zm0 -260c72,0 130,59 130,130 0,72 -58,130 -130,130l0 -260zm556 260l-556 0 0 -260 556 0 130 130 -130 130zm0 -260c72,0 130,59 130,130 0,72 -58,130 -130,130l0 -260zm130 -283l0 413 -260 0 0 -413 0 0 260 0zm-260 0c0,-72 58,-130 130,-130 72,0 130,58 130,130l-260 0zm260 -431l0 431 -260 0 0 -431 130 -130 130 130zm-260 0c0,-72 58,-130 130,-130 72,0 130,58 130,130l-260 0zm-426 -130l556 0 0 260 -556 0 0 0 0 -260zm0 260c-71,0 -130,-58 -130,-130 0,-72 59,-130 130,-130l0 260zm-3047 -260l3047 0 0 260 -3047 0 -130 -130 130 -130zm0 260c-72,0 -130,-58 -130,-130 0,-72 58,-130 130,-130l0 260zm-130 419l0 -549 260 0 0 549 -260 0zm260 0c0,71 -59,130 -130,130 -72,0 -130,-59 -130,-130l260 0z"/>
   </g>
   <g>
    <polygon class="fil1" points="4387,4261 5190,5021 5011,5210 4209,4450 "/>
   </g>
   <path class="fil2" d="M1317 4422c-50,86 -88,179 -114,276l-171 0 0 593 171 0c26,97 64,190 114,275l-121 121 419 418 121 -120c85,50 178,88 275,114l0 171 593 0 0 -171c97,-26 190,-64 276,-114l120 120 419 -418 -121 -121c50,-85 88,-178 114,-275l171 0 0 -593 -170 0c-26,-97 -65,-190 -115,-276l121 -120 -419 -419 -121 121c-85,-50 -178,-88 -275,-114l0 -171 -593 0 0 171c-97,26 -190,64 -275,114l-121 -121 -419 419 121 120zm472 572c0,-286 232,-518 519,-518 286,0 518,232 518,518 0,287 -232,519 -518,519 -287,0 -519,-232 -519,-519z"/>
   <g>
    <path class="fil1" d="M2604 3849l-592 0 0 -260 592 0 130 130 -130 130zm0 -260c71,0 130,58 130,130 0,72 -59,130 -130,130l0 -260zm-130 301l0 -171 260 0 0 171 -164 125 -96 -125zm260 0c0,71 -59,129 -130,129 -72,0 -130,-58 -130,-129l260 0zm54 22l183 184 -157 20 -7 -4 -7 -4 -7 -4 -7 -3 -8 -5 -7 -3 -8 -4 -7 -4 -6 -3 -9 -4 -7 -4 -7 -3 -8 -3 -7 -4 -8 -3 -8 -3 -8 -3 -8 -4 -7 -2 -7 -3 -8 -3 -8 -3 -7 -3 -9 -3 -8 -2 -8 -3 -7 -2 -8 -3 -8 -2 -9 -3 -8 -2 -8 -2 67 -251 11 3 10 3 9 3 11 3 10 3 10 3 11 3 9 4 9 3 10 3 11 4 9 4 10 3 10 4 10 4 9 4 10 4 9 4 10 4 9 4 10 5 9 5 9 4 10 4 9 5 9 5 9 5 9 4 9 5 10 6 9 5 9 5 -157 20zm157 -20c62,36 83,115 47,177 -36,62 -116,83 -178,47l131 -224zm147 83l-121 121 -183 -184 120 -120 184 0 0 183zm-184 -183c51,-51 133,-51 184,0 51,50 51,132 0,183l-184 -183zm419 602l-419 -419 184 -183 419 418 0 184 -184 0zm184 -184c50,51 50,133 0,184 -51,50 -133,50 -184,0l184 -184zm-305 121l121 -121 184 184 -121 120 -204 -27 20 -156zm184 183c-51,51 -133,51 -184,0 -50,-51 -50,-133 0,-183l184 183zm23 54l0 260 -126 -96 -2 -8 -2 -8 -3 -8 -2 -9 -3 -8 -2 -7 -3 -8 -2 -8 -3 -8 -3 -8 -3 -8 -2 -8 -3 -8 -3 -7 -3 -7 -4 -8 -3 -8 -3 -8 -4 -7 -3 -8 -3 -7 -4 -8 -3 -7 -4 -7 -3 -7 -5 -8 -3 -8 -4 -7 -4 -7 -4 -7 -4 -7 -4 -8 225 -130 5 9 5 9 5 10 5 9 5 9 4 9 5 8 5 10 4 10 5 9 4 9 5 10 4 9 4 10 4 9 4 10 4 9 4 10 4 10 4 10 3 9 4 10 3 11 4 9 3 10 3 10 4 11 3 9 3 10 2 10 3 10 3 11 -125 -97zm125 97c19,69 -23,140 -92,159 -69,18 -141,-23 -159,-92l251 -67zm45 163l-170 0 0 -260 170 0 130 130 -130 130zm0 -260c72,0 130,59 130,130 0,72 -58,130 -130,130l0 -260zm-130 722l0 -592 260 0 0 592 -130 130 -130 -130zm260 0c0,72 -58,130 -130,130 -72,0 -130,-58 -130,-130l260 0zm-301 -130l171 0 0 260 -171 0 -125 -163 125 -97zm0 260c-71,0 -130,-58 -130,-130 0,-71 59,-130 130,-130l0 260zm-22 54l-184 184 -20 -157 4 -8 4 -7 4 -6 4 -8 4 -7 3 -7 4 -8 4 -7 3 -7 4 -8 4 -8 3 -6 3 -8 4 -8 3 -7 3 -8 3 -8 3 -7 3 -8 3 -8 3 -8 3 -8 3 -7 2 -8 3 -8 3 -8 2 -7 3 -9 2 -8 2 -8 3 -8 2 -8 251 67 -3 10 -3 10 -3 10 -3 10 -3 10 -3 11 -3 10 -3 9 -4 10 -3 10 -4 10 -4 10 -3 9 -4 10 -4 10 -4 10 -4 9 -4 10 -4 9 -4 9 -5 11 -5 9 -4 8 -4 10 -6 10 -4 9 -5 9 -4 9 -5 9 -5 10 -6 9 -5 8 -20 -157zm20 157c-36,62 -115,83 -177,47 -62,-36 -83,-115 -47,-177l224 130zm-83 147l-121 -120 184 -184 121 121 0 183 -184 0zm184 -183c50,51 50,133 0,183 -51,51 -133,51 -184,0l184 -183zm-603 419l419 -419 184 183 -419 419 -184 0 0 -183zm184 183c-51,51 -133,51 -184,0 -50,-50 -50,-133 0,-183l184 183zm-121 -304l121 121 -184 183 -120 -120 27 -204 156 20zm-183 184c-51,-51 -51,-133 0,-184 51,-50 133,-50 183,0l-183 184zm-54 22l-260 0 96 -125 8 -2 8 -3 9 -2 8 -2 8 -3 7 -2 8 -3 8 -3 9 -2 6 -3 9 -3 8 -3 7 -3 8 -3 7 -3 8 -3 8 -3 8 -4 8 -3 7 -3 7 -3 8 -4 8 -4 6 -3 7 -4 9 -4 7 -4 7 -3 7 -4 7 -4 7 -4 8 -4 130 224 -9 5 -9 6 -10 5 -8 4 -10 5 -9 5 -9 5 -9 4 -10 5 -9 4 -9 5 -10 4 -10 5 -9 4 -9 4 -10 4 -9 4 -10 4 -10 4 -10 3 -9 4 -10 3 -11 4 -9 4 -10 3 -10 3 -10 3 -10 3 -11 3 -9 3 -10 3 -11 3 97 -126zm-97 126c-69,18 -140,-23 -159,-92 -18,-70 23,-141 92,-159l67 251zm-163 45l0 -171 260 0 0 171 -130 130 -130 -130zm260 0c0,71 -59,130 -130,130 -72,0 -130,-59 -130,-130l260 0zm-722 -130l592 0 0 260 -592 0 -130 -130 130 -130zm0 260c-72,0 -130,-59 -130,-130 0,-72 58,-130 130,-130l0 260zm129 -301l0 171 -259 0 0 -171 163 -125 96 125zm-259 0c0,-72 58,-130 130,-130 71,0 129,58 129,130l-259 0zm-54 -23l-184 -183 157 -21 8 5 7 4 6 3 7 4 8 4 7 4 8 4 7 4 7 3 8 4 8 3 6 4 8 3 8 3 7 4 8 3 8 3 7 3 8 3 8 3 8 3 8 3 7 2 8 3 8 3 8 3 8 2 8 2 8 3 8 2 8 2 8 3 -67 250 -10 -2 -10 -3 -10 -3 -10 -3 -10 -3 -11 -3 -10 -4 -9 -3 -10 -3 -11 -4 -9 -3 -10 -4 -9 -4 -10 -3 -11 -5 -9 -3 -9 -4 -10 -5 -9 -4 -9 -4 -11 -4 -9 -5 -8 -4 -10 -5 -10 -5 -9 -4 -9 -5 -9 -5 -9 -4 -10 -6 -9 -5 -8 -5 157 -21zm-157 21c-62,-36 -83,-115 -47,-177 35,-62 115,-84 177,-48l-130 225zm-148 -83l121 -121 184 183 -121 121 -184 0 0 -183zm184 183c-51,51 -133,51 -184,0 -50,-50 -50,-133 0,-183l184 183zm-419 -602l419 419 -184 183 -418 -419 0 -183 183 0zm-183 183c-51,-50 -51,-132 0,-183 50,-51 133,-51 183,0l-183 183zm304 -120l-121 120 -183 -183 120 -121 204 27 -20 157zm-184 -184c51,-50 133,-50 184,0 50,51 51,133 0,184l-184 -184zm-22 -54l0 -260 125 97 2 8 3 8 2 8 2 8 3 9 2 7 3 8 3 8 2 7 3 8 3 8 3 8 3 8 3 8 3 8 3 7 3 8 3 7 4 8 3 8 3 7 4 7 3 7 4 8 4 8 4 7 3 7 5 8 3 7 4 6 4 8 4 7 -224 130 -6 -9 -5 -8 -5 -10 -5 -9 -4 -9 -5 -9 -5 -10 -4 -9 -5 -9 -5 -9 -4 -10 -5 -10 -4 -9 -4 -9 -4 -10 -4 -9 -4 -10 -4 -10 -4 -10 -3 -9 -4 -10 -4 -10 -3 -9 -4 -11 -3 -9 -3 -10 -3 -11 -3 -10 -3 -10 -3 -10 -3 -10 -3 -10 126 96zm-126 -96c-18,-69 23,-141 92,-159 69,-19 141,23 159,92l-251 67zm-45 -164l171 0 0 260 -171 0 -130 -130 130 -130zm0 260c-71,0 -130,-58 -130,-130 0,-71 59,-130 130,-130l0 260zm130 -722l0 592 -260 0 0 -592 130 -130 130 130zm-260 0c0,-71 59,-130 130,-130 72,0 130,59 130,130l-260 0zm301 130l-171 0 0 -260 171 0 125 164 -125 96zm0 -260c71,0 130,59 130,130 0,72 -59,130 -130,130l0 -260zm22 -54l184 -183 20 156 -4 8 -4 7 -4 7 -3 7 -5 7 -3 8 -4 7 -4 8 -4 7 -3 7 -3 7 -4 8 -3 8 -4 7 -3 8 -3 8 -3 7 -3 8 -3 7 -3 8 -3 8 -3 8 -3 8 -2 8 -3 8 -3 8 -2 8 -3 8 -2 8 -2 8 -3 8 -2 8 -251 -68 3 -10 3 -10 3 -10 3 -10 3 -10 3 -10 3 -10 4 -10 3 -10 4 -10 3 -10 4 -9 3 -10 4 -10 4 -9 4 -10 4 -10 4 -9 4 -10 5 -9 4 -9 4 -9 5 -11 5 -9 4 -9 5 -9 5 -9 4 -9 5 -9 5 -10 5 -9 6 -9 20 157zm-20 -157c36,-62 115,-83 177,-47 62,36 83,115 47,177l-224 -130zm83 -147l121 121 -184 183 -120 -120 0 -184 183 0zm-183 184c-51,-51 -51,-133 0,-184 50,-51 133,-51 183,0l-183 184zm602 -419l-419 419 -183 -184 418 -418 184 0 0 183zm-184 -183c51,-51 133,-51 184,0 51,50 51,132 0,183l-184 -183zm121 304l-121 -121 184 -183 121 120 -27 204 -157 -20zm184 -184c50,51 50,133 0,184 -51,50 -133,50 -184,0l184 -184zm54 -22l259 0 -96 125 -8 2 -8 2 -8 3 -8 2 -8 3 -8 2 -7 3 -8 2 -9 3 -8 3 -7 3 -8 3 -8 3 -7 2 -8 4 -8 3 -8 3 -7 3 -8 4 -8 3 -6 3 -8 4 -8 4 -7 3 -7 4 -8 4 -7 3 -8 5 -7 3 -6 4 -7 4 -8 4 -130 -224 8 -5 9 -5 10 -6 9 -5 9 -4 9 -5 9 -5 10 -5 10 -4 8 -4 9 -5 11 -5 9 -4 9 -4 10 -4 9 -4 9 -4 10 -4 11 -4 9 -3 10 -4 10 -4 10 -3 9 -3 10 -4 10 -3 11 -3 10 -3 10 -3 10 -3 10 -3 10 -3 -96 126zm96 -126c69,-18 141,23 159,92 18,69 -23,141 -92,159l-67 -251zm163 -45l0 171 -259 0 0 -171 130 -130 129 130zm-259 0c0,-72 58,-130 130,-130 71,0 129,58 129,130l-259 0z"/>
   </g>
   <g>
    <path class="fil3 str0" d="M2307 4476c-286,0 -518,232 -518,518 0,287 232,519 518,519 287,0 519,-232 519,-519 0,-286 -232,-518 -519,-518z"/>
   </g>
  </g>
 </g>
</svg>
