<?xml version="1.0" encoding="UTF-8"?>
<!DOCTYPE svg PUBLIC "-//W3C//DTD SVG 1.1//EN" "http://www.w3.org/Graphics/SVG/1.1/DTD/svg11.dtd">
<!-- Creator: CorelDRAW X8 -->
<svg xmlns="http://www.w3.org/2000/svg" xml:space="preserve" width="64px" height="64px" version="1.1" style="shape-rendering:geometricPrecision; text-rendering:geometricPrecision; image-rendering:optimizeQuality; fill-rule:evenodd; clip-rule:evenodd"
viewBox="0 0 6400 6400"
 xmlns:xlink="http://www.w3.org/1999/xlink">
 <defs>
  <style type="text/css">
   <![CDATA[
    .str0 {stroke:#FFAB1D;stroke-width:90.0011}
    .fil0 {fill:none}
    .fil3 {fill:none;fill-rule:nonzero}
    .fil2 {fill:#FFE5BD}
    .fil1 {fill:#FFAB1D;fill-rule:nonzero}
   ]]>
  </style>
 </defs>
 <g id="Слой_x0020_1">
  <metadata id="CorelCorpID_0Corel-Layer"/>
  <g id="_2140403791760">
   <rect class="fil0" width="6400" height="6400"/>
   <g>
    <path class="fil1" d="M5797 2091c47,54 42,136 -12,183 -53,48 -135,43 -183,-11l195 -172zm-1318 -1490l1318 1490 -195 172 -1318 -1490 195 -172zm-195 172c-48,-53 -43,-136 11,-183 54,-48 136,-43 184,11l-195 172z"/>
   </g>
   <g>
    <path class="fil1" d="M4381 557c72,0 130,59 130,130 0,72 -58,130 -130,130l0 -260zm-1181 0l1181 0 0 260 -1181 0 -130 -130 130 -130zm0 260c-72,0 -130,-58 -130,-130 0,-71 58,-130 130,-130l0 260zm-130 2912l0 -3042 260 0 0 3042 -260 0zm260 0c0,72 -58,130 -130,130 -72,0 -130,-58 -130,-130l260 0z"/>
   </g>
   <g>
    <path class="fil1" d="M3200 2028c72,0 130,58 130,130 0,72 -58,130 -130,130l0 -260zm-3069 0l3069 0 0 260 -3069 0 -130 -130 130 -130zm0 260c-72,0 -130,-58 -130,-130 0,-72 58,-130 130,-130l0 260zm-130 1441l0 -1571 260 0 0 1571 -44 97 -216 -97zm260 0c0,72 -59,130 -130,130 -72,0 -130,-58 -130,-130l260 0zm585 -465l-629 562 -173 -194 629 -562 86 -33 87 227zm-173 -194c53,-47 135,-43 183,11 48,53 43,135 -10,183l-173 -194zm1391 225l-1305 2 0 -260 1304 -2 87 33 -86 227zm-1 -260c72,0 130,58 130,130 1,71 -58,130 -129,130l-1 -260zm544 791l-630 -564 173 -194 631 564 -87 227 -87 -33zm174 -194c53,48 58,130 10,184 -48,53 -130,58 -184,10l174 -194zm925 227l-1012 0 0 -260 1012 0 87 227 -87 33zm0 -260c72,0 130,58 130,130 0,72 -58,130 -130,130l0 -260zm717 -337l-630 564 -173 -194 630 -564 87 -33 86 227zm-173 -194c54,-48 136,-43 184,10 47,54 43,136 -11,184l-173 -194zm1262 227l-1175 0 0 -260 1175 0 0 0 0 260zm0 -260c71,0 129,58 129,130 0,72 -58,130 -129,130l0 -260zm758 260l-758 0 0 -260 758 0 130 130 -130 130zm0 -260c71,0 130,58 130,130 0,72 -59,130 -130,130l0 -260zm130 -858l0 988 -260 0 0 -988 130 -130 130 130zm-260 0c0,-72 58,-130 130,-130 71,0 130,58 130,130l-260 0zm-2940 -130l3070 0 0 260 -3070 0 -130 -130 130 -130zm0 260c-72,0 -130,-58 -130,-130 0,-72 58,-130 130,-130l0 260zm-130 399l0 -529 260 0 0 529 -260 0zm260 0c0,72 -58,130 -130,130 -72,0 -130,-58 -130,-130l260 0z"/>
   </g>
   <polygon class="fil2" points="3200,687 131,687 131,2158 3200,2158 "/>
   <polygon class="fil2" points="131,687 3200,687 2708,131 1665,131 623,131 "/>
   <g>
    <path class="fil1" d="M1665 261c-71,0 -130,-59 -130,-130 0,-72 59,-130 130,-130l0 260zm1043 0l-1043 0 0 -260 1043 0 97 44 -97 216zm0 -260c71,0 130,58 130,130 0,71 -59,130 -130,130l0 -260zm395 772l-493 -556 195 -172 492 556 33 86 -227 86zm194 -172c48,54 43,136 -11,184 -54,47 -136,42 -183,-12l194 -172zm-227 1557l0 -1471 260 0 0 1471 -130 130 -130 -130zm260 0c0,72 -58,130 -130,130 -72,0 -130,-58 -130,-130l260 0zm-1665 -130l1535 0 0 260 -1535 0 0 -260zm0 260c-71,0 -130,-58 -130,-130 0,-72 59,-130 130,-130l0 260z"/>
   </g>
   <g>
    <path class="fil1" d="M3200 817l0 -260c72,0 130,59 130,130 0,72 -58,130 -130,130zm-3069 0l0 -260 3069 0 0 260 -3069 0zm0 -260l0 260c-72,0 -130,-58 -130,-130 0,-71 58,-130 130,-130z"/>
   </g>
   <path class="fil2" d="M2098 3883l-120 121c-86,-50 -178,-88 -276,-114l0 -171 -592 0 0 171c-98,26 -190,64 -276,114l-120 -121 -419 419 120 120c-49,86 -88,179 -114,276l-170 0 0 593 170 0c26,97 65,190 114,275l-120 121 419 418 120 -120c86,50 178,88 276,114l0 171 592 0 0 -171c98,-26 190,-64 276,-114l120 120 419 -418 -121 -121c50,-85 89,-178 115,-275l170 0 0 -593 -170 0c-26,-97 -65,-190 -114,-276l120 -120 -419 -419zm-692 593c286,0 518,232 518,518 0,287 -232,519 -518,519 -287,0 -519,-232 -519,-519 0,-286 232,-518 519,-518z"/>
   <g>
    <path class="fil1" d="M1702 3849l-592 0 0 -260 592 0 130 130 -130 130zm0 -260c72,0 130,58 130,130 0,72 -58,130 -130,130l0 -260zm-130 301l0 -171 260 0 0 171 -163 125 -97 -125zm260 0c0,71 -58,129 -130,129 -72,0 -130,-58 -130,-129l260 0zm54 22l183 184 -157 20 -7 -4 -7 -4 -7 -4 -7 -4 -7 -4 -8 -3 -7 -4 -7 -4 -8 -4 -8 -3 -7 -4 -7 -3 -8 -3 -7 -4 -8 -3 -8 -3 -7 -3 -7 -3 -8 -3 -8 -4 -8 -2 -8 -3 -7 -3 -8 -3 -9 -2 -7 -3 -8 -2 -8 -3 -8 -2 -8 -3 -9 -2 -7 -2 66 -251 11 3 10 3 10 3 10 3 9 3 11 3 10 3 10 3 10 4 10 3 10 4 10 4 9 3 9 4 11 4 10 4 9 4 9 4 10 4 9 4 10 5 10 4 9 5 9 4 9 5 9 5 10 5 9 4 8 5 10 5 9 6 9 5 -157 20zm157 -20c62,35 83,115 47,177 -36,62 -116,83 -178,47l131 -224zm147 83l-121 121 -183 -184 121 -121 183 0 0 184zm-183 -184c50,-50 132,-50 183,0 51,51 51,133 0,184l-183 -184zm418 603l-419 -419 184 -184 419 419 0 184 -184 0zm184 -184c51,51 50,133 0,184 -51,50 -133,50 -184,0l184 -184zm-304 121l120 -121 184 184 -121 120 -204 -27 21 -156zm183 183c-50,51 -132,51 -183,0 -51,-50 -51,-133 0,-183l183 183zm23 54l0 260 -126 -96 -2 -8 -2 -8 -2 -8 -3 -9 -2 -8 -3 -7 -2 -8 -3 -8 -3 -8 -2 -8 -3 -8 -3 -8 -3 -8 -3 -7 -3 -7 -3 -8 -4 -8 -3 -8 -3 -7 -4 -8 -3 -7 -3 -8 -4 -7 -4 -7 -3 -8 -4 -7 -4 -8 -4 -7 -4 -7 -3 -7 -5 -7 -4 -8 225 -130 5 9 5 9 5 10 5 9 5 9 5 9 5 9 4 9 5 9 4 10 5 9 4 10 4 9 4 10 4 9 5 10 3 9 5 10 3 10 4 10 3 9 4 10 4 11 3 9 3 10 4 10 3 11 3 9 3 10 3 10 3 10 2 11 -125 -97zm125 97c19,69 -22,140 -92,159 -69,18 -140,-23 -159,-92l251 -67zm45 163l-170 0 0 -260 170 0 130 130 -130 130zm0 -260c72,0 130,59 130,130 0,72 -58,130 -130,130l0 -260zm-130 722l0 -592 260 0 0 592 -130 130 -130 -130zm260 0c0,72 -58,130 -130,130 -71,0 -130,-58 -130,-130l260 0zm-300 -130l170 0 0 260 -170 0 -126 -163 126 -97zm0 260c-72,0 -130,-58 -130,-130 0,-71 58,-130 130,-130l0 260zm-23 54l-184 184 -20 -157 4 -8 4 -7 4 -6 4 -8 4 -7 3 -7 5 -8 3 -7 3 -7 4 -8 4 -8 3 -6 3 -8 4 -8 3 -7 3 -8 4 -8 3 -8 3 -7 3 -8 3 -8 2 -7 3 -8 3 -9 3 -8 2 -7 2 -7 3 -9 2 -8 3 -8 2 -8 2 -8 251 67 -3 10 -3 10 -2 10 -3 10 -3 10 -4 11 -3 10 -3 10 -4 9 -3 10 -4 10 -3 10 -4 9 -4 10 -4 10 -4 10 -4 9 -4 10 -4 9 -4 9 -5 11 -4 9 -4 8 -5 10 -5 10 -5 9 -4 9 -5 9 -5 9 -5 10 -5 9 -5 8 -21 -157zm21 157c-36,62 -116,83 -178,47 -62,-36 -83,-115 -47,-177l225 130zm-84 147l-121 -120 184 -184 121 121 0 183 -184 0zm184 -183c50,51 50,133 0,183 -51,51 -133,51 -184,0l184 -183zm-603 419l419 -419 184 183 -419 419 -183 0 -1 -183zm184 183c-50,51 -133,51 -183,0 -51,-50 -51,-133 -1,-183l184 183zm-120 -304l120 121 -183 183 -121 -120 27 -204 157 20zm-184 184c-51,-51 -51,-133 0,-184 51,-50 133,-50 184,0l-184 184zm-54 22l-260 0 97 -125 7 -2 9 -3 8 -2 8 -2 8 -3 8 -2 7 -3 9 -3 8 -2 7 -3 8 -3 8 -3 8 -3 7 -3 8 -3 7 -3 8 -3 8 -3 7 -4 8 -3 7 -4 8 -3 8 -4 7 -3 7 -4 8 -4 7 -4 7 -4 8 -3 6 -4 8 -4 7 -4 130 224 -9 5 -9 5 -9 6 -10 5 -8 4 -10 5 -8 5 -10 4 -9 5 -10 4 -9 5 -10 4 -9 5 -10 4 -9 4 -9 4 -10 4 -10 4 -10 4 -10 3 -9 4 -10 4 -10 3 -10 4 -10 3 -10 3 -11 3 -9 3 -10 3 -10 3 -10 3 -11 3 97 -126zm-97 126c-69,18 -140,-23 -159,-92 -18,-70 23,-141 93,-159l66 251zm-163 45l0 -171 260 0 0 171 -130 130 -130 -130zm260 0c0,71 -58,130 -130,130 -72,0 -130,-59 -130,-130l260 0zm-722 -130l592 0 0 260 -592 0 -130 -130 130 -130zm0 260c-72,0 -130,-59 -130,-130 0,-72 58,-130 130,-130l0 260zm130 -301l0 171 -260 0 0 -171 163 -126 97 126zm-260 0c0,-72 58,-130 130,-130 72,0 130,58 130,130l-260 0zm-54 -23l-184 -183 157 -21 8 5 7 4 6 3 8 4 7 4 7 4 9 4 6 4 7 3 8 4 8 3 7 4 8 3 7 3 8 4 8 3 7 3 7 3 8 3 8 3 8 3 8 3 7 2 8 3 8 3 8 3 8 2 8 2 8 3 8 2 9 2 7 2 -67 252 -10 -3 -10 -3 -10 -3 -10 -3 -10 -3 -10 -3 -10 -4 -10 -3 -10 -3 -10 -4 -10 -3 -10 -4 -9 -4 -10 -3 -10 -4 -10 -4 -9 -4 -10 -5 -9 -4 -9 -4 -10 -4 -10 -5 -8 -4 -10 -5 -10 -5 -8 -4 -10 -5 -9 -5 -9 -4 -9 -6 -9 -5 -9 -5 157 -21zm-157 21c-62,-36 -83,-115 -47,-177 36,-62 115,-84 177,-48l-130 225zm-147 -83l120 -121 184 183 -121 121 -183 0 0 -183zm183 183c-50,51 -133,51 -183,0 -51,-50 -51,-133 0,-183l183 183zm-418 -602l418 419 -183 183 -419 -419 0 -183 184 0zm-184 183c-51,-50 -51,-132 0,-183 51,-51 133,-51 184,0l-184 183zm304 -120l-120 120 -184 -183 121 -121 204 27 -21 157zm-183 -184c50,-50 132,-50 183,0 51,51 51,133 0,184l-183 -184zm-23 -54l0 -260 126 97 2 8 2 8 2 8 3 8 2 9 2 7 3 8 3 8 3 8 2 7 3 8 3 8 3 8 3 8 3 7 3 8 3 8 4 7 3 8 3 8 4 7 3 7 4 8 3 7 4 7 4 8 4 7 4 8 4 7 3 6 5 8 4 7 -225 130 -5 -9 -5 -8 -6 -10 -4 -9 -5 -9 -5 -9 -4 -9 -5 -10 -5 -9 -4 -9 -5 -10 -4 -10 -4 -9 -4 -9 -5 -10 -4 -9 -4 -10 -4 -10 -3 -10 -4 -9 -4 -10 -3 -10 -4 -10 -3 -10 -3 -9 -4 -10 -3 -11 -3 -10 -3 -10 -3 -10 -3 -10 -3 -10 126 96zm-126 -96c-18,-70 23,-141 93,-159 69,-19 140,23 159,92l-252 67zm-44 -164l170 0 0 260 -170 0 -130 -130 130 -130zm0 260c-72,0 -130,-58 -130,-130 0,-71 58,-130 130,-130l0 260zm130 -722l0 592 -260 0 0 -592 130 -130 130 130zm-260 0c0,-71 58,-130 130,-130 71,0 130,59 130,130l-260 0zm300 130l-170 0 0 -260 170 0 125 164 -125 96zm0 -260c72,0 130,59 130,130 0,72 -58,130 -130,130l0 -260zm23 -54l183 -183 21 156 -4 8 -5 7 -3 7 -4 7 -4 7 -4 8 -4 7 -3 8 -4 7 -3 7 -4 7 -4 9 -3 7 -3 7 -4 8 -3 7 -3 9 -3 8 -3 6 -3 8 -3 8 -2 7 -3 9 -3 8 -3 8 -2 8 -3 8 -3 8 -2 8 -2 8 -2 8 -3 8 -250 -67 2 -11 3 -10 3 -10 3 -10 3 -10 3 -10 4 -10 3 -10 3 -9 4 -10 3 -11 4 -9 4 -10 4 -10 4 -10 3 -9 4 -10 5 -9 4 -10 4 -10 4 -8 4 -10 5 -10 5 -9 4 -9 5 -9 5 -9 5 -9 4 -9 6 -10 5 -9 5 -9 21 157zm-21 -157c36,-62 115,-83 177,-47 62,36 84,115 48,177l-225 -130zm84 -147l120 121 -183 183 -121 -120 0 -184 184 0zm-184 184c-51,-51 -51,-133 0,-184 51,-51 133,-51 184,0l-184 184zm602 -419l-418 419 -184 -184 419 -419 183 0 0 184zm-183 -184c50,-50 133,-50 183,0 51,51 51,133 0,184l-183 -184zm120 305l-120 -121 183 -184 121 121 -27 204 -157 -20zm184 -184c51,51 51,133 0,184 -51,50 -133,50 -184,0l184 -184zm54 -22l260 0 -97 125 -7 2 -9 2 -8 3 -8 2 -8 3 -8 2 -8 3 -8 2 -8 3 -7 3 -8 3 -8 2 -8 4 -8 3 -7 3 -7 3 -8 3 -8 3 -7 4 -8 3 -7 3 -8 4 -7 3 -8 4 -7 4 -8 4 -7 3 -7 4 -8 4 -6 4 -7 4 -8 4 -130 -224 9 -5 9 -6 9 -5 9 -5 9 -4 10 -5 9 -5 9 -5 9 -4 9 -5 10 -4 10 -5 9 -4 9 -4 10 -4 9 -4 10 -4 10 -4 10 -4 9 -3 10 -4 10 -4 10 -3 10 -4 10 -3 10 -3 10 -3 10 -3 10 -3 10 -3 10 -3 10 -3 -96 126zm96 -126c70,-18 141,23 159,92 19,69 -22,141 -92,159l-67 -251zm164 -45l0 171 -260 0 0 -171 130 -130 130 130zm-260 0c0,-72 58,-130 130,-130 72,0 130,58 130,130l-260 0z"/>
   </g>
   <g>
    <path class="fil3 str0" d="M1406 4476c-287,0 -519,232 -519,518 0,287 232,519 519,519 286,0 518,-232 518,-519 0,-286 -232,-518 -518,-518z"/>
   </g>
   <path class="fil2" d="M4004 4422c-50,86 -88,179 -115,276l-170 0 0 593 170 0c26,97 65,190 115,275l-121 121 419 418 121 -120c85,50 178,88 275,114l0 171 593 0 0 -171c97,-26 190,-64 275,-114l121 120 418 -418 -120 -121c50,-85 88,-178 114,-275l171 0 0 -593 -171 0c-26,-97 -64,-190 -114,-276l120 -120 -418 -419 -121 121c-85,-50 -178,-88 -275,-114l0 -171 -593 0 0 171c-97,26 -190,64 -275,114l-121 -121 -419 419 121 120zm472 572c0,-286 231,-518 518,-518 287,0 519,232 519,518 0,287 -232,519 -519,519 -287,0 -518,-232 -518,-519z"/>
   <g>
    <path class="fil1" d="M5290 3849l-592 0 0 -260 592 0 130 130 -130 130zm0 -260c72,0 130,58 130,130 0,72 -58,130 -130,130l0 -260zm-129 301l0 -171 259 0 0 171 -163 125 -96 -125zm259 0c0,71 -58,129 -130,129 -71,0 -129,-58 -129,-129l259 0zm54 22l184 184 -157 20 -8 -4 -7 -4 -6 -4 -8 -4 -7 -4 -7 -3 -8 -4 -7 -4 -8 -4 -7 -3 -8 -4 -6 -3 -8 -3 -8 -4 -7 -3 -8 -3 -8 -3 -7 -3 -8 -3 -8 -3 -8 -3 -8 -3 -7 -3 -8 -3 -8 -2 -8 -3 -8 -2 -8 -3 -8 -2 -8 -3 -8 -2 -8 -2 67 -251 11 3 9 3 10 3 10 3 10 3 11 3 10 3 9 3 10 4 11 3 9 4 10 3 10 4 9 4 10 4 10 4 9 4 10 4 9 4 9 4 11 5 9 4 9 5 9 4 10 5 9 5 9 5 9 4 9 5 10 5 9 6 8 5 -157 20zm157 -20c62,35 83,115 47,177 -36,62 -115,83 -177,47l130 -224zm147 83l-120 121 -184 -184 121 -121 183 0 0 184zm-183 -184c51,-50 133,-50 183,0 51,51 51,133 0,184l-183 -184zm419 603l-419 -419 183 -184 419 419 0 184 -183 0zm183 -184c51,51 51,133 0,184 -50,50 -133,50 -183,0l183 -184zm-304 121l121 -121 183 184 -120 120 -204 -27 20 -156zm184 183c-51,51 -133,51 -184,0 -50,-51 -50,-133 0,-183l184 183zm22 54l0 260 -125 -96 -2 -8 -3 -8 -2 -8 -2 -9 -3 -8 -2 -7 -3 -8 -3 -8 -2 -8 -3 -8 -3 -8 -3 -8 -3 -8 -3 -7 -3 -7 -3 -8 -3 -8 -3 -8 -4 -7 -3 -8 -4 -7 -3 -8 -4 -7 -3 -7 -4 -7 -4 -8 -4 -8 -4 -7 -3 -7 -4 -7 -4 -7 -4 -8 224 -130 5 9 5 9 6 10 5 9 4 9 5 9 5 8 4 10 5 10 4 9 5 9 4 10 5 9 4 10 4 9 4 10 4 9 4 10 4 10 3 10 4 9 4 10 3 11 4 9 3 10 3 10 3 11 3 9 3 10 3 10 3 10 3 11 -126 -97zm126 97c18,69 -23,140 -92,159 -70,18 -141,-23 -159,-92l251 -67zm45 163l-171 0 0 -260 171 0 130 130 -130 130zm0 -260c71,0 130,59 130,130 0,72 -59,130 -130,130l0 -260zm-130 722l0 -592 260 0 0 592 -130 130 -130 -130zm260 0c0,72 -59,130 -130,130 -72,0 -130,-58 -130,-130l260 0zm-301 -130l171 0 0 260 -171 0 -126 -163 126 -97zm0 260c-72,0 -130,-58 -130,-130 0,-71 58,-130 130,-130l0 260zm-23 54l-183 184 -21 -157 5 -8 4 -7 3 -6 4 -8 4 -7 4 -7 4 -8 4 -7 3 -7 4 -8 3 -8 4 -6 3 -8 3 -8 4 -7 3 -8 3 -8 3 -7 3 -8 3 -8 3 -8 3 -8 2 -7 3 -8 3 -8 3 -8 2 -7 2 -9 3 -8 2 -8 2 -8 2 -8 252 67 -3 10 -3 10 -3 10 -3 10 -3 10 -3 11 -4 10 -3 9 -3 10 -4 10 -3 10 -4 10 -4 9 -3 10 -4 10 -4 10 -4 9 -5 10 -4 9 -4 9 -4 11 -5 9 -4 8 -5 10 -5 10 -4 9 -5 9 -5 9 -4 9 -6 10 -5 9 -5 8 -21 -157zm21 157c-36,62 -115,83 -177,47 -62,-36 -84,-115 -48,-177l225 130zm-83 147l-121 -120 183 -184 121 121 0 183 -183 0zm183 -183c51,51 51,133 0,183 -50,51 -133,51 -183,0l183 -183zm-602 419l419 -419 183 183 -419 419 -183 0 0 -183zm183 183c-50,51 -132,51 -183,0 -51,-50 -51,-133 0,-183l183 183zm-120 -304l121 121 -184 183 -121 -120 27 -204 157 20zm-184 184c-50,-51 -50,-133 1,-184 50,-51 133,-50 183,0l-184 184zm-54 22l-259 0 96 -125 8 -2 8 -3 8 -2 8 -2 8 -3 8 -2 8 -3 8 -3 8 -2 7 -3 8 -3 8 -3 8 -3 8 -3 7 -3 8 -3 7 -3 9 -4 7 -3 7 -3 7 -3 8 -4 8 -4 7 -3 7 -4 8 -4 7 -4 7 -3 8 -4 7 -4 7 -4 7 -4 130 224 -8 5 -10 6 -9 5 -9 4 -9 5 -9 5 -9 5 -9 4 -10 5 -9 4 -9 5 -10 4 -10 5 -9 4 -10 4 -9 4 -10 4 -10 4 -10 4 -9 3 -10 4 -9 3 -11 4 -10 4 -9 3 -10 3 -11 3 -10 3 -10 3 -10 3 -9 3 -11 3 96 -126zm-96 126c-69,18 -141,-23 -159,-92 -18,-70 23,-141 92,-159l67 251zm-163 45l0 -171 259 0 0 171 -130 130 -129 -130zm259 0c0,71 -58,130 -130,130 -71,0 -129,-59 -129,-130l259 0zm-722 -130l592 0 0 260 -592 0 -130 -130 130 -130zm0 260c-71,0 -130,-59 -130,-130 0,-72 59,-130 130,-130l0 260zm130 -301l0 171 -260 0 0 -171 164 -126 96 126zm-260 0c0,-72 59,-130 130,-130 72,0 130,58 130,130l-260 0zm-54 -23l-183 -183 157 -21 7 5 7 4 7 3 7 4 7 4 8 4 8 4 7 4 6 3 9 4 7 3 7 4 8 3 7 3 8 4 8 3 8 3 7 3 8 3 8 3 7 3 8 3 8 2 8 3 8 3 8 3 7 2 8 2 9 3 8 2 8 2 8 2 -67 252 -11 -3 -10 -3 -10 -3 -10 -3 -9 -3 -11 -3 -10 -4 -10 -3 -9 -3 -11 -4 -10 -3 -9 -4 -10 -4 -9 -3 -11 -4 -9 -4 -10 -4 -9 -5 -10 -4 -9 -4 -10 -4 -9 -5 -9 -4 -10 -5 -10 -5 -8 -4 -9 -5 -9 -5 -9 -4 -10 -6 -9 -5 -9 -5 157 -21zm-157 21c-62,-36 -83,-115 -47,-177 36,-62 116,-84 178,-48l-131 225zm-147 -83l121 -121 183 183 -120 121 -184 0 0 -183zm184 183c-51,51 -133,51 -184,0 -51,-50 -51,-133 0,-183l184 183zm-419 -602l419 419 -184 183 -419 -419 0 -183 184 0zm-184 183c-50,-50 -50,-132 1,-183 50,-51 132,-51 183,0l-184 183zm305 -120l-121 120 -184 -183 121 -121 204 27 -20 157zm-184 -184c50,-50 133,-50 183,0 51,51 51,133 1,184l-184 -184zm-23 -54l0 -260 126 97 2 8 2 8 3 8 2 8 3 9 2 7 3 8 2 8 3 8 3 7 2 8 3 8 3 8 3 8 3 7 3 8 4 8 3 7 3 8 4 8 3 7 4 7 3 7 4 8 4 8 3 7 4 7 4 8 4 7 4 6 4 8 4 7 -225 130 -5 -9 -5 -8 -5 -10 -5 -9 -5 -9 -5 -9 -4 -9 -5 -10 -4 -9 -5 -9 -4 -10 -5 -10 -4 -9 -4 -9 -4 -10 -4 -9 -4 -10 -4 -10 -4 -10 -4 -9 -3 -10 -4 -10 -3 -10 -4 -10 -3 -9 -3 -10 -4 -11 -3 -10 -3 -10 -2 -10 -3 -10 -3 -10 125 96zm-125 -96c-19,-70 23,-141 92,-159 69,-19 140,23 159,92l-251 67zm-45 -164l170 0 0 260 -170 0 -130 -130 130 -130zm0 260c-72,0 -130,-58 -130,-130 0,-71 58,-130 130,-130l0 260zm130 -722l0 592 -260 0 0 -592 130 -130 130 130zm-260 0c0,-71 58,-130 130,-130 72,0 130,59 130,130l-260 0zm300 130l-170 0 0 -260 170 0 126 164 -126 96zm0 -260c72,0 130,59 130,130 0,72 -58,130 -130,130l0 -260zm23 -54l184 -183 20 156 -4 8 -4 7 -4 7 -4 7 -4 7 -4 8 -3 7 -4 8 -4 7 -3 7 -3 7 -4 8 -3 8 -4 7 -3 8 -3 8 -3 7 -3 8 -3 7 -3 8 -4 8 -2 8 -3 8 -3 8 -2 8 -3 8 -3 8 -2 8 -2 8 -3 8 -2 8 -2 8 -251 -68 3 -10 3 -10 2 -10 4 -10 3 -10 3 -10 3 -10 3 -10 4 -10 3 -10 4 -10 3 -9 4 -10 4 -10 4 -9 4 -10 4 -10 4 -9 4 -10 4 -9 4 -9 5 -10 5 -10 4 -9 5 -9 4 -9 5 -9 5 -9 5 -9 5 -10 5 -9 5 -9 21 157zm-21 -157c36,-62 116,-83 178,-47 62,36 83,115 47,177l-225 -130zm84 -147l121 121 -184 183 -121 -120 0 -184 184 0zm-184 184c-50,-51 -50,-133 1,-184 50,-51 132,-51 183,0l-184 184zm603 -419l-419 419 -184 -184 419 -419 184 0 0 184zm-184 -184c51,-50 133,-50 184,0 50,51 50,133 0,184l-184 -184zm121 305l-121 -121 184 -184 120 121 -26 204 -157 -20zm183 -184c51,51 51,133 0,184 -50,50 -133,50 -183,0l183 -184zm54 -22l260 0 -96 125 -8 2 -8 2 -8 3 -9 2 -8 3 -7 2 -8 3 -8 2 -8 3 -8 3 -8 3 -7 2 -8 4 -8 3 -7 3 -8 3 -8 3 -8 3 -7 4 -8 3 -7 3 -7 4 -8 3 -7 4 -8 4 -7 4 -8 3 -7 4 -7 4 -7 4 -7 4 -7 4 -131 -224 9 -5 9 -6 10 -5 9 -5 9 -4 9 -5 9 -5 9 -5 9 -4 10 -5 9 -4 10 -5 9 -4 10 -4 9 -4 10 -4 9 -4 11 -4 9 -4 10 -3 9 -4 10 -4 11 -3 9 -4 10 -3 10 -3 11 -3 9 -3 10 -3 10 -3 10 -3 11 -3 -97 126zm97 -126c69,-18 140,23 159,92 18,69 -23,141 -92,159l-67 -251zm163 -45l0 171 -260 0 0 -171 130 -130 130 130zm-260 0c0,-72 59,-130 130,-130 72,0 130,58 130,130l-260 0z"/>
   </g>
   <g>
    <path class="fil3 str0" d="M4994 4476c-286,0 -518,232 -518,518 0,287 232,519 518,519 287,0 519,-232 519,-519 0,-286 -232,-518 -519,-518z"/>
   </g>
   <g>
    <path class="fil1" d="M1665 261l0 -260c72,0 130,58 130,130 0,71 -58,130 -130,130zm-1042 0l-97 -216 97 -44 1042 0 0 260 -1042 0zm0 -260l0 260c-72,0 -130,-59 -130,-130 0,-72 58,-130 130,-130zm-395 772l-227 -86 33 -86 492 -556 194 172 -492 556zm-194 -172l194 172c-47,54 -129,59 -183,12 -54,-48 -59,-130 -11,-184zm227 1557l-130 130 -130 -130 0 -1471 260 0 0 1471zm-260 0l260 0c0,72 -58,130 -130,130 -72,0 -130,-58 -130,-130zm1664 -130l0 260 -1534 0 0 -260 1534 0zm0 260l0 -260c72,0 130,58 130,130 0,72 -58,130 -130,130z"/>
   </g>
   <g>
    <path class="fil1" d="M4844 2085c51,51 51,133 0,184 -50,51 -133,51 -184,0l184 -184zm-528 -528l528 528 -184 184 -528 -529 0 -183 184 0zm-184 183c-51,-50 -51,-133 0,-183 51,-51 133,-51 184,0l-184 183zm384 -200l-200 200 -184 -183 200 -200 184 183zm-184 -183c51,-51 133,-51 184,0 51,50 51,133 0,183l-184 -183z"/>
   </g>
   <g>
    <path class="fil1" d="M4132 1557c51,-51 133,-51 184,0 51,50 51,133 0,183l-184 -183zm-194 194l194 -194 184 183 -194 195 -184 -184zm184 184c-51,51 -134,51 -184,0 -51,-51 -51,-133 0,-184l184 184z"/>
   </g>
   <g>
    <path class="fil1" d="M2209 3951c-37,61 -117,80 -178,43 -62,-37 -81,-117 -44,-178l222 135zm267 -438l-267 438 -222 -135 266 -438 223 135zm-223 -135c38,-61 118,-81 179,-44 61,38 81,118 44,179l-223 -135zm-1624 -211c0,-72 59,-130 130,-130 72,0 130,58 130,130l-260 0zm0 762l0 -762 260 0 0 762 -260 0zm260 0c0,71 -58,130 -130,130 -71,0 -130,-59 -130,-130l260 0z"/>
   </g>
   <g>
    <path class="fil1" d="M4191 3951l222 -135c37,61 18,141 -43,178 -62,37 -142,18 -179,-43zm-266 -438l222 -135 266 438 -222 135 -266 -438zm222 -135l-222 135c-37,-61 -18,-141 43,-179 61,-37 142,-17 179,44zm1624 -211l-260 0c0,-72 58,-130 130,-130 72,0 130,58 130,130zm0 762l-260 0 0 -762 260 0 0 762zm-260 0l260 0c0,71 -58,130 -130,130 -72,0 -130,-59 -130,-130z"/>
   </g>
  </g>
 </g>
</svg>
