<?xml version="1.0" encoding="UTF-8"?>
<!DOCTYPE svg PUBLIC "-//W3C//DTD SVG 1.1//EN" "http://www.w3.org/Graphics/SVG/1.1/DTD/svg11.dtd">
<!-- Creator: CorelDRAW X8 -->
<svg xmlns="http://www.w3.org/2000/svg" xml:space="preserve" width="64px" height="64px" version="1.1" style="shape-rendering:geometricPrecision; text-rendering:geometricPrecision; image-rendering:optimizeQuality; fill-rule:evenodd; clip-rule:evenodd"
viewBox="0 0 6400 6400"
 xmlns:xlink="http://www.w3.org/1999/xlink">
 <defs>
  <style type="text/css">
   <![CDATA[
    .str0 {stroke:#FFAB1D;stroke-width:90.0011}
    .fil0 {fill:none}
    .fil3 {fill:none;fill-rule:nonzero}
    .fil4 {fill:#FFE5BD}
    .fil1 {fill:#FFE5BD}
    .fil5 {fill:#FFAB1D;fill-rule:nonzero}
    .fil2 {fill:#FFAB1D;fill-rule:nonzero}
   ]]>
  </style>
 </defs>
 <g id="Слой_x0020_1">
  <metadata id="CorelCorpID_0Corel-Layer"/>
  <g id="_2140403785520">
   <rect class="fil0" width="6400" height="6400"/>
   <path class="fil1" d="M3346 5205l-1143 0 -516 0 -756 0c-144,0 -263,120 -263,264 0,145 118,264 263,264l756 0 527 0 1356 0 459 -528 836 -962 -147 -549 -1372 1511z"/>
   <g>
    <path class="fil2" d="M4622 3607c48,-53 131,-57 184,-9 53,48 57,131 8,184l-192 -175zm-1373 1511l1373 -1511 192 175 -1372 1511 -96 42 -97 -217zm193 175c-49,53 -131,57 -184,9 -53,-49 -57,-131 -9,-184l193 175zm-2511 -218l2415 0 0 260 -2415 0 0 0 0 -260zm-134 394l-259 0 0 0 0 -20 2 -20 2 -20 4 -19 4 -19 6 -19 6 -18 7 -18 8 -18 9 -16 9 -17 10 -16 11 -15 12 -15 13 -14 12 -14 14 -13 14 -12 15 -12 15 -11 16 -10 17 -9 17 -9 17 -8 18 -7 18 -7 19 -5 19 -4 20 -4 19 -2 20 -2 20 -1 0 260 -6 1 -7 0 -7 1 -6 1 -7 2 -6 1 -6 2 -6 3 -6 2 -6 4 -5 3 -6 3 -5 4 -5 4 -5 4 -5 5 -4 5 -5 5 -4 5 -4 5 -3 6 -3 5 -3 6 -3 6 -2 6 -3 7 -1 5 -2 7 -1 6 -1 7 0 6 -1 7 0 0zm-259 0l0 0 259 0 0 0 0 0 -259 0zm393 134l0 260 0 0 -20 -1 -20 -1 -20 -3 -19 -3 -19 -5 -19 -5 -18 -6 -19 -8 -16 -7 -17 -9 -17 -9 -16 -11 -15 -11 -15 -11 -15 -13 -13 -13 -13 -14 -12 -13 -12 -15 -11 -16 -10 -16 -10 -17 -8 -16 -8 -18 -7 -18 -6 -18 -6 -18 -4 -20 -4 -20 -2 -19 -2 -19 0 -21 259 0 1 7 0 7 1 7 1 6 2 6 1 6 3 7 2 6 3 6 3 6 3 5 3 6 4 5 4 4 4 6 5 5 5 4 4 4 6 4 5 4 5 3 6 4 6 3 6 3 6 2 6 2 6 2 6 1 7 1 6 1 7 1 7 0 0 0zm1283 260l-1283 0 0 -260 1283 0 0 0 0 260zm0 -260c72,0 130,58 130,130 0,72 -58,130 -130,130l0 -260zm1356 260l-1356 0 0 -260 1356 0 98 215 -98 45zm0 -260c72,0 130,58 130,130 0,72 -58,130 -130,130l0 -260zm557 -312l-459 527 -196 -170 459 -528 196 171zm-196 -171c47,-54 129,-60 183,-13 55,47 60,130 13,184l-196 -171zm1033 -792l-837 963 -196 -171 836 -962 197 170zm-197 -170c47,-54 130,-60 184,-13 54,47 60,129 13,183l-197 -170z"/>
   </g>
   <g>
    <path class="fil2" d="M931 6400l0 -260 0 0 28 -1 27 -2 27 -2 26 -4 26 -5 26 -5 25 -7 25 -8 25 -8 24 -10 23 -10 23 -11 23 -13 22 -13 21 -13 21 -15 21 -15 20 -16 19 -17 18 -18 18 -18 17 -19 17 -19 15 -20 15 -21 14 -21 14 -22 12 -23 12 -22 10 -24 10 -24 9 -24 246 86 -13 33 -13 34 -15 32 -17 32 -17 31 -18 30 -20 30 -21 29 -21 27 -23 27 -24 26 -25 26 -25 24 -27 23 -27 23 -28 21 -29 20 -30 19 -31 18 -31 17 -33 16 -32 14 -34 13 -34 12 -34 11 -36 9 -35 8 -36 7 -37 5 -37 4 -38 2 -38 1 0 0zm-930 -930l260 0 0 0 0 34 3 34 4 34 6 33 8 32 9 32 10 31 12 30 14 30 14 29 17 28 17 27 19 26 20 26 21 24 22 23 23 23 24 20 26 21 26 18 28 18 28 16 28 15 30 13 31 12 31 11 31 9 33 7 33 6 33 4 35 3 34 1 0 260 -47 -2 -48 -3 -46 -6 -46 -8 -45 -11 -44 -12 -44 -15 -42 -17 -41 -18 -40 -21 -40 -22 -37 -24 -37 -26 -35 -28 -33 -29 -33 -31 -31 -32 -29 -34 -27 -35 -26 -36 -25 -38 -22 -39 -21 -40 -18 -41 -17 -43 -14 -43 -13 -44 -10 -45 -9 -46 -5 -47 -4 -47 -1 -47 0 0zm930 -931l0 260 0 0 -34 0 -35 3 -33 4 -33 6 -33 8 -31 9 -32 10 -30 12 -29 14 -29 14 -29 17 -27 17 -26 19 -25 19 -25 22 -23 22 -22 23 -21 24 -20 26 -19 26 -17 27 -17 29 -14 29 -14 29 -12 30 -10 32 -9 31 -8 33 -6 33 -4 34 -3 34 0 35 -260 0 1 -48 4 -47 5 -47 9 -46 10 -45 13 -44 14 -44 17 -42 18 -41 21 -40 22 -39 25 -38 26 -36 27 -36 29 -34 31 -32 32 -31 34 -29 35 -27 37 -26 38 -25 39 -22 39 -21 42 -18 42 -17 44 -14 44 -13 45 -10 46 -9 46 -6 48 -3 47 -1 0 0zm879 624l-246 85 -8 -24 -11 -24 -10 -24 -12 -22 -12 -23 -14 -21 -14 -22 -15 -21 -16 -20 -16 -19 -17 -19 -18 -18 -18 -18 -20 -17 -19 -16 -21 -15 -21 -15 -21 -13 -22 -13 -23 -12 -23 -12 -23 -10 -24 -9 -25 -9 -25 -8 -25 -6 -26 -6 -26 -5 -26 -4 -27 -2 -27 -2 -28 0 0 -260 38 1 38 2 37 3 37 6 36 6 35 8 35 9 35 11 34 12 34 13 32 15 33 15 31 17 31 18 30 19 29 21 28 21 27 22 27 23 25 24 25 26 24 26 23 27 21 28 21 28 19 30 19 30 17 31 16 32 15 33 14 33 13 34z"/>
   </g>
   <g>
    <path class="fil2" d="M6400 5469l-260 0 0 0 -1 -33 -3 -33 -3 -32 -6 -31 -7 -32 -8 -30 -10 -30 -11 -29 -12 -29 -13 -28 -15 -27 -16 -26 -17 -26 -19 -25 -19 -24 -21 -23 -21 -22 -23 -21 -23 -20 -24 -19 -25 -17 -26 -17 -27 -15 -28 -15 -28 -12 -29 -12 -29 -11 -31 -8 -31 -8 -31 -6 -32 -5 -32 -3 19 -259 44 4 45 7 44 8 42 11 42 12 42 15 39 16 40 18 38 19 37 22 37 23 34 25 34 26 33 27 31 29 29 31 29 32 27 33 25 34 24 36 22 37 21 37 19 39 17 40 15 41 13 41 12 43 9 43 8 44 5 45 3 45 2 45 0 0zm-930 930l0 -260 0 0 34 0 34 -3 34 -4 33 -6 32 -8 32 -9 31 -10 30 -12 30 -14 29 -14 28 -17 27 -17 26 -19 26 -20 24 -21 23 -22 23 -23 20 -24 21 -26 18 -26 18 -27 16 -28 15 -29 13 -30 12 -30 11 -31 9 -32 7 -32 6 -34 4 -33 3 -34 1 -35 260 0 -2 48 -3 47 -6 47 -8 45 -11 45 -12 45 -15 43 -17 42 -18 42 -21 40 -22 39 -24 37 -26 37 -28 35 -29 34 -31 32 -32 31 -34 29 -35 27 -36 26 -38 25 -39 22 -40 21 -41 18 -43 17 -43 14 -44 13 -45 10 -46 9 -47 5 -47 4 -47 1 0 0zm-931 -930l260 0 0 0 1 35 2 34 4 33 6 34 8 32 9 32 10 31 12 30 14 30 15 29 16 28 17 27 19 26 20 26 21 24 22 23 23 22 25 21 25 20 26 19 28 17 28 17 28 14 30 14 31 12 31 10 31 9 33 8 33 6 34 4 34 3 35 0 0 260 -48 -1 -47 -3 -47 -6 -46 -9 -45 -10 -44 -13 -44 -14 -42 -17 -41 -18 -40 -21 -39 -22 -38 -25 -36 -26 -36 -27 -33 -29 -33 -31 -30 -32 -30 -34 -27 -35 -26 -37 -25 -37 -22 -39 -20 -40 -19 -42 -17 -42 -14 -43 -13 -44 -10 -46 -8 -45 -6 -47 -4 -47 -1 -48 0 0zm406 -769l147 215 -17 11 -16 12 -15 13 -16 13 -15 13 -14 14 -14 14 -14 15 -13 15 -13 16 -12 15 -12 17 -11 16 -11 17 -10 17 -10 18 -10 18 -8 18 -9 18 -7 19 -7 19 -7 20 -6 19 -6 20 -4 20 -4 20 -4 21 -3 21 -2 21 -2 21 -1 22 0 21 -260 0 0 -30 2 -29 2 -29 3 -30 4 -28 5 -29 6 -28 7 -28 7 -28 9 -27 9 -27 10 -26 10 -27 12 -25 12 -26 13 -25 14 -24 14 -24 15 -24 16 -22 16 -23 17 -22 18 -21 18 -21 19 -20 19 -20 20 -19 21 -19 21 -18 22 -17 22 -17 23 -16z"/>
   </g>
   <g>
    <polygon class="fil2" points="4286,554 5005,3235 4754,3303 4035,621 "/>
   </g>
   <g>
    <path class="fil1" d="M3428 131l1466 0c126,0 229,103 229,228l0 0c0,126 -103,228 -229,228l-1466 0c-125,0 -228,-102 -228,-228l0 0c0,-125 103,-228 228,-228z"/>
    <path id="1" class="fil2" d="M4894 261l-1466 0 0 -260 1466 0 0 0 0 260zm360 98l-262 0 0 0 -1 -5 0 -6 -1 -4 0 -5 -2 -5 -1 -4 -2 -5 -1 -4 -2 -4 -2 -4 -3 -5 -3 -4 -2 -4 -3 -4 -3 -3 -3 -3 -4 -4 -4 -3 -4 -3 -3 -3 -4 -2 -4 -3 -4 -2 -4 -2 -5 -2 -5 -1 -4 -1 -5 -1 -4 -1 -4 -1 -6 0 -5 0 0 -260 19 0 17 2 19 2 18 3 18 4 17 5 17 6 15 6 16 7 16 9 15 8 15 9 14 11 14 11 12 10 12 12 13 13 11 13 10 13 11 15 9 14 8 14 8 16 8 16 6 16 6 17 4 17 4 17 4 18 2 18 1 18 1 18 0 0zm-262 0l0 0 262 0 0 0 0 0 -262 0zm-98 358l0 -260 0 0 5 0 6 0 4 -1 4 0 5 -2 4 -1 5 -1 5 -2 3 -2 5 -2 4 -2 4 -3 4 -3 3 -3 4 -3 4 -3 2 -3 4 -4 3 -4 3 -4 2 -4 3 -4 2 -4 2 -4 1 -5 2 -5 1 -4 2 -5 0 -5 1 -4 0 -6 1 -5 262 0 -1 18 -1 18 -2 18 -4 18 -4 17 -4 17 -6 17 -6 16 -8 16 -8 16 -8 14 -10 15 -10 14 -10 13 -11 13 -12 13 -13 12 -13 11 -13 11 -14 10 -15 9 -15 9 -15 8 -17 7 -16 6 -16 6 -17 5 -18 4 -18 3 -19 3 -17 1 -19 0 0 0zm-1466 -260l1466 0 0 260 -1466 0 0 0 0 -260zm-359 -98l262 0 0 0 0 5 1 6 0 4 1 5 1 5 1 4 2 4 2 6 2 4 2 4 2 4 3 4 2 4 3 3 4 5 3 3 4 3 3 3 4 3 3 3 4 2 5 3 4 2 4 2 4 2 5 1 4 1 5 2 4 0 5 1 5 0 5 0 0 260 -18 0 -18 -1 -18 -3 -18 -3 -18 -4 -17 -5 -17 -6 -16 -6 -16 -7 -16 -9 -14 -8 -15 -9 -14 -10 -14 -11 -13 -11 -12 -12 -12 -13 -11 -12 -11 -14 -10 -14 -9 -15 -9 -14 -8 -16 -7 -16 -6 -16 -6 -17 -5 -17 -4 -17 -3 -18 -2 -18 -2 -18 0 -18 0 0zm262 0l0 0 -262 0 0 0 0 0 262 0zm97 -358l0 260 0 0 -5 0 -5 0 -5 1 -4 1 -5 1 -4 1 -4 1 -5 2 -5 2 -3 2 -5 3 -4 2 -3 3 -4 3 -3 3 -4 3 -3 4 -4 4 -3 3 -2 4 -3 4 -2 5 -2 3 -2 5 -2 5 -2 4 -1 4 -1 5 -1 5 0 4 -1 6 0 5 -262 0 0 -18 2 -18 2 -18 3 -18 4 -17 5 -17 6 -17 6 -16 7 -15 8 -17 9 -14 9 -14 10 -15 11 -14 11 -12 12 -13 12 -11 13 -11 14 -11 14 -11 15 -9 14 -8 16 -9 16 -7 16 -6 17 -6 17 -5 18 -4 18 -3 18 -2 18 -2 18 0 0 0z"/>
   </g>
   <g>
    <path class="fil2" d="M4713 3167l626 2334 -251 67 -626 -2334 125 -164 126 97zm-251 67c-19,-69 22,-141 92,-159 69,-19 140,22 159,92l-251 67zm672 97l-547 -1 0 -260 548 1 125 96 -126 164zm1 -260c71,0 129,58 129,130 0,72 -58,130 -130,130l1 -260zm462 2360l-588 -2197 251 -67 589 2197 0 0 -252 67zm252 -67c18,69 -23,141 -92,159 -70,19 -141,-22 -160,-92l252 -67zm-279 482l-67 -251 -3 1 6 -2 7 -2 6 -3 6 -3 6 -3 6 -4 6 -4 5 -3 6 -5 5 -4 4 -4 5 -5 5 -5 4 -5 3 -6 4 -5 3 -5 3 -5 3 -7 2 -5 2 -6 2 -6 1 -6 1 -6 1 -6 0 -6 1 -8 -1 -6 0 -7 -1 -7 -2 -8 -2 -8 252 -67 4 21 4 20 3 21 2 20 0 21 0 20 -2 20 -2 20 -4 20 -4 19 -6 18 -6 19 -8 18 -7 16 -9 17 -10 17 -10 15 -11 15 -12 15 -12 14 -13 13 -13 13 -14 12 -14 11 -16 11 -15 10 -15 9 -17 9 -17 8 -17 7 -17 7 -18 5 -3 1zm3 -1c-69,20 -141,-19 -161,-88 -20,-68 19,-141 88,-161l73 249zm-485 -277l251 -67 0 0 2 6 2 6 3 7 3 6 3 5 3 6 4 6 4 5 4 5 4 5 4 4 5 4 5 5 5 3 6 4 5 3 6 4 6 3 6 2 6 2 6 2 7 2 5 1 7 1 7 1 6 1 7 0 6 -1 7 0 6 -1 7 -1 7 -2 67 251 -19 5 -20 4 -20 2 -20 2 -19 1 -19 -1 -20 -1 -19 -2 -19 -3 -19 -4 -18 -5 -18 -6 -18 -7 -17 -7 -17 -8 -16 -9 -17 -10 -15 -11 -15 -11 -15 -12 -14 -13 -13 -13 -13 -15 -12 -14 -12 -16 -10 -15 -11 -17 -9 -18 -8 -17 -8 -19 -6 -19 -6 -19 0 0zm0 0c-19,-69 22,-141 92,-159 69,-19 140,22 159,92l-251 67z"/>
   </g>
   <g>
    <path class="fil3 str0" d="M131 4447c220,-173 498,-276 801,-276 627,0 1150,445 1271,1035"/>
   </g>
   <path class="fil4" d="M270 684l-139 241 207 219 -5 93 5 94 -207 219 139 241 139 241 293 -70c50,36 104,68 162,93l86 289 278 0 279 0 86 -289c57,-25 111,-57 161,-93l294 70 139 -241 139 -241 -207 -219 5 -94 -5 -93 207 -219 -139 -241 -139 -241 -294 70c-50,-37 -104,-68 -161,-94l-86 -288 -279 0 -278 0 -86 288c-58,26 -112,57 -162,94l-293 -70 -139 241zm663 554c0,-163 132,-295 295,-295 163,0 295,132 295,295 0,163 -132,295 -295,295 -163,0 -295,-132 -295,-295z"/>
   <g>
    <path class="fil2" d="M1724 387l60 252 -106 -21 -4 -3 -4 -3 -5 -3 -3 -2 -4 -3 -5 -3 -5 -3 -4 -3 -3 -2 -3 -2 -5 -3 -5 -3 -5 -4 -4 -2 -3 -2 -5 -3 -4 -2 -4 -2 -5 -3 -5 -3 -4 -2 -4 -2 -5 -3 -4 -2 -4 -2 -5 -2 -5 -3 -4 -2 -4 -2 -5 -2 -4 -2 -5 -2 105 -237 6 2 7 3 6 3 6 3 7 3 5 3 5 3 7 3 6 3 6 3 6 3 7 4 5 3 5 3 6 3 6 4 6 3 6 4 7 4 5 3 5 3 5 3 6 4 6 4 6 4 5 3 5 3 6 4 6 5 5 3 5 4 6 4 -107 -21zm107 21c58,42 71,123 28,181 -42,58 -123,71 -181,29l153 -210zm247 161l-294 70 -60 -252 294 -70 142 61 -82 191zm-60 -252c69,-17 140,26 156,96 17,70 -26,140 -96,156l-60 -252zm56 432l-139 -241 225 -130 139 241 -225 130 0 0zm225 -130c36,62 15,142 -48,178 -62,35 -141,14 -177,-48l225 -130zm-85 371l-140 -241 225 -130 139 241 -18 154 -206 -24zm224 -130c36,62 15,142 -47,177 -62,36 -142,15 -177,-47l224 -130zm-414 195l208 -219 188 178 -207 219 -223 -75 34 -103zm189 178c-49,53 -131,55 -183,6 -52,-49 -55,-132 -6,-184l189 178zm40 4l-259 0 0 0 0 -3 0 -3 0 0 -1 -3 0 -6 0 0 0 -3 0 -3 0 0 0 -3 0 -3 0 -3 0 -3 0 -2 0 -4 0 -2 0 -1 -1 -3 0 -5 0 0 0 0 0 -3 -1 -6 0 -3 0 0 0 -3 0 0 0 -3 -1 -5 0 -1 0 -3 0 -2 258 -27 0 3 1 3 0 5 0 0 0 3 1 6 0 3 1 5 0 3 0 1 0 2 0 6 1 5 0 1 0 3 0 5 0 3 0 3 1 3 0 3 0 3 0 2 0 4 0 5 0 3 0 3 0 5 0 1 0 3 0 5 0 3 0 3 0 0zm-40 4l-189 179 -34 -102 0 -4 0 -2 0 -1 0 -2 1 -3 0 -3 0 -3 0 -3 1 -3 0 0 0 -3 0 -6 0 0 0 0 0 -6 1 -3 0 0 0 -3 0 -3 0 -3 0 -3 0 -3 0 0 0 -3 0 -5 0 -1 0 0 0 -6 1 -3 0 0 0 -3 0 -3 259 0 0 3 0 3 0 6 0 3 0 0 0 6 0 5 0 0 0 3 0 6 0 3 0 3 0 3 -1 3 0 3 0 5 0 3 0 0 0 6 -1 5 0 1 0 3 0 5 -1 3 0 3 0 3 0 3 -1 3 0 3 0 5 -1 3 0 3 -35 -103zm35 103c-7,71 -71,123 -142,116 -72,-7 -123,-71 -116,-142l258 26zm-16 295l-208 -219 189 -179 207 220 18 154 -206 24zm188 -178c49,52 47,134 -5,183 -52,49 -134,47 -183,-5l188 -178zm-346 264l140 -240 224 130 -139 241 -225 -130 0 -1zm225 131c-36,62 -115,83 -177,47 -62,-36 -84,-115 -48,-178l225 131zm-364 111l139 -241 225 129 -139 242 -142 61 -83 -191zm225 130c-36,62 -115,83 -177,47 -62,-35 -84,-115 -48,-177l225 130zm-376 -262l294 70 -60 253 -294 -70 -46 -231 106 -22zm-60 253c-69,-16 -113,-87 -96,-156 16,-70 87,-113 156,-97l-60 253zm-7 4l-249 -74 72 -81 5 -2 4 -2 4 -2 5 -3 5 -2 4 -2 4 -2 4 -2 5 -3 5 -3 5 -2 4 -2 4 -2 4 -2 4 -3 6 -3 3 -2 4 -2 5 -4 4 -2 4 -2 5 -3 4 -3 5 -3 3 -2 4 -3 4 -3 5 -3 3 -2 5 -3 4 -4 4 -2 153 210 -6 4 -5 3 -5 4 -6 5 -6 3 -4 3 -6 4 -7 5 -5 3 -6 3 -5 4 -5 3 -7 4 -4 3 -7 4 -7 4 -4 2 -6 3 -6 4 -6 4 -7 3 -5 3 -5 3 -6 2 -6 4 -7 3 -6 3 -6 3 -5 2 -7 4 -7 2 -5 3 71 -82zm-71 82c-66,29 -143,0 -172,-66 -29,-65 0,-142 66,-171l106 237zm-264 133l86 -289 249 74 -86 289 -124 93 -125 -167zm249 74c-20,69 -93,108 -161,88 -69,-21 -108,-93 -88,-162l249 74zm-402 -167l278 0 0 260 -279 0 0 -260 1 0zm-1 260c-71,0 -129,-58 -129,-130 0,-72 58,-130 130,-130l-1 260zm-278 -260l278 0 1 260 -279 0 -125 -93 125 -167zm0 260c-72,0 -130,-58 -130,-130 0,-71 58,-130 130,-130l0 260zm38 -456l86 289 -249 74 -86 -289 178 -155 71 81zm-249 74c-20,-68 19,-141 88,-161 69,-21 141,19 161,87l-249 74zm-7 -4l-60 -253 106 22 4 2 5 4 4 3 3 1 4 4 5 3 4 2 5 4 4 2 4 3 4 2 5 3 4 3 4 2 4 2 4 3 6 3 4 3 4 2 3 2 5 2 5 3 3 2 6 2 4 3 4 2 6 3 3 1 5 2 5 3 4 2 5 2 -106 237 -6 -3 -6 -2 -6 -3 -6 -3 -7 -4 -6 -2 -6 -3 -6 -3 -5 -3 -7 -4 -5 -3 -6 -2 -7 -4 -6 -4 -6 -3 -4 -2 -6 -4 -7 -4 -5 -3 -6 -4 -5 -3 -6 -4 -6 -4 -6 -3 -5 -3 -6 -4 -4 -4 -5 -3 -7 -5 -6 -4 -4 -3 -6 -4 106 21zm-106 -21c-58,-42 -71,-123 -29,-181 42,-58 123,-71 181,-29l-152 210zm-247 -162l293 -70 60 253 -293 70 -143 -61 83 -192zm60 253c-70,17 -140,-26 -156,-96 -17,-70 26,-140 96,-157l60 253zm-56 -432l139 241 -226 130 -138 -241 225 -130 0 0zm-225 130c-36,-62 -15,-142 47,-178 62,-36 142,-14 178,48l-225 130zm85 -371l140 241 -225 130 -140 -241 18 -155 207 25zm-225 130c-36,-62 -14,-142 48,-178 62,-36 141,-14 177,48l-225 130zm414 -195l-207 219 -189 -179 207 -219 224 76 -35 103zm-189 -179c50,-52 132,-54 184,-5 52,50 54,132 5,184l-189 -179zm-40 -4l260 0 0 0 0 3 0 3 0 0 0 3 0 6 0 0 0 1 0 5 0 3 0 1 0 2 0 3 1 3 0 3 0 3 0 0 0 3 0 3 0 3 1 3 0 0 0 6 0 3 0 0 0 3 1 3 0 3 0 0 0 3 0 3 1 3 0 2 -258 27 -1 -3 0 -3 0 -3 -1 -3 0 -5 0 -3 -1 -3 0 -3 0 -5 0 -3 0 -1 -1 -5 0 -3 0 -3 0 -3 -1 -3 0 -5 0 -3 0 -3 0 -3 0 -3 0 -3 -1 -6 0 -3 0 0 0 -5 0 -6 0 0 0 -3 0 -6 0 -3 0 -3 0 0zm40 -4l189 -178 35 103 0 2 0 0 -1 6 0 3 0 0 0 3 -1 3 0 3 0 3 0 2 0 1 0 3 -1 3 0 2 0 3 0 1 0 3 0 2 0 3 -1 3 0 3 0 3 0 3 0 0 0 3 0 3 0 0 0 6 0 3 0 0 0 3 0 3 -260 0 0 -3 0 -3 0 -5 0 -3 0 -1 0 -5 0 -3 0 -3 1 -5 0 -3 0 -3 0 -3 0 -3 0 -3 0 -3 0 -3 1 -6 0 -2 0 -3 0 -3 0 -3 1 -6 0 -2 0 -3 0 -3 1 -3 0 -3 0 -6 1 -3 0 0 0 -5 1 -4 34 103zm-34 -103c7,-71 71,-123 143,-115 71,7 123,72 115,143l-258 -28zm16 -294l207 219 -189 178 -207 -219 -18 -154 207 -24zm-189 178c-49,-52 -47,-134 5,-183 52,-50 135,-47 184,5l-189 178zm346 -265l-139 241 -225 -130 139 -241 225 130 0 0zm-225 -130c36,-62 116,-83 178,-47 62,36 83,115 47,177l-225 -130zm365 -111l-140 241 -225 -130 139 -241 143 -61 83 191zm-226 -130c36,-62 116,-83 178,-48 62,36 83,116 48,178l-226 -130zm376 261l-293 -70 60 -252 293 69 46 232 -106 21zm60 -253c70,17 113,87 96,157 -16,69 -86,113 -156,96l60 -253zm8 -4l249 74 -72 82 -5 2 -4 2 -6 3 -4 2 -3 1 -5 3 -6 2 -4 2 -4 3 -5 2 -4 2 -4 3 -5 2 -3 2 -5 3 -5 3 -4 2 -4 2 -4 3 -5 3 -3 2 -5 3 -5 3 -4 2 -4 3 -4 2 -4 3 -4 3 -5 3 -4 3 -3 2 -5 4 -152 -210 4 -4 7 -4 6 -4 4 -4 6 -3 5 -4 6 -4 6 -4 6 -4 5 -3 5 -3 7 -4 5 -3 5 -4 7 -4 6 -3 5 -3 5 -3 7 -4 6 -3 6 -3 6 -3 6 -3 6 -3 6 -4 6 -2 5 -3 7 -3 7 -3 4 -3 7 -3 7 -3 -72 82zm72 -82c65,-28 142,1 171,67 29,65 -1,142 -66,171l-105 -238zm262 -132l-85 288 -249 -74 85 -288 125 -93 124 167zm-249 -74c21,-69 93,-108 162,-88 69,21 108,93 87,162l-249 -74zm403 167l-278 0 0 -260 278 0 0 260 0 0zm0 -260c72,0 130,58 130,130 0,72 -58,130 -130,130l0 -260zm279 260l-279 0 0 -260 279 0 124 93 -124 167zm0 -260c71,0 130,58 130,130 0,71 -59,130 -130,130l0 -260zm-39 456l-86 -289 249 -74 86 288 -177 156 -72 -81zm249 -75c21,69 -19,141 -87,162 -69,20 -141,-19 -162,-87l249 -75z"/>
   </g>
   <g>
    <path class="fil5" d="M803 1238l0 0 1 -22 2 -22 2 -21 4 -21 5 -20 5 -21 7 -19 7 -20 9 -19 10 -18 10 -18 11 -17 12 -17 12 -16 13 -15 15 -15 15 -14 15 -13 16 -13 17 -12 16 -11 18 -10 19 -9 19 -9 19 -8 20 -6 20 -6 20 -5 22 -4 21 -2 21 -2 22 0 0 259 -8 1 -9 0 -8 1 -8 2 -8 2 -8 2 -8 3 -7 3 -7 3 -7 3 -7 4 -7 5 -7 4 -6 5 -6 6 -6 5 -5 5 -5 7 -5 6 -4 6 -5 7 -4 7 -4 7 -3 7 -3 8 -2 7 -3 8 -1 8 -2 8 -1 9 -1 8 0 9 0 0 -260 0zm425 425l0 0 -22 -1 -21 -2 -21 -2 -22 -4 -20 -5 -20 -5 -20 -7 -19 -8 -19 -8 -19 -10 -18 -10 -16 -11 -17 -12 -16 -12 -16 -14 -14 -14 -14 -14 -14 -16 -12 -16 -12 -17 -11 -17 -10 -17 -10 -19 -9 -19 -7 -19 -7 -20 -5 -20 -5 -21 -4 -21 -2 -21 -2 -22 -1 -21 260 0 0 8 1 8 1 9 2 8 1 8 3 8 2 8 3 7 3 7 4 7 4 7 5 7 4 7 5 6 5 6 5 5 6 6 6 5 6 5 7 4 7 5 7 4 7 4 7 3 7 3 8 2 8 2 8 2 8 2 8 1 9 1 8 0 0 0 0 260zm425 -425l0 0 0 21 -2 22 -3 21 -3 21 -5 21 -6 20 -7 20 -7 19 -9 19 -9 19 -11 17 -10 17 -12 17 -13 16 -13 16 -14 14 -15 14 -15 14 -17 12 -16 12 -17 11 -18 10 -19 10 -19 8 -19 8 -19 7 -21 5 -20 5 -21 4 -21 2 -22 2 -22 1 0 -260 9 0 8 -1 9 -1 8 -2 8 -2 7 -2 8 -2 8 -3 7 -3 7 -4 6 -4 8 -5 6 -4 6 -5 6 -5 6 -6 6 -6 5 -5 5 -6 4 -7 5 -7 4 -7 3 -7 3 -7 3 -7 3 -8 2 -8 2 -8 1 -8 2 -9 0 -8 0 -8 0 0 260 0zm-425 -425l0 0 22 0 22 2 21 2 21 4 20 5 21 6 19 6 19 8 19 8 19 10 18 10 17 11 16 12 17 13 15 13 15 14 14 15 13 15 13 16 12 17 10 17 11 18 9 18 9 19 7 20 7 19 6 21 5 20 3 21 3 21 2 22 0 22 -260 0 0 -9 0 -8 -2 -9 -1 -8 -2 -8 -2 -8 -3 -7 -3 -8 -3 -7 -3 -7 -4 -7 -5 -7 -4 -6 -5 -6 -6 -6 -5 -6 -6 -6 -6 -5 -6 -5 -6 -4 -8 -5 -6 -4 -7 -3 -7 -3 -8 -4 -8 -2 -7 -2 -8 -2 -8 -2 -9 -1 -8 0 -9 -1 0 0 0 -259z"/>
   </g>
  </g>
 </g>
</svg>
