<svg id="Слой_1" data-name="Слой 1" xmlns="http://www.w3.org/2000/svg" xmlns:xlink="http://www.w3.org/1999/xlink" viewBox="0 0 504.74 132.7"><defs><style>.cls-1{fill:none;}.cls-2{clip-path:url(#clip-path);}.cls-3{fill:url(#Безымянный_градиент);}.cls-4{clip-path:url(#clip-path-2);}.cls-5{fill:url(#Безымянный_градиент_2);}.cls-6{clip-path:url(#clip-path-3);}.cls-7{fill:url(#Безымянный_градиент_3);}.cls-8{clip-path:url(#clip-path-4);}.cls-9{fill:url(#Безымянный_градиент_4);}.cls-10{clip-path:url(#clip-path-5);}.cls-11{fill:url(#Безымянный_градиент_5);}.cls-12{clip-path:url(#clip-path-6);}.cls-13{fill:url(#Безымянный_градиент_6);}.cls-14{clip-path:url(#clip-path-7);}.cls-15{fill:url(#Безымянный_градиент_7);}.cls-16{clip-path:url(#clip-path-8);}.cls-17{fill:url(#Безымянный_градиент_8);}.cls-18{clip-path:url(#clip-path-9);}.cls-19{fill:url(#Безымянный_градиент_9);}.cls-20{clip-path:url(#clip-path-10);}.cls-21{fill:url(#Безымянный_градиент_10);}.cls-22{clip-path:url(#clip-path-11);}.cls-23{fill:url(#Безымянный_градиент_11);}.cls-24{clip-path:url(#clip-path-12);}.cls-25{fill:url(#Безымянный_градиент_12);}.cls-26{clip-path:url(#clip-path-13);}.cls-27{fill:url(#Безымянный_градиент_13);}.cls-28{clip-path:url(#clip-path-14);}.cls-29{fill:url(#Безымянный_градиент_14);}.cls-30{fill:#3f71ff;}.cls-31{fill:#ffab1d;}</style><clipPath id="clip-path" transform="translate(-25.66 -323.89)"><path class="cls-1" d="M178.76,383.81h0s0,0,.34.13l0-.22a3.37,3.37,0,0,1-.34.09"/></clipPath><linearGradient id="Безымянный_градиент" y1="841.89" x2="1" y2="841.89" gradientTransform="matrix(152.51, 0, 0, -152.51, 32.62, 128781.03)" gradientUnits="userSpaceOnUse"><stop offset="0" stop-color="#ffe82a"/><stop offset="1" stop-color="#ff1c00"/></linearGradient><clipPath id="clip-path-2" transform="translate(-25.66 -323.89)"><path class="cls-1" d="M73.76,405.77h0v0l0,0"/></clipPath><linearGradient id="Безымянный_градиент_2" x1="0" y1="841.89" x2="1" y2="841.89" gradientTransform="matrix(152.51, 0.06, 0.06, -152.51, -13.21, 128802.89)" xlink:href="#Безымянный_градиент"/><clipPath id="clip-path-3" transform="translate(-25.66 -323.89)"><path class="cls-1" d="M73.81,405.73h0v0"/></clipPath><linearGradient id="Безымянный_градиент_3" x1="0" y1="841.89" x2="1" y2="841.89" gradientTransform="matrix(36.8, 0.03, 0.03, -36.8, 12.83, 31391.18)" xlink:href="#Безымянный_градиент"/><clipPath id="clip-path-4" transform="translate(-25.66 -323.89)"><path class="cls-1" d="M85.36,397.45v0h0l0,0v0"/></clipPath><linearGradient id="Безымянный_градиент_4" x1="0" y1="841.89" x2="1" y2="841.89" gradientTransform="matrix(152.51, 0.13, 0.13, -152.51, -73.08, 128794.53)" xlink:href="#Безымянный_градиент"/><clipPath id="clip-path-5" transform="translate(-25.66 -323.89)"><path class="cls-1" d="M73.81,405.73v0h0v0h0"/></clipPath><linearGradient id="Безымянный_градиент_5" x1="0" y1="841.89" x2="1" y2="841.89" gradientTransform="matrix(110.91, -0.05, -0.05, -110.91, 77.07, 93781.26)" xlink:href="#Безымянный_градиент"/><clipPath id="clip-path-6" transform="translate(-25.66 -323.89)"><path class="cls-1" d="M100.36,375.39l0,0,.11-.11-.15.07"/></clipPath><linearGradient id="Безымянный_градиент_6" x1="0" y1="841.89" x2="1" y2="841.89" gradientTransform="matrix(152.51, 0.02, 0.02, -152.51, 17.88, 128772.54)" xlink:href="#Безымянный_градиент"/><clipPath id="clip-path-7" transform="translate(-25.66 -323.89)"><path class="cls-1" d="M141.72,377.09a21.29,21.29,0,0,0,3.41.56c-.13-.54-.25-1.07-.38-1.6l-3,1"/></clipPath><linearGradient id="Безымянный_градиент_7" y1="841.89" x2="1" y2="841.89" gradientTransform="matrix(-112.46, 0, 0, 112.46, 148.93, -94303.99)" gradientUnits="userSpaceOnUse"><stop offset="0" stop-color="#b8d6f4"/><stop offset="1" stop-color="#6a8cff"/></linearGradient><clipPath id="clip-path-8" transform="translate(-25.66 -323.89)"><path class="cls-1" d="M125.36,360.08c-2,1.08-4,2.15-6.08,3.07.71.87,1.4,1.76,2,2.69l2.83-.88,1.76-.42c1.62-1.49,3.32-1.7,4.66-.63q-1.64-2.32-3.24-4.68a10.73,10.73,0,0,0-2,.85"/></clipPath><linearGradient id="Безымянный_градиент_8" x1="0" y1="841.89" x2="1" y2="841.89" gradientTransform="matrix(-112.46, 0, 0, 112.46, 143.1, -94318.27)" xlink:href="#Безымянный_градиент_7"/><clipPath id="clip-path-9" transform="translate(-25.66 -323.89)"><path class="cls-1" d="M131.46,366.4c-2.44,1.34-4.92,2.63-7.43,3.83a45,45,0,0,1,3.26,7.77c2.84-.46,5.68-.95,8.54-1.17-2.78.58-5.54,1.29-8.32,1.88a47.33,47.33,0,0,1,1.82,10.21c1.52-.49,3-1,4.51-1.59,1.69-.68,2.64-.24,3.74,1.69-2.45-1.77-4.4-.87-6.4-.09-.6.24-1.2.47-1.81.69,0,.83.07,1.67.08,2.51s0,1.71-.07,2.55c.92.8-.09,2.65-.27,4.21l8.81-4.3c.08-.77.15-1.54.22-2.31a3.21,3.21,0,0,1,1.39-2.73c2-1.44,4.06-2.92,6-4.53a2.63,2.63,0,0,0,.83-2c-.33-1.51-.67-3-1-4.52a9.86,9.86,0,0,0-4.48,2.88,1.5,1.5,0,0,1-.27-.12l2.77-3-4.27-2.45c1.63-.42,3.47-.79,5.28-1.34l-.15-.59a9,9,0,0,1-1.48.13c.42-.34.84-.66,1.28-1-.32-1.28-.66-2.56-1-3.83a2.4,2.4,0,0,0-1.72-1.36l-.7-.08c-4.74,2.05-9.82,2.33-15,2.66,2.41-1.24,4.8-2.5,7.21-3.74a3.8,3.8,0,0,1-.81-.79l-.32-.45c0,.38,0,.85-.21.94"/></clipPath><linearGradient id="Безымянный_градиент_9" x1="0" y1="841.91" x2="1" y2="841.91" gradientTransform="matrix(-112.46, 0, 0, 112.46, 150.72, -94300.88)" xlink:href="#Безымянный_градиент_7"/><clipPath id="clip-path-10" transform="translate(-25.66 -323.89)"><path class="cls-1" d="M83.17,330.67l-11.89,3.66c-1,.3-1.37.94-1.39,2.15,0,2.71-.17,5.42-.42,8.11a3.74,3.74,0,0,1-1.1,2.19q-4.89,4.39-9.92,8.59a2.67,2.67,0,0,1-2,.63c-2.63-.47-5.23-1.12-8.22-1.79-.24.2-.85.48-1.12,1-2.15,4.1-4.29,8.22-6.3,12.41a2.92,2.92,0,0,0,.36,2.35c1.54,2.17,3.3,4.15,4.86,6.31a3.63,3.63,0,0,1,.56,2.25q-.69,7-1.58,14a3.48,3.48,0,0,1-1,2c-2,1.68-4.24,3.14-6.27,4.84a2.88,2.88,0,0,0-.86,2.21c1,4.49,2.12,8.93,3.17,13.39a2,2,0,0,0,2.2,1.75,68.74,68.74,0,0,1,7,.46,3.18,3.18,0,0,1,1.92,1.24l.51.73.69,1q1.11,1.56,2.19,3.15l.65.94q1.76,2.58,3.47,5.19A4.3,4.3,0,0,1,59.4,432c-.34,2.68-.8,5.35-1.38,8a2,2,0,0,0,.9,2.44q5.27,3.39,10.51,6.82a1.81,1.81,0,0,0,2.68-.43,70.51,70.51,0,0,1,5.28-5.24,3.19,3.19,0,0,1,2.31-.66c4,.47,8,1.05,12,1.71a3.39,3.39,0,0,1,2.09,1.29c1.48,2.23,2.73,4.64,4.19,6.88a2.14,2.14,0,0,0,1.76,1c4.06-1.11,8.07-2.38,12.11-3.59,1.05-.31,1.5-.93,1.51-2.25,0-2.63.14-5.28.42-7.89a4.39,4.39,0,0,1,1.31-2.48c3.09-2.82,6.34-5.44,9.4-8.29a2.59,2.59,0,0,1,2.72-.81c2.28.59,4.58,1.15,6.89,1.52a2.27,2.27,0,0,0,2-.82q3.3-6.09,6.33-12.39a2.74,2.74,0,0,0-.31-2.18c-1-1.36-2-2.64-3.07-3.94l-15.76,4.83C116.6,427,105,434.7,91.79,434.7a35.76,35.76,0,0,1-26.45-11.94c-.43-.46-.85-.94-1.26-1.43-.75-.9-1.47-1.83-2.15-2.8-.32-.46-.64-.93-1-1.41a44.39,44.39,0,0,1-3.7-7.12l-.15-.37a47.11,47.11,0,0,1-3.29-17.38c0-23.47,16.85-42.58,37.65-42.63a34.4,34.4,0,0,1,18.21,5.18,4.12,4.12,0,0,1,2.69-.58,48.17,48.17,0,0,1,9.47,2.86c-2.39-.46-4.8-.86-7.17-1.4a6.57,6.57,0,0,0-3.53.06,39.52,39.52,0,0,1,8.12,7.41c2.06-.92,4.07-2,6.08-3.07a10.73,10.73,0,0,1,2-.85c-1-1.42-1.93-2.86-2.88-4.3a3.91,3.91,0,0,1-.6-2.4c.36-2.75,1-5.45,1.33-8.19a2.82,2.82,0,0,0-.76-2.21c-3.56-2.44-7.21-4.71-10.82-7.08-.94-.63-1.57-.32-2.31.46-1.76,1.86-3.54,3.69-5.43,5.37a3.16,3.16,0,0,1-2.33.62c-4-.49-7.89-1.21-11.85-1.64a2.74,2.74,0,0,1-2.43-1.57c-1.2-2.18-2.56-4.25-3.76-6.44-.45-.84-1-1.28-1.69-1.28a2.17,2.17,0,0,0-.64.1"/></clipPath><linearGradient id="Безымянный_градиент_10" y1="841.89" x2="1" y2="841.89" gradientTransform="matrix(105.65, 0, 0, -105.65, 11.27, 89012.09)" gradientUnits="userSpaceOnUse"><stop offset="0" stop-color="#b8d6f4"/><stop offset="0" stop-color="#3f71ff"/><stop offset="1" stop-color="#3f71ff"/></linearGradient><clipPath id="clip-path-11" transform="translate(-25.66 -323.89)"><path class="cls-1" d="M135.79,396.42c-1.89,1-3.74,2.12-5.67,3.06a2.63,2.63,0,0,1-1.24.11c-.07.43-.14.85-.22,1.27a27.65,27.65,0,0,1,2,2.46c.54.78.06,2.27,0,3.44l-.9,0a31,31,0,0,0-1.87-2.48c-.34,1.29-.74,2.57-1.18,3.81l2.87,1.2a10.66,10.66,0,0,1-2.32,1.54l-1.89.57a42.64,42.64,0,0,1-2.05,4l15.76-4.83c-.61-.78-1.21-1.56-1.78-2.37a2.57,2.57,0,0,1-.34-.66,17,17,0,0,1-3.8,1.16c-1.62.22-1.93-1-1-2.24s1.87-2.28,2.82-3.41l-.64-.53L132,404.77c-.3-.86-.57-1.62-.92-2.6l6.24-2.54c.16-1.44.33-2.88.48-4.31l-2.05,1.1"/></clipPath><linearGradient id="Безымянный_градиент_11" x1="0" y1="841.89" x2="1" y2="841.89" gradientTransform="matrix(-112.46, 0, 0, 112.46, 158.79, -94275.65)" xlink:href="#Безымянный_градиент_7"/><clipPath id="clip-path-12" transform="translate(-25.66 -323.89)"><path class="cls-1" d="M109.7,354.8c.49.3,1,.61,1.46.94a6.57,6.57,0,0,1,3.53-.06c2.37.54,4.78.94,7.17,1.4a48.17,48.17,0,0,0-9.47-2.86,2.65,2.65,0,0,0-.5-.05,4.48,4.48,0,0,0-2.19.63"/></clipPath><linearGradient id="Безымянный_градиент_12" x1="0" y1="841.89" x2="1" y2="841.89" gradientTransform="matrix(-112.46, 0, 0, 112.46, 140.13, -94325.44)" xlink:href="#Безымянный_градиент_7"/><clipPath id="clip-path-13" transform="translate(-25.66 -323.89)"><path class="cls-1" d="M124.16,365l-2.34,1.5.06.19c.58.86,1.12,1.74,1.63,2.65l2.25-1.33-1.94,0,1.69-1.74-1.56-.05,2-1.6Z"/></clipPath><linearGradient id="Безымянный_градиент_13" x1="0" y1="841.89" x2="1" y2="841.89" gradientTransform="matrix(-112.46, 0, 0, 112.46, 144.68, -94314.23)" xlink:href="#Безымянный_градиент_7"/><clipPath id="clip-path-14" transform="translate(-25.66 -323.89)"><path class="cls-1" d="M40.6,426.1l0,.2,14.67-2.11-.65-.94-14,2.85m23.48-4.77c.41.49.83,1,1.26,1.43l1.93-.27c1.19-.17,1.9-.52,1.12-2l-4.31.88M45,420.6l.12.71,7.37-1.21-.69-1L45,420.6m16-3.48c.31.48.63.95,1,1.41,2.18-.37,4.36-.74,6.54-1.13.63-.11,1.1-1.09,1.64-1.67l-.41-.51L61,417.12m8.91,3c.22,4.7,1.87,5.93,6,4.85.42-.11.83-.24,1.24-.38L93.85,419l24.82-8.34c0-.11,0-.21-.07-.32l-48.71,9.83M71,406.47c-4.62,1-9.22,2.09-13.83,3.16l.15.37,15.34-2.51c0-.24.09-.48.13-.72a9.89,9.89,0,0,0-1.52-.33,1.24,1.24,0,0,0-.27,0m.54-23.66c-4.93.94-9.89,1.67-14.84,2.48,0,.33.09.66.13,1l18.33-1.48c-.58-1.54-1.38-2.11-2.57-2.11a5.12,5.12,0,0,0-1,.12m70.22-5.72a21.29,21.29,0,0,0,3.41.56c-.13-.54-.25-1.07-.38-1.6l-3,1m4.49-3.7a13.27,13.27,0,0,1-2,.49l.15.59,1-.31c3.3-1.13,6.53-2.47,9.79-3.72-3,1-6,2-8.94,2.95m7.43,23.78c-1.73,3.33-3.35,6.73-6.85,9.38l6.85-9.38m-25.75,7.15c-1.53-1.93-3-4-2.7-7.26,1.23,1.39,2.41,2.6,3.47,3.8a27.65,27.65,0,0,1,2,2.46c.54.78.06,2.27,0,3.44l-.9,0a31,31,0,0,0-1.87-2.48M95.64,394.18c2.11-.08,3.29.13,3.63,2s.91,4,1.37,5.94l-.19.12-4.81-8.07m42.28.41,3.77-1.84.21.39-4.06,2.18-2.05,1.1c-1.89,1-3.74,2.12-5.67,3.06a2.63,2.63,0,0,1-1.24.11c-.26,0-.47-.1-.5-.18-.57-1.63-.95-3.33-1.41-5.06a3.26,3.26,0,0,1,2.41.33c.92.8-.09,2.65-.27,4.21Zm3.88,11.94c.81-1.06,1.49-2,2.27-2.95a13.52,13.52,0,0,0,3.37-7.1,4.28,4.28,0,0,1,1.15-1.87c.71-.82,1.53-1.56,2.5-2.53a15.65,15.65,0,0,1,2.38,1.12c1.3.85,1,1.9,0,3a35.48,35.48,0,0,0-4.11,5.17c-1.77,2.6-3.47,5.17-7.28,5.17h-.24m4.41-13.69c.2-.86.3-1.75.56-2.61.93,6.94-2.42,12.11-6.91,16.79-.18.18-.79,0-1.21-.09-.56.19-1.13.41-1.69.63a17,17,0,0,1-3.8,1.16c-1.62.22-1.93-1-1-2.24s1.87-2.28,2.82-3.41l-.64-.53L132,404.77c-.3-.86-.57-1.62-.92-2.6l6.24-2.54,7.58-3.1c-.15,1.21-.27,2.16-.39,3.11.55-2.26,1.12-4.52,1.66-6.8m-49.28-1.9c.73-.64,1.4-1.67,2.21-1.8.65-.11,1.48.9,2.58,1.66l-1.66,2.66-3.13-2.52m26.6.14a16.43,16.43,0,0,1,1.79-.87c1.33-.45,2.67-.86,4-1.29,1.52-.49,3-1,4.51-1.59,1.69-.68,2.64-.24,3.74,1.69-2.45-1.77-4.4-.87-6.4-.09-.6.24-1.2.47-1.81.69-1.84.69-3.7,1.36-5.55,2l-.29-.58m-39-.4a39.37,39.37,0,0,1-.54-5.46c1,1,2.45,1.79,2.82,3,.45,1.41,0,3.11-.12,4.85l9.18-5.33.28.39c-2.35,1.5-4.72,3-7,4.52-1,.68-2,1.52-.32,2.63.08.06-.16.57-.27.94l2.78.69a5.07,5.07,0,0,1-1.25.15c-3.07,0-5-2.86-5.52-6.34m94.19-6.87a3.37,3.37,0,0,0,.34-.09l0,.22c-.33-.14-.36-.14-.34-.13h0m3.12-1.51,2.31-6.81.52.17-2.25,6.87-.58-.23m-78.17,3c-1.19-.05-2.38-.15-3.41-.22-.26-1.61-.66-3.43-.81-5.28a2.5,2.5,0,0,1,.89-1.91,51.72,51.72,0,0,1,5.88-3.57c1.92-1,3.19.8,4.14,1.82.53.57.06,2.72-.64,3.65a47.63,47.63,0,0,1-5.1,5.25,1.34,1.34,0,0,1-.88.26h-.07M180,374.36c.08-.72.54-1.91,1-2a16.1,16.1,0,0,1,4,.19c.07,0,.2.87.1.92-3,1.54-2.24,4.82-3.29,7.25-.58,1.34-1.16,2.55-2.61,3,.28-3.23.51-6.31.87-9.36m-79.46,1a4.32,4.32,0,0,1,1.07-1c2.72-1.28,5.47-2.5,8.22-3.73l.3.71-9.59,4-.11.11,0,0h0c-.39.79-.6,1.83-1.23,2.28-.35.24-1.38-.66-2.14-.8-1.44-.26-2.92-.34-4.54-.52,0,0,.16-.74.47-.82,2.47-.56,5-2.79,7.45-.14l.15-.07M76,383.09c-.23-.13-.07-1.17.06-1.76a45.25,45.25,0,0,0,1.12-4.56c.42-3.61,3.4-5.52,5.2-8.48,2.93,2.84-1.5,4.17-.48,6.72l-2-.72c-.29,1.61-.56,3.15-.79,4.44,3.51-1,6.85-2,10.22-2.79.53-.13,1.21.37,1.82.58-.4.59-.67,1.52-1.21,1.73-3.43,1.29-6.91,2.41-10.37,3.6-.58.2-1.15.43-1.89.72a3.57,3.57,0,0,0,4.7,1.32c3.29-1.38,6.53-2.87,9.79-4.31l.25.47c-3.69,1.83-7.26,4.05-11.15,5.3a1.51,1.51,0,0,1-.48.08c-1.39,0-3.28-1.52-4.83-2.34m56.8-16.39c1.28-.65,2.55-1.29,3.83-1.92,1.47-.71,3.28.48,4.41,2.81l-.45.19c-4.74,2.05-9.82,2.33-15,2.66,2.41-1.24,4.8-2.5,7.21-3.74m-9.29,2.6,2.25-1.33-1.94,0,1.69-1.74-1.56-.05,2-1.6c1.62-1.49,3.32-1.7,4.66-.63a4.72,4.72,0,0,1,1,1.12.88.88,0,0,1,.11.43c0,.38,0,.85-.21.94-2.44,1.34-4.92,2.63-7.43,3.83l-.43.21c-.38.18-1.47-.19-1.53-.46-.45-2.21-2.14-2.18-3.8-2.28a1.22,1.22,0,0,1-1-.6l4-1.26,2.83-.88-2.34,1.5.06.19c.33,1,.62,1.94,1,3l.66-.38M132,361c0-.19.1-.38.14-.57l4.61,1.56a4.17,4.17,0,0,1-1.89.73c-.72,0-1.41-.52-2.86-1.72M85.9,357.35l4.28-.18.06.57-5.2.85c0,.09,0,.19.08.28l3.39.45-.05.4-5.15.47-.32.64c3.26.58,4.2,2.73,4.39,5.51l-3,.11-.18.73,6.15,2.35c-5.18.4-7.23-1.48-8-7.85-.16,1.15-.46,1.79-.27,2.21,1.34,3-.58,4.7-2.35,6.54a23.29,23.29,0,0,0-2.18,2.67,6.71,6.71,0,0,0-1,2.1c-.5,2-.94,4-1.29,6-.13.71-.22,1.83.17,2.16,1.82,1.52,3.51,3.47,6.35,2.87A1.48,1.48,0,0,1,83,387c.92,3.21,1.73,6.44,2.54,9.68.06.23-.11.52-.18.78v0l0,0c2.37,3.55,2.38,3.55,7.25,5.06,0,.2,0,.4,0,.6-2.32-.07-4.65,0-7-.27-1.36-.16-1.76-1.29-1.27-2.62.33-.92.64-1.84,1-2.77h0v0c-1,1.64-2,3.29-3.13,5.07a3.52,3.52,0,0,0-5,.08l-3.46,3.13v0l3-.49c.64,2.25,1.26,4.43,2,6.9l-2.73.58c-.78-2.43-1.51-4.71-2.25-7h0a11.7,11.7,0,0,0,.16,2.31c.41,1.52,1,3,1.5,4.67-1.28.34-2.67.36-3.55,1s-1.1,2-1.83,3.44l35-6.79c0-.26-.08-.53-.13-.8L84.57,413c-.1-.3-.2-.61-.31-.91a16.89,16.89,0,0,1,3.26-1.53c4.21-1,8.45-1.76,12.68-2.66a5.41,5.41,0,0,1,4.1.35,8.21,8.21,0,0,0,4,.55c1.32,0,1.72-.9,1-2.11-1.06-1.87-2-3.81-3.23-5.58-1.9-2.76-2.07-5.62-1.81-8.94.34-4.33,1.74-7.73,5.17-10.31,2.68-2,3.13-5.18,3.63-8,.22-1.3-1.47-2.93-2.29-4.41-.19-.34-.34-.7-.68-1.4l9.91,1c0,.18,0,.36,0,.55l-7.52-.13c1,3.27,1.64,3.74,4.56,3.5,2.48-.21,4.95-.54,7.42-.81-2.72.75-5.46,1.35-8.2,2s-3.37,1.53-3,4.7c4.74.67,9.38,0,14-.76,2.84-.46,5.68-.95,8.54-1.17-2.78.58-5.54,1.29-8.32,1.88A43.8,43.8,0,0,1,115,379.94c-2.47-.18-3.66,1-5,3l8,1.2-.06.6c-2.78-.12-5.56-.34-8.33-.28a3.54,3.54,0,0,0-2.31,1.39c-.3.37.07,1.38.33,2a11.67,11.67,0,0,0,1.41,1.94l-2.55-1.57c-2.31,5.32-1.35,11.38,2.3,14.85l1.91-2.8.24.14c-.34,1.13-.68,2.27-1,3.54,4.76.81,9.34,1.36,13.91.44,1.57-.31,2.69,0,3.06,1.38.17.63-.69,1.54-1,2.06l.74.31,2.87,1.2a10.66,10.66,0,0,1-2.32,1.54l-1.89.57c-3,.87-5.93,1.69-8.9,2.53L101,418.39c0,.16.07.33.11.49l13.64-2.24-22.54,8a.7.7,0,0,0,.71.18q15.21-4.67,30.42-9.37l15.76-4.83,6-1.84c4.66-1.43,8.44-3.87,11.05-8.08a6.83,6.83,0,0,0-3-10.19l-1.92-.91c1.05-4,2-8,3.2-11.86.19-.63,1.26-1,1.92-1.47a48,48,0,0,1-1.27,8.21,2.23,2.23,0,0,0,.8,2.73,16.67,16.67,0,0,1,2.54,3.13l-2.13,1.16.18.58,9.05-2.3.06.25-8.28,3.23c.32.3.54.36.73.3,7.18-2.36,14.33-4.79,21.54-7.07,4.73-1.5,6.61-5,7.13-9.53.12-1-.29-2.13-.23-3.19.1-2.07-.82-2.92-2.84-2.74-.57.05-1.15,0-1.72,0-2.52,0-3.14.62-3.19,3.2a45.32,45.32,0,0,1-.14,4.95c-.41,3.27-1.73,5.78-5.34,6.69-3.4.87-6.72,2.1-10.05,3.26a2.33,2.33,0,0,1-3.11-.92c-.82-1.12-1.38-2.79-3.37-2.54-.19,0-.78-1.16-.71-1.72a25.33,25.33,0,0,1,1-3.31c.6-2.16,1.18-4.32,1.76-6.48-2.66.95-5,1.83-7.38,2.64-1.95.66-4,1-6,1.68a9.86,9.86,0,0,0-4.48,2.88,1.5,1.5,0,0,1-.27-.12l2.77-3-4.27-2.45c1.63-.42,3.47-.79,5.28-1.34l-.15-.59a9,9,0,0,1-1.48.13c.42-.34.84-.66,1.28-1a12,12,0,0,1,7.73-2.14,1.65,1.65,0,0,0-.09-.49,10.14,10.14,0,0,0-.8-1L156,369c0,.17.06.33.08.5l-1,1c.86-.51,1.7-1.08,2.59-1.53a5.16,5.16,0,0,1,2-.59c.25,0,.82.83.72,1.09a3,3,0,0,1-1.17,1.32,11.63,11.63,0,0,1-2.34,1.1c-3.93,1.37-7.87,2.71-12.12,4.17.13.53.25,1.06.38,1.6a2.63,2.63,0,0,0,.39-.06c5.32-1.22,10.88-2,14.77-6.47a3.13,3.13,0,0,0,.4-2.4c-.08-.37-1.16-.69-1.8-.71a7.1,7.1,0,0,0-1.44.14,5.42,5.42,0,0,1-1.91.1c-4-.84-8-1.88-11.94-2.81a11.38,11.38,0,0,0-1.66-.16c0,.15,0,.3-.05.45l7.57,2.11c-.06.22-.13.44-.2.66a13,13,0,0,0-2.43-.15c-2,0-4,0-5.48-2.26a7.92,7.92,0,0,0-2.21-1.68c-.35-.24-1-.42-1-.69-.41-3.11-3.24-3.08-5.23-4a7.37,7.37,0,0,0-5.53-.46,10.73,10.73,0,0,0-2,.85c-2,1.08-4,2.15-6.08,3.07-4.44,2-9.1,3.29-14.32,2.48-.84-.13-1.83.67-2.75,1.05l.15.51,5.26.69c-3.42,1.91-6.89,1.08-10.36.88-.93-2.49-1.8-4.84-2.66-7.19l.66-.12,2.46-1.51-8.24,1.73a22.82,22.82,0,0,1,3.56.58,2.66,2.66,0,0,1,1.5,1.48c.14.42-.44,1.17-.86,1.64-.93,1.07-2.21,2.08-3.49,1a12.16,12.16,0,0,1-2.43-3.77c-.12-.23.51-1.18.94-1.31,2.51-.79,5.08-1.42,7.62-2.11-1.68-.78-3.32-1.67-5.06-2.3a7.12,7.12,0,0,0-2.42-.47,4.92,4.92,0,0,0-2.94,1m23.8-2.55a2.64,2.64,0,0,0-.42.3c-2.28,2.07-4.36,4.36-6.45,6.63a9.59,9.59,0,0,0-1.07,2.22c2.41-2.34,4.56-4.37,6.64-6.47a6.3,6.3,0,0,1,6.29-1.8c2.37.54,4.78.94,7.17,1.4a48.17,48.17,0,0,0-9.47-2.86,2.65,2.65,0,0,0-.5-.05,4.48,4.48,0,0,0-2.19.63"/></clipPath><linearGradient id="Безымянный_градиент_14" y1="841.82" x2="1" y2="841.82" gradientTransform="matrix(66.66, 0, 0, -66.66, 61.92, 56503.52)" gradientUnits="userSpaceOnUse"><stop offset="0" stop-color="#ffe82a"/><stop offset="0.3" stop-color="#ffab1d"/><stop offset="1" stop-color="#ff1c00"/></linearGradient></defs><title>logo3</title><g class="cls-2"><rect class="cls-3" x="178.69" y="383.69" width="0.42" height="0.28" transform="translate(-85.47 -289.84) rotate(-9.32)"/></g><g class="cls-4"><rect class="cls-5" x="73.76" y="405.73" width="0.05" height="0.05" transform="translate(-90.55 -306.52) rotate(-9.34)"/></g><g class="cls-6"><rect class="cls-7" x="73.8" y="405.71" width="0.01" height="0.02" transform="matrix(0.99, -0.16, 0.16, 0.99, -90.7, -306.46)"/></g><g class="cls-8"><rect class="cls-9" x="85.35" y="397.43" width="0.02" height="0.05" transform="translate(-89.22 -304.69) rotate(-9.37)"/></g><g class="cls-10"><rect class="cls-11" x="73.8" y="405.73" width="0.02" height="0.04" transform="translate(-90.23 -306.63) rotate(-9.3)"/></g><g class="cls-12"><rect class="cls-13" x="100.35" y="375.31" width="0.17" height="0.13" transform="translate(-85.17 -302.64) rotate(-9.33)"/></g><g class="cls-14"><rect class="cls-15" x="141.53" y="375.5" width="3.78" height="2.76" transform="translate(-149.9 -248.6) rotate(-20.75)"/></g><g class="cls-16"><rect class="cls-17" x="118.47" y="357.45" width="12.91" height="10.18" transform="translate(-146.02 -256.09) rotate(-20.76)"/></g><g class="cls-18"><rect class="cls-19" x="118.83" y="362.56" width="32.84" height="39.22" transform="translate(-152.31 -251.15) rotate(-20.76)"/></g><g class="cls-20"><rect class="cls-21" x="11.16" y="6.68" width="105.9" height="123.27"/></g><g class="cls-22"><rect class="cls-23" x="120.27" y="393.17" width="21.86" height="24.39" transform="translate(-160.79 -251.08) rotate(-20.76)"/></g><g class="cls-24"><rect class="cls-25" x="109.58" y="352.11" width="12.4" height="7.03" transform="matrix(0.94, -0.35, 0.35, 0.94, -144.17, -259.78)"/></g><g class="cls-26"><rect class="cls-27" x="121.11" y="363.97" width="5.51" height="5.9" transform="translate(-147.64 -256.18) rotate(-20.76)"/></g><g class="cls-28"><rect class="cls-29" x="34.61" y="339.5" width="158.15" height="101.48" transform="translate(-105.8 -290.91) rotate(-12.24)"/></g><path class="cls-30" d="M220.59,412.32h-1.78a21.39,21.39,0,0,1-9.05-1.92,21.6,21.6,0,0,1-7.14-5.24,24.27,24.27,0,0,1-4.62-7.72,25.23,25.23,0,0,1-1.67-9,18.64,18.64,0,0,1,1.55-7.65,12.24,12.24,0,0,1,5.07-5.59,17.46,17.46,0,0,1,9.08-2.11h8l2.41,8.81h-8a15.22,15.22,0,0,0-1.65.1,11.8,11.8,0,0,0-1.66.3,5.5,5.5,0,0,0-2.94,2,7.85,7.85,0,0,0-1.35,5,14.94,14.94,0,0,0,1,5.36,13.11,13.11,0,0,0,3,4.59,13.81,13.81,0,0,0,4.74,3.09,16.68,16.68,0,0,0,6.24,1.11l.59,0,.61,0Z" transform="translate(-25.66 -323.89)"/><path class="cls-30" d="M250.19,412.32H241V399.78h-6.23v8.32a10.73,10.73,0,0,0,.42,3.59l.25.63-8.22,5-.38-.77a13.82,13.82,0,0,1-1.29-6.42V383.33h9.22v8.58H241v-8.58h9.21Z" transform="translate(-25.66 -323.89)"/><path class="cls-30" d="M276.14,412.32h-5.58a15.61,15.61,0,0,1-8.36-2.4,17.63,17.63,0,0,1-6.19-6.57,18.21,18.21,0,0,1-2.3-8.89,17.65,17.65,0,0,1,.35-3.69,11.69,11.69,0,0,1,1-3,8.42,8.42,0,0,1,4.25-3.82,19.24,19.24,0,0,1,7.68-1.31h1.9q10.89,0,10.9,8a10.37,10.37,0,0,1-1.46,5.43,16.61,16.61,0,0,1-3.79,4.36,26.62,26.62,0,0,1-2.44,1.78c-.74.49-1.67,1.06-2.81,1.72a21.93,21.93,0,0,0,2.54.39,27,27,0,0,0,2.92.14h3.65Zm-8.56-21.84q-4.45,0-4.45,4.31a9.56,9.56,0,0,0,.12,1.55c.07.48.14.83.19,1s.16.51.3.88l1.73-1,1.13-.73a15.44,15.44,0,0,0,2.67-2.22,3.6,3.6,0,0,0,1.15-2.39,1.12,1.12,0,0,0-.82-1.22,5.69,5.69,0,0,0-.87-.19A7.79,7.79,0,0,0,267.58,390.48Z" transform="translate(-25.66 -323.89)"/><path class="cls-30" d="M303.93,391.39H292.4v16.17a12,12,0,0,0,.38,3.61l.25.61-8.22,5-.42-.82a14.12,14.12,0,0,1-1.25-6.4V383.33h18.52Z" transform="translate(-25.66 -323.89)"/><path class="cls-30" d="M319.57,382.65q5.25,0,7.89,2.17a9.2,9.2,0,0,1,3.31,4.58,16.29,16.29,0,0,1,.65,4.24,26,26,0,0,1-1.69,9.23,19,19,0,0,1-4.88,7.4,10.46,10.46,0,0,1-7.3,2.92,10.22,10.22,0,0,1-5.71-1.7,14.93,14.93,0,0,1-4.4-4.57,24.35,24.35,0,0,1-2.83-6.39,30,30,0,0,1-.7-3.44,24.58,24.58,0,0,1-.24-3.45,16.86,16.86,0,0,1,.64-4.23,9.21,9.21,0,0,1,3.29-4.57c1.77-1.46,4.42-2.19,7.93-2.19ZM322,394.46c0-2.65-1.5-4-4.48-4s-4.45,1.33-4.45,4a17.77,17.77,0,0,0,.73,5.25,11.7,11.7,0,0,0,1.8,3.75c.7.91,1.34,1.36,1.92,1.36s1.2-.45,1.92-1.36a8,8,0,0,0,.95-1.6,18,18,0,0,0,.83-2.12,15.94,15.94,0,0,0,.59-2.51c.06-.42.11-.85.14-1.28S322,395,322,394.46Z" transform="translate(-25.66 -323.89)"/><path class="cls-31" d="M363.38,381.92H352.43v30.4H342.17v-30.4H331.22l2.39-8.81H361Z" transform="translate(-25.66 -323.89)"/><path class="cls-31" d="M385.57,412.32H380a15.57,15.57,0,0,1-8.35-2.4,17.55,17.55,0,0,1-6.19-6.57,18.11,18.11,0,0,1-2.31-8.89,18.35,18.35,0,0,1,.35-3.69,11.69,11.69,0,0,1,1-3,8.34,8.34,0,0,1,4.25-3.82,19.21,19.21,0,0,1,7.68-1.31h1.89q10.9,0,10.9,8a10.36,10.36,0,0,1-1.45,5.43,16.65,16.65,0,0,1-3.8,4.36,25.32,25.32,0,0,1-2.44,1.78c-.73.49-1.67,1.06-2.81,1.72a22.27,22.27,0,0,0,2.54.39,27.09,27.09,0,0,0,2.92.14h3.66ZM377,390.48q-4.45,0-4.46,4.31a9.56,9.56,0,0,0,.12,1.55c.08.48.15.83.2,1s.15.51.29.88l1.74-1,1.12-.73a15.15,15.15,0,0,0,2.68-2.22,3.59,3.59,0,0,0,1.14-2.39,1.11,1.11,0,0,0-.82-1.22,5.82,5.82,0,0,0-.86-.19A7.79,7.79,0,0,0,377,390.48Z" transform="translate(-25.66 -323.89)"/><path class="cls-31" d="M405.45,383.33h10.4l-7.24,13.48,8.2,15.51H406.1l-3.54-10.38h-.09l-3.56,10.38H388.2l8.22-15.51-7.26-13.48h10.43l3,8.67h.1Z" transform="translate(-25.66 -323.89)"/><path class="cls-31" d="M442.2,412.32H433V399.78h-6.24v8.32a10.73,10.73,0,0,0,.42,3.59l.26.63-8.22,5-.38-.77a13.82,13.82,0,0,1-1.29-6.42V383.33h9.21v8.58H433v-8.58h9.21Z" transform="translate(-25.66 -323.89)"/><path class="cls-31" d="M472.13,412.32H457.38a14.72,14.72,0,0,1-5.5-.92,8.77,8.77,0,0,1-3.6-2.57,10.39,10.39,0,0,1-1.92-3.88,18.11,18.11,0,0,1-.6-4.72q0-6.42,4.95-16.9h9.46l-1.54,4.06-.72,2-.77,2.27c-.42,1.34-.81,2.79-1.16,4.34q-.21,1-.33,1.92a13,13,0,0,0-.12,1.69,5.73,5.73,0,0,0,.76,3.28,3.31,3.31,0,0,0,2.07,1.33,17.37,17.37,0,0,0,3.55.28h1V383.33h9.21Z" transform="translate(-25.66 -323.89)"/><path class="cls-31" d="M486.28,412.32h-9.21v-29h9.21ZM496.17,396l7.29,16.29H493.29l-7-16,5.81-13h10Z" transform="translate(-25.66 -323.89)"/><path class="cls-31" d="M530.39,412.32h-9.26a15.6,15.6,0,0,1-8.35-2.4,17.55,17.55,0,0,1-6.19-6.57,18.11,18.11,0,0,1-2.31-8.89,11.52,11.52,0,0,1,2.82-8q2.81-3.15,9.23-3.15h14.06Zm-9.21-21.16h-3a6.77,6.77,0,0,0-3.15.7c-.9.47-1.35,1.56-1.35,3.28a9.87,9.87,0,0,0,2.09,6.1,8,8,0,0,0,5.38,3.25Z" transform="translate(-25.66 -323.89)"/></svg>